<svg width="320" height="180" viewBox="0 0 320 180" fill="none" xmlns="http://www.w3.org/2000/svg">
<path fill-rule="evenodd" clip-rule="evenodd" d="M146.265 7.36961C191.551 -1.53431 235.479 27.9604 244.383 73.2455C253.286 118.53 223.792 162.459 178.507 171.362C133.221 180.265 89.2931 150.772 80.3904 105.487C71.4863 60.2006 100.981 16.2735 146.265 7.36961Z" fill="#F9F9F9"/>
<path fill-rule="evenodd" clip-rule="evenodd" d="M205.135 46.8953C204.087 47.1021 202.959 46.9082 202.001 46.2643C200.084 44.9779 199.575 42.3834 200.861 40.467L204.155 35.5608C205.442 33.6444 208.036 33.1345 209.952 34.4211C211.869 35.7086 212.379 38.3031 211.092 40.2196L207.798 45.1246C207.156 46.0833 206.184 46.6896 205.135 46.8953ZM165.62 29.6942C163.502 29.9021 162.642 32.5287 164.226 33.9491L170.463 39.5462C171.569 40.5403 171.738 42.2135 170.854 43.4079L169.805 44.8208C169.17 45.6757 168.12 46.1116 167.069 45.9563L162.768 45.321C162.013 45.2086 161.243 45.4025 160.629 45.8578L139.277 63.1106L136.994 71.9783C136.58 73.5885 135.28 74.7355 133.75 75.035C133.158 75.1533 132.531 75.1428 131.905 74.9831C129.671 74.4077 128.326 72.1281 128.901 69.8925L129.639 67.0237L127.869 66.7623C123.154 66.0639 118.735 69.3539 118.05 74.0713C117.777 75.9488 118.843 77.7626 120.615 78.4386L140.852 86.1589C140.852 86.1589 149.684 89.7346 151.582 92.0096L158.856 101.804C159.766 103.032 161.128 103.847 162.641 104.07L163.925 104.259C166.194 104.595 168.236 105.816 169.603 107.658L170.677 109.104C172.487 111.542 172.885 114.751 171.725 117.558L168.959 124.258C168.321 125.8 166.717 126.709 165.068 126.466L163.277 126.202C161.729 125.974 160.209 126.76 159.503 128.155L156.544 134.858C155.703 136.759 154.207 138.296 152.327 139.184L145.846 142.244L144.265 152.947C143.978 154.896 142.143 156.229 140.2 155.899L140.177 155.896C138.812 155.665 137.709 154.652 137.361 153.311L134.721 143.132C133.753 139.396 133.544 135.503 134.109 131.685L135.524 122.102C135.859 119.839 135.11 117.552 133.5 115.926L125.829 108.182C124.218 106.555 123.466 104.267 123.802 102.005L124.864 94.8153L127.328 89.9455L114.16 84.9212C108.777 82.8683 104.83 78.1857 103.719 72.5308L102.392 65.7834L101.412 65.6398C98.3174 65.1823 95.8638 62.7957 95.3185 59.7149L92.3722 43.831C99.2549 33.2581 108.399 24.5096 118.995 18.0587L122.453 22.6125C123.402 23.8894 125.206 24.1561 126.485 23.207L128.589 21.6452C131.043 19.8231 134.121 19.0497 137.145 19.4963L137.618 19.5671C139.262 19.8091 140.388 21.3473 140.126 22.9863L139.737 25.418C139.408 27.4661 141.553 29.014 143.394 28.0596L153.483 22.8267C154.376 22.3629 155.394 22.1926 156.389 22.3404L175.557 25.1716L175.026 28.7666L165.62 29.6942ZM244.31 105.852C240.755 123.521 231.82 138.704 219.615 150.172C216.884 148.971 213.897 146.509 213.219 143.938L210.293 132.86C209.495 129.841 209.32 126.692 209.776 123.603L211.19 114.03C211.888 109.307 208.625 104.912 203.901 104.215L203.688 104.183C200.125 103.656 196.831 101.989 194.296 99.4296L193.917 99.046C190.23 95.3251 188.511 90.0847 189.277 84.9009C189.586 82.8066 190.293 80.7904 191.358 78.9602L194.609 73.3776C196.387 70.3228 199.846 68.6569 203.344 69.1745L209.919 70.1461C213.02 70.6047 215.938 71.8975 218.36 73.8847L223.56 78.1509C226.056 80.1992 229.51 80.6255 232.43 79.246L234.676 78.1857C236.219 77.4558 237.944 77.1996 239.633 77.4493L245.13 78.1502C246.348 87.1384 246.201 96.4583 244.31 105.852ZM242.681 66.3799L218.038 60.8323L215.432 63.4482C214.205 65.3389 211.987 66.3405 209.757 66.0107L204.864 65.2874C201.716 64.8225 199.541 61.8928 200.005 58.7435L200.151 58.2346C200.534 55.6444 201.473 53.8619 204.075 53.5727L210.074 52.9064C211.282 52.6932 212.424 52.2005 213.408 51.4688C215.091 50.2198 216.208 48.3527 216.514 46.2789L217.409 40.2233C217.55 39.2688 218.065 38.4119 218.837 37.8366L224.783 33.916C233.055 43.2388 239.215 54.3097 242.681 66.3799Z" fill="#E8E8E8"/>
<path fill-rule="evenodd" clip-rule="evenodd" d="M205.135 46.8953C204.086 47.1021 202.959 46.9082 202.001 46.2643C200.084 44.9779 199.575 42.3834 200.861 40.467L204.155 35.5608C205.442 33.6444 208.036 33.1345 209.952 34.4211C211.869 35.7086 212.379 38.3031 211.092 40.2196L207.798 45.1246C207.156 46.0833 206.184 46.6896 205.135 46.8953ZM165.62 29.6942C163.502 29.9021 162.642 32.5287 164.226 33.9491L170.463 39.5462C171.569 40.5403 171.738 42.2135 170.854 43.4079L169.805 44.8208C169.17 45.6757 168.12 46.1116 167.069 45.9563L162.768 45.321C162.013 45.2086 161.243 45.4025 160.629 45.8578L139.277 63.1106L136.994 71.9783C136.58 73.5885 135.28 74.7355 133.75 75.035C133.158 75.1533 132.531 75.1428 131.905 74.9831C129.671 74.4077 128.326 72.1281 128.901 69.8925L129.639 67.0237L127.869 66.7623C123.154 66.0639 118.735 69.3539 118.05 74.0713C117.777 75.9488 118.843 77.7626 120.615 78.4386L140.852 86.1589C140.852 86.1589 149.684 89.7346 151.582 92.0096L158.856 101.804C159.766 103.032 161.128 103.847 162.641 104.07L163.925 104.259C166.194 104.595 168.236 105.816 169.603 107.658L170.677 109.104C172.487 111.542 172.885 114.751 171.725 117.558L168.959 124.258C168.321 125.8 166.717 126.709 165.068 126.466L163.277 126.202C161.729 125.974 160.209 126.76 159.503 128.155L156.544 134.858C155.703 136.759 154.207 138.296 152.327 139.184L145.846 142.244L144.265 152.947C143.978 154.896 142.143 156.229 140.2 155.899L140.177 155.896C138.812 155.665 137.709 154.652 137.361 153.311L134.721 143.132C133.753 139.396 133.544 135.503 134.109 131.685L135.524 122.102C135.859 119.839 135.11 117.552 133.5 115.926L125.829 108.182C124.218 106.555 123.466 104.267 123.802 102.005L124.864 94.8153L127.328 89.9455L114.16 84.9212C108.777 82.8683 104.83 78.1857 103.719 72.5308L102.392 65.7834L101.412 65.6398C98.3174 65.1823 95.8638 62.7957 95.3185 59.7149L92.3722 43.831C99.2549 33.2581 108.399 24.5096 118.995 18.0587L122.453 22.6125C123.402 23.8894 125.206 24.1561 126.485 23.207L128.589 21.6452C131.043 19.8231 134.121 19.0497 137.145 19.4963L137.618 19.5671C139.262 19.8091 140.388 21.3473 140.126 22.9863L139.737 25.418C139.408 27.4661 141.553 29.014 143.394 28.0596L153.483 22.8267C154.376 22.3629 155.394 22.1926 156.389 22.3404L175.557 25.1716L175.026 28.7666L165.62 29.6942ZM244.31 105.852C240.755 123.521 231.82 138.704 219.615 150.172C216.884 148.971 213.897 146.509 213.219 143.938L210.293 132.86C209.495 129.841 209.32 126.692 209.776 123.603L211.19 114.03C211.888 109.307 208.625 104.912 203.901 104.215L203.688 104.183C200.125 103.656 196.831 101.989 194.296 99.4296L193.917 99.046C190.23 95.3251 188.511 90.0847 189.277 84.9009C189.586 82.8066 190.293 80.7904 191.358 78.9602L194.609 73.3776C196.387 70.3228 199.846 68.6569 203.344 69.1745L209.919 70.1461C213.02 70.6047 215.938 71.8975 218.36 73.8847L223.56 78.1509C226.056 80.1992 229.51 80.6255 232.43 79.246L234.676 78.1857C236.219 77.4558 237.944 77.1996 239.633 77.4493L245.13 78.1502C246.348 87.1384 246.201 96.4583 244.31 105.852ZM242.681 66.3799L218.038 60.8323L215.432 63.4482C214.205 65.3389 211.987 66.3405 209.757 66.0107L204.864 65.2874C201.716 64.8225 199.541 61.8928 200.005 58.7435L200.151 58.2346C200.534 55.6444 201.473 53.8619 204.075 53.5727L210.074 52.9064C211.282 52.6932 212.424 52.2005 213.408 51.4688C215.091 50.2198 216.208 48.3527 216.514 46.2789L217.409 40.2233C217.55 39.2688 218.065 38.4119 218.837 37.8366L224.783 33.916C233.055 43.2388 239.215 54.3097 242.681 66.3799Z" stroke="#D5D5D5" stroke-width="2"/>
<path d="M146.265 7.36961C191.551 -1.53431 235.479 27.9604 244.383 73.2455C253.286 118.53 223.792 162.459 178.507 171.362C133.221 180.265 89.2931 150.772 80.3904 105.487C71.4863 60.2006 100.981 16.2735 146.265 7.36961Z" stroke="#4C4C4C" stroke-width="2"/>
<path d="M75.8763 101.904L75.896 102.56C76.2573 102.549 76.5424 102.248 76.5332 101.886C76.524 101.525 76.2244 101.239 75.8625 101.247L75.8763 101.904ZM73.2485 101.957L73.2347 101.301C72.8734 101.308 72.5863 101.607 72.5916 101.968C72.5975 102.329 72.8944 102.618 73.2558 102.614L73.2485 101.957ZM70.4349 102.614C70.7975 102.619 71.0951 102.328 71.099 101.965C71.1036 101.603 70.8126 101.305 70.45 101.301L70.4349 102.614ZM109.285 52.1909C109.624 52.0616 109.794 51.6819 109.665 51.343C109.536 51.004 109.157 50.8339 108.818 50.9632L109.285 52.1909ZM111.778 49.8472C111.438 49.9739 111.265 50.3522 111.392 50.6922C111.519 51.0322 111.897 51.2051 112.237 51.0785L111.778 49.8472ZM114.861 50.1112C115.202 49.9868 115.377 49.6097 115.252 49.2688C115.128 48.928 114.751 48.7525 114.41 48.8769L114.861 50.1112ZM75.8566 101.247C74.9684 101.273 74.0966 101.291 73.2413 101.301L73.2558 102.614C74.1196 102.605 74.9999 102.587 75.896 102.56L75.8566 101.247ZM75.8625 101.247L73.2347 101.301L73.2623 102.614L75.8901 102.56L75.8625 101.247ZM70.45 101.301C63.5622 101.22 57.9501 100.533 53.892 99.241C49.8042 97.9409 47.4725 96.0897 46.8059 93.8167L45.5451 94.1859C46.402 97.1086 49.287 99.155 53.4936 100.493C57.7298 101.841 63.4894 102.534 70.4349 102.614L70.45 101.301ZM46.8059 93.8167C46.1514 91.5838 47.0678 88.8266 49.6983 85.5971C52.3108 82.3893 56.504 78.8583 62.0604 75.1499C73.1658 67.7377 89.5832 59.7038 109.285 52.1909L108.818 50.9632C89.0655 58.4951 72.5482 66.5697 61.331 74.0568C55.7262 77.798 51.411 81.4138 48.6796 84.7674C45.9662 88.0981 44.7033 91.3151 45.5451 94.1859L46.8059 93.8167ZM112.237 51.0785C113.105 50.7549 113.98 50.4324 114.861 50.1112L114.41 48.8769C113.527 49.1992 112.649 49.5227 111.778 49.8472L112.237 51.0785Z" fill="#3A10E5"/>
<path d="M85.3982 146.503C85.7569 146.449 86.0032 146.114 85.9494 145.755C85.8948 145.397 85.5604 145.15 85.2018 145.204L85.3982 146.503ZM254.864 92.5614L254.54 91.9892C254.225 92.1679 254.113 92.568 254.291 92.8839C254.469 93.1993 254.87 93.3116 255.186 93.1336L254.864 92.5614ZM256.712 91.5169L257.036 92.0877C257.351 91.9084 257.462 91.5083 257.283 91.193C257.104 90.8777 256.704 90.7666 256.388 90.9447L256.712 91.5169ZM260.406 89.4357L260.076 88.8681C259.766 89.0488 259.658 89.4449 259.834 89.7582C260.01 90.0709 260.405 90.1846 260.721 90.0125L260.406 89.4357ZM263.638 87.6758L263.973 88.2414C264.281 88.0588 264.387 87.6633 264.21 87.3512C264.033 87.0399 263.639 86.9275 263.324 87.0983L263.638 87.6758ZM266.321 85.3036C266.011 85.4921 265.913 85.8961 266.1 86.2062C266.289 86.5163 266.693 86.6148 267.003 86.4269L266.321 85.3036ZM74.3715 147.814C74.7329 147.783 75.0009 147.465 74.97 147.104C74.9391 146.742 74.6212 146.474 74.2599 146.506L74.3715 147.814ZM79.2723 145.998C78.9116 146.04 78.6541 146.366 78.6955 146.726C78.7375 147.087 79.064 147.345 79.424 147.303L79.2723 145.998ZM40.2639 140.895C39.7839 139.363 40.0568 137.56 41.1617 135.472C42.2674 133.381 44.1759 131.068 46.8481 128.576C52.1899 123.595 60.4702 118.003 71.0895 112.152C92.3177 100.456 122.77 87.7894 157.411 76.9362L157.018 75.6821C122.32 86.5537 91.7816 99.2516 70.4556 111.002C59.7971 116.874 51.4089 122.527 45.952 127.615C43.2248 130.158 41.2014 132.586 40.0003 134.857C38.7982 137.13 38.3893 139.307 39.0101 141.288L40.2639 140.895ZM157.411 76.9362C192.052 66.083 224.288 59.1086 248.395 56.6009C260.455 55.3465 270.445 55.2135 277.674 56.2562C281.29 56.7778 284.177 57.5884 286.278 58.6741C288.378 59.7589 289.631 61.0843 290.111 62.6161L291.364 62.2234C290.743 60.2417 289.165 58.6872 286.882 57.5069C284.6 56.3276 281.552 55.4881 277.862 54.9558C270.477 53.8907 260.363 54.0351 248.259 55.2941C224.041 57.8134 191.716 64.8109 157.018 75.6821L157.411 76.9362ZM256.386 90.946C255.776 91.2928 255.161 91.6404 254.542 91.9885L255.186 93.1336C255.806 92.7847 256.423 92.4359 257.036 92.0877L256.386 90.946ZM255.187 93.1329L257.035 92.0884L256.388 90.9447L254.54 91.9892L255.187 93.1329ZM263.305 87.1101C263.014 87.2809 262.378 87.6219 261.717 87.976C261.07 88.3215 260.4 88.6796 260.076 88.8681L260.737 90.0033C261.035 89.8305 261.675 89.4883 262.336 89.1342C262.983 88.7886 263.652 88.4306 263.973 88.2414L263.305 87.1101ZM260.721 90.0125L263.952 88.2525L263.324 87.0983L260.092 88.8589L260.721 90.0125ZM290.111 62.6161C290.478 63.7893 290.228 65.1902 289.288 66.8496C288.348 68.5084 286.762 70.3439 284.614 72.3239C280.321 76.2793 273.904 80.6991 266.321 85.3036L267.003 86.4269C274.606 81.81 281.113 77.3363 285.504 73.2896C287.699 71.2682 289.395 69.325 290.431 67.4974C291.465 65.6717 291.883 63.8798 291.364 62.2234L290.111 62.6161ZM74.2599 146.506C65.2053 147.279 57.0418 147.188 50.9395 146.203C47.8859 145.71 45.3826 144.998 43.5499 144.081C41.7079 143.16 40.6351 142.08 40.2639 140.895L39.0101 141.288C39.5341 142.961 40.9727 144.261 42.9621 145.257C44.9608 146.257 47.6089 146.996 50.7301 147.499C56.9776 148.509 65.2582 148.594 74.3715 147.814L74.2599 146.506ZM85.2018 145.204C83.204 145.506 81.224 145.77 79.2723 145.998L79.424 147.303C81.3909 147.074 83.386 146.807 85.3982 146.503L85.2018 145.204Z" fill="#3A10E5"/>
<path d="M118.11 166.207L118.152 166.863C118.513 166.84 118.787 166.528 118.766 166.167C118.743 165.806 118.433 165.53 118.071 165.551L118.11 166.207ZM115.575 166.356L115.537 165.699C115.175 165.72 114.899 166.03 114.919 166.392C114.939 166.753 115.248 167.03 115.609 167.011L115.575 166.356ZM112.722 166.483L112.747 167.14C113.109 167.126 113.392 166.823 113.379 166.461C113.367 166.099 113.064 165.816 112.702 165.827L112.722 166.483ZM110.821 166.542L110.801 165.886C110.439 165.897 110.154 166.199 110.164 166.56C110.174 166.922 110.476 167.208 110.837 167.199L110.821 166.542ZM107.652 167.241C108.014 167.241 108.308 166.947 108.308 166.584C108.308 166.221 108.013 165.927 107.65 165.927L107.652 167.241ZM243.115 126.9L242.781 126.335C242.47 126.519 242.366 126.919 242.548 127.231C242.73 127.543 243.13 127.65 243.443 127.47L243.115 126.9ZM246.071 125.151L246.413 125.712C246.721 125.524 246.82 125.122 246.634 124.813C246.448 124.504 246.047 124.402 245.737 124.586L246.071 125.151ZM248.548 122.82C248.243 123.018 248.156 123.424 248.353 123.729C248.55 124.034 248.957 124.121 249.262 123.924L248.548 122.82ZM89.0347 160.911C88.7259 159.925 88.902 158.735 89.6732 157.31C90.4458 155.884 91.782 154.29 93.6661 152.561C97.431 149.104 103.268 145.206 110.764 141.113C125.745 132.933 147.227 124.041 171.656 116.388L171.263 115.134C146.779 122.805 125.212 131.727 110.134 139.96C102.6 144.073 96.6565 148.031 92.7773 151.593C90.8393 153.373 89.3875 155.08 88.5183 156.684C87.6486 158.29 87.3286 159.86 87.7806 161.304L89.0347 160.911ZM171.656 116.388C196.085 108.734 218.8 103.778 235.771 101.947C244.261 101.031 251.28 100.901 256.344 101.592C258.878 101.938 260.885 102.484 262.333 103.214C263.78 103.944 264.604 104.822 264.912 105.807L266.166 105.414C265.713 103.97 264.555 102.863 262.925 102.041C261.295 101.22 259.129 100.646 256.522 100.29C251.303 99.5788 244.164 99.72 235.63 100.641C218.55 102.484 195.748 107.463 171.263 115.134L171.656 116.388ZM118.067 165.551C117.205 165.607 116.363 165.656 115.541 165.699L115.609 167.011C116.437 166.968 117.284 166.919 118.152 166.863L118.067 165.551ZM118.071 165.551L115.537 165.699L115.613 167.011L118.148 166.863L118.071 165.551ZM112.698 165.827C112.054 165.85 111.422 165.87 110.805 165.886L110.837 167.199C111.46 167.183 112.097 167.164 112.747 167.14L112.698 165.827ZM112.702 165.827L110.801 165.886L110.842 167.199L112.743 167.14L112.702 165.827ZM107.65 165.927C101.695 165.932 97.2431 165.477 94.1581 164.588C91.0508 163.694 89.5057 162.415 89.0347 160.911L87.7806 161.304C88.454 163.453 90.5542 164.917 93.7942 165.85C97.0565 166.79 101.654 167.246 107.652 167.241L107.65 165.927ZM245.729 124.59C244.768 125.176 243.787 125.756 242.788 126.33L243.443 127.47C244.451 126.89 245.442 126.304 246.413 125.712L245.729 124.59ZM243.45 127.466L246.405 125.717L245.737 124.586L242.781 126.335L243.45 127.466ZM264.912 105.807C265.14 106.534 264.993 107.51 264.346 108.758C263.705 109.994 262.621 111.404 261.146 112.935C258.198 115.992 253.782 119.435 248.548 122.82L249.262 123.924C254.541 120.509 259.047 117.004 262.092 113.847C263.612 112.269 264.79 110.756 265.512 109.363C266.229 107.98 266.544 106.62 266.166 105.414L264.912 105.807Z" fill="#3A10E5"/>
<path opacity="0.13" d="M165.524 52.255C167.626 50.589 166.596 47.2106 163.923 46.9998L125.715 43.987C123.871 43.8416 122.46 45.5983 122.999 47.3673L131.353 74.7754C131.892 76.5446 134.043 77.2153 135.492 76.0663L165.524 52.255Z" fill="#4C4C4C"/>
<path d="M116.811 53.7576L119.658 45.7508L158.085 34.6681L119.141 55.752C117.817 56.4686 116.308 55.1756 116.811 53.7576Z" fill="white" stroke="#4C4C4C" stroke-width="2" stroke-linejoin="round"/>
<path d="M158.083 38.9704C160.184 37.3044 159.154 33.926 156.481 33.7152L118.273 30.7024C116.43 30.557 115.019 32.3137 115.557 34.0827L123.911 61.4908C124.45 63.2599 126.602 63.9307 128.051 62.7818L158.083 38.9704Z" fill="white" stroke="#4C4C4C" stroke-width="2"/>
<path d="M119.648 46.0792L158.715 35.6716" stroke="#4C4C4C" stroke-width="2"/>
<g opacity="0.85">
<path opacity="0.85" d="M224.081 171.827V160.325" stroke="#3A10E5" stroke-opacity="0.4" stroke-width="2.2" stroke-linecap="round" stroke-linejoin="round"/>
<path opacity="0.85" d="M240.297 154.173H230.262" stroke="#3A10E5" stroke-opacity="0.4" stroke-width="2.2" stroke-linecap="round" stroke-linejoin="round"/>
<path opacity="0.85" d="M230.99 161.117L227.982 158.035" stroke="#3A10E5" stroke-opacity="0.4" stroke-width="2.2" stroke-linecap="round" stroke-linejoin="round"/>
<path opacity="0.85" d="M233.603 163.744L233.245 163.324" stroke="#3A10E5" stroke-opacity="0.4" stroke-width="2.2" stroke-linecap="round" stroke-linejoin="round"/>
<path opacity="0.85" d="M236.55 166.706L236.395 166.503" stroke="#3A10E5" stroke-opacity="0.4" stroke-width="2.2" stroke-linecap="round" stroke-linejoin="round"/>
<path opacity="0.85" d="M231.324 146.917L227.982 150.299" stroke="#3A10E5" stroke-opacity="0.4" stroke-width="2.2" stroke-linecap="round" stroke-linejoin="round"/>
<path opacity="0.85" d="M234.987 143.212L233.746 144.471" stroke="#3A10E5" stroke-opacity="0.4" stroke-width="2.2" stroke-linecap="round" stroke-linejoin="round"/>
<path opacity="0.85" d="M220.178 158.035L216.384 161.909" stroke="#3A10E5" stroke-opacity="0.4" stroke-width="2.2" stroke-linecap="round" stroke-linejoin="round"/>
<path opacity="0.85" d="M213.532 164.715L211.921 166.394" stroke="#3A10E5" stroke-opacity="0.4" stroke-width="2.2" stroke-linecap="round" stroke-linejoin="round"/>
</g>
<g opacity="0.85">
<path opacity="0.85" d="M95.1084 16.4233V23.964" stroke="#DDDDDD" stroke-width="2.2" stroke-linecap="round" stroke-linejoin="round"/>
<path opacity="0.85" d="M84.4756 27.9977H91.0554" stroke="#DDDDDD" stroke-width="2.2" stroke-linecap="round" stroke-linejoin="round"/>
<path opacity="0.85" d="M90.5781 23.4451L92.5502 25.4659" stroke="#DDDDDD" stroke-width="2.2" stroke-linecap="round" stroke-linejoin="round"/>
<path opacity="0.85" d="M88.8643 21.7229L89.0988 21.9982" stroke="#DDDDDD" stroke-width="2.2" stroke-linecap="round" stroke-linejoin="round"/>
<path opacity="0.85" d="M86.9319 19.7808L87.0337 19.9143" stroke="#DDDDDD" stroke-width="2.2" stroke-linecap="round" stroke-linejoin="round"/>
<path opacity="0.85" d="M90.3594 32.7549L92.5502 30.5376" stroke="#DDDDDD" stroke-width="2.2" stroke-linecap="round" stroke-linejoin="round"/>
<path opacity="0.85" d="M87.957 35.1845L88.7703 34.3589" stroke="#DDDDDD" stroke-width="2.2" stroke-linecap="round" stroke-linejoin="round"/>
<path opacity="0.85" d="M97.6662 25.466L100.154 22.9262" stroke="#DDDDDD" stroke-width="2.2" stroke-linecap="round" stroke-linejoin="round"/>
<path opacity="0.85" d="M102.024 21.0862L103.08 19.9854" stroke="#DDDDDD" stroke-width="2.2" stroke-linecap="round" stroke-linejoin="round"/>
</g>
</svg>
