<svg width="332" height="150" viewBox="0 0 332 150" fill="none" xmlns="http://www.w3.org/2000/svg">
<g clip-path="url(#clip0_1_1609)">
<path d="M46.9272 62.8407L47.8322 63.3715C52.2035 66.474 55.0524 71.5529 55.0524 77.2918C55.0524 84.9506 49.9787 91.4337 42.984 93.613L42.9834 143.118C42.9834 146.272 40.4054 148.83 37.2253 148.83H36.6728C33.4926 148.83 30.9145 146.272 30.9145 143.118L30.9149 93.613C23.9197 91.4345 18.8455 84.9509 18.8455 77.2918C18.8455 71.5529 21.6945 66.474 26.0658 63.3715L26.9708 62.8407C27.2128 62.6987 27.4887 62.6237 27.7699 62.6237C28.6372 62.6237 29.3403 63.3215 29.3403 64.1819V79.3599C29.3403 80.794 30.5122 81.9566 31.9577 81.9566H41.9403C43.3859 81.9566 44.5577 80.794 44.5577 79.3599V64.1819C44.5577 63.903 44.6332 63.6292 44.7762 63.3891C45.2176 62.6484 46.1806 62.4029 46.9272 62.8407ZM36.949 137.946C35.3551 137.946 34.0629 139.228 34.0629 140.81V141.303C34.0629 142.884 35.3551 144.166 36.949 144.166C38.5429 144.166 39.8351 142.884 39.8351 141.303V140.81C39.8351 139.228 38.5429 137.946 36.949 137.946Z" fill="#E8E8E8" stroke="#4C4C4C" stroke-width="2.5"/>
<path fill-rule="evenodd" clip-rule="evenodd" d="M217.094 1.72412H304.788L329.162 27.272V148.683H217.094V1.72412Z" fill="white"/>
<path fill-rule="evenodd" clip-rule="evenodd" d="M303.781 27.2719L329.162 51.4511V27.2719H303.781Z" fill="#E8E8E8"/>
<path fill-rule="evenodd" clip-rule="evenodd" d="M217.094 1.72412H304.788L329.162 27.272V148.683H217.094V1.72412Z" stroke="#4C4C4C" stroke-width="2.5" stroke-linejoin="round"/>
<path fill-rule="evenodd" clip-rule="evenodd" d="M304.788 1.72412V27.272H329.162L304.788 1.72412Z" fill="#F5F5F5"/>
<path fill-rule="evenodd" clip-rule="evenodd" d="M304.788 1.72412V27.272H329.162L304.788 1.72412Z" stroke="#4C4C4C" stroke-width="2.5" stroke-linejoin="round"/>
<path fill-rule="evenodd" clip-rule="evenodd" d="M55.8603 137.572V40.297C55.8603 33.9412 61.0171 28.788 67.3776 28.788H218.923C225.285 28.788 230.44 33.9412 230.44 40.297V137.572H55.8603Z" fill="#E8E8E8"/>
<path fill-rule="evenodd" clip-rule="evenodd" d="M55.8603 137.572V40.297C55.8603 33.9412 61.0171 28.788 67.3776 28.788H218.923C225.285 28.788 230.44 33.9412 230.44 40.297V137.572H55.8603Z" stroke="#4C4C4C" stroke-width="2.5" stroke-linejoin="round"/>
<path fill-rule="evenodd" clip-rule="evenodd" d="M216.894 138.047H69.4065V48.3728C69.4065 45.0326 72.1161 42.325 75.4597 42.325H210.843C214.185 42.325 216.894 45.0326 216.894 48.3728V138.047Z" fill="white"/>
<path fill-rule="evenodd" clip-rule="evenodd" d="M216.894 138.047H69.4065V48.3728C69.4065 45.0326 72.1161 42.325 75.4597 42.325H210.843C214.185 42.325 216.894 45.0326 216.894 48.3728V138.047Z" stroke="#4C4C4C" stroke-width="2.5" stroke-linecap="round" stroke-linejoin="round"/>
<path fill-rule="evenodd" clip-rule="evenodd" d="M146.26 35.5307C146.26 37.2466 144.868 38.6393 143.15 38.6393C141.433 38.6393 140.041 37.2466 140.041 35.5307C140.041 33.8148 141.433 32.4221 143.15 32.4221C144.868 32.4221 146.26 33.8148 146.26 35.5307Z" fill="#CACACA"/>
<path fill-rule="evenodd" clip-rule="evenodd" d="M146.26 35.5307C146.26 37.2466 144.868 38.6393 143.15 38.6393C141.433 38.6393 140.041 37.2466 140.041 35.5307C140.041 33.8148 141.433 32.4221 143.15 32.4221C144.868 32.4221 146.26 33.8148 146.26 35.5307Z" stroke="#4C4C4C" stroke-width="2.5" stroke-linejoin="round"/>
<path fill-rule="evenodd" clip-rule="evenodd" d="M235.468 148.683H50.8326C45.1357 148.683 40.5176 144.068 40.5176 138.375V136.537H245.784V138.375C245.784 144.068 241.166 148.683 235.468 148.683Z" fill="#E8E8E8"/>
<path fill-rule="evenodd" clip-rule="evenodd" d="M235.468 148.683H50.8326C45.1357 148.683 40.5176 144.068 40.5176 138.375V136.537H245.784V138.375C245.784 144.068 241.166 148.683 235.468 148.683Z" stroke="#4C4C4C" stroke-width="2.5" stroke-linejoin="round"/>
<path fill-rule="evenodd" clip-rule="evenodd" d="M158.83 141.854H132.654C129.806 141.854 127.496 139.547 127.496 136.701V136.537H163.988V136.701C163.988 139.547 161.679 141.854 158.83 141.854Z" fill="#4C4C4C"/>
<path d="M263.531 51.4548H305.904" stroke="#A7A7A7" stroke-width="2.5" stroke-linecap="round" stroke-linejoin="round"/>
<path d="M263.531 60.9523H301.933" stroke="#A7A7A7" stroke-width="2.5" stroke-linecap="round" stroke-linejoin="round"/>
<path fill-rule="evenodd" clip-rule="evenodd" d="M254.103 56.2035C254.103 60.8992 250.294 64.7046 245.595 64.7046C240.897 64.7046 237.088 60.8992 237.088 56.2035C237.088 51.5079 240.897 47.7025 245.595 47.7025C250.294 47.7025 254.103 51.5079 254.103 56.2035Z" fill="#E8E8E8"/>
<path d="M242.092 56.3328L244.342 58.5807L249.099 53.8271" stroke="#A7A7A7" stroke-width="2.5" stroke-linecap="round" stroke-linejoin="round"/>
<path fill-rule="evenodd" clip-rule="evenodd" d="M254.103 25.6076C254.103 30.3032 250.294 34.1086 245.595 34.1086C240.897 34.1086 237.088 30.3032 237.088 25.6076C237.088 20.912 240.897 17.1066 245.595 17.1066C250.294 17.1066 254.103 20.912 254.103 25.6076Z" fill="#E8E8E8"/>
<path d="M263.531 82.0508H305.904" stroke="#A7A7A7" stroke-width="2.5" stroke-linecap="round" stroke-linejoin="round"/>
<path d="M263.531 91.5483H301.933" stroke="#A7A7A7" stroke-width="2.5" stroke-linecap="round" stroke-linejoin="round"/>
<path fill-rule="evenodd" clip-rule="evenodd" d="M254.103 86.7992C254.103 91.494 250.294 95.3009 245.595 95.3009C240.897 95.3009 237.088 91.494 237.088 86.7992C237.088 82.104 240.897 78.2986 245.595 78.2986C250.294 78.2986 254.103 82.104 254.103 86.7992Z" fill="#E8E8E8"/>
<path d="M263.531 20.859H293.467" stroke="#A7A7A7" stroke-width="2.5" stroke-linecap="round" stroke-linejoin="round"/>
<path d="M263.531 30.3563H290.66" stroke="#A7A7A7" stroke-width="2.5" stroke-linecap="round" stroke-linejoin="round"/>
<path fill-rule="evenodd" clip-rule="evenodd" d="M254.103 117.396C254.103 122.09 250.294 125.896 245.595 125.896C240.897 125.896 237.088 122.09 237.088 117.396C237.088 112.7 240.897 108.895 245.595 108.895C250.294 108.895 254.103 112.7 254.103 117.396Z" fill="#E8E8E8"/>
<path d="M242.092 117.524L244.342 119.772L249.099 115.018" stroke="#A7A7A7" stroke-width="2.5" stroke-linecap="round" stroke-linejoin="round"/>
<path d="M263.531 112.646H305.904" stroke="#A7A7A7" stroke-width="2.5" stroke-linecap="round" stroke-linejoin="round"/>
<path d="M263.531 122.143H301.933" stroke="#A7A7A7" stroke-width="2.5" stroke-linecap="round" stroke-linejoin="round"/>
<path d="M243.103 28.6531L248.59 23.1669M243.137 23.1339L248.623 28.6201L243.137 23.1339Z" stroke="#979797" stroke-width="2.5" stroke-linecap="round"/>
<path d="M243.103 89.8603L248.59 84.3738M243.137 84.3408L248.623 89.8267L243.137 84.3408Z" stroke="#979797" stroke-width="2.5" stroke-linecap="round"/>
<path d="M202.586 120.516H81.0342V96.8077L104.491 83.8788L140.744 103.273L202.586 68.791" fill="url(#paint0_linear_1_1609)"/>
<path d="M81.4651 68.36V121.809" stroke="#4C4C4C" stroke-width="2.5" stroke-linecap="round"/>
<path d="M103.879 83.8772L81.4651 95.0844" stroke="#4C4C4C" stroke-width="2.5" stroke-linecap="round"/>
<path d="M103.879 83.8772L141.81 102.843" stroke="#4C4C4C" stroke-width="2.5" stroke-linecap="round"/>
<path d="M203.016 68.3599L141.81 102.843" stroke="#4C4C4C" stroke-width="2.5" stroke-linecap="round"/>
<path d="M204.741 121.809H82.3272" stroke="#4C4C4C" stroke-width="2.5" stroke-linecap="round"/>
<path d="M15.3013 63.1465H3.66336C2.23504 63.1465 1.07715 64.3043 1.07715 65.7327V145.474C1.07715 146.903 2.23504 148.06 3.66336 148.06H15.3013C16.7296 148.06 17.8875 146.903 17.8875 145.474V65.7327C17.8875 64.3043 16.7296 63.1465 15.3013 63.1465Z" fill="#E8E8E8" stroke="#4C4C4C" stroke-width="2.5"/>
<path d="M2.1543 71.1206H6.46464" stroke="#979797" stroke-width="2.5" stroke-linecap="round"/>
<path d="M2.1543 88.3619H6.46464" stroke="#979797" stroke-width="2.5" stroke-linecap="round"/>
<path d="M2.1543 105.603H6.46464" stroke="#979797" stroke-width="2.5" stroke-linecap="round"/>
<path d="M2.1543 122.845H6.46464" stroke="#979797" stroke-width="2.5" stroke-linecap="round"/>
<path d="M2.1543 140.086H6.46464" stroke="#979797" stroke-width="2.5" stroke-linecap="round"/>
<path d="M2.1543 79.7413H9.05085" stroke="#979797" stroke-width="2.5" stroke-linecap="round"/>
<path d="M2.1543 96.9827H9.05085" stroke="#979797" stroke-width="2.5" stroke-linecap="round"/>
<path d="M2.1543 114.224H9.05085" stroke="#979797" stroke-width="2.5" stroke-linecap="round"/>
<path d="M2.1543 131.465H9.05085" stroke="#979797" stroke-width="2.5" stroke-linecap="round"/>
<path d="M15.3013 63.1465H3.66336C2.23504 63.1465 1.07715 64.3043 1.07715 65.7327V145.474C1.07715 146.903 2.23504 148.06 3.66336 148.06H15.3013C16.7296 148.06 17.8875 146.903 17.8875 145.474V65.7327C17.8875 64.3043 16.7296 63.1465 15.3013 63.1465Z" stroke="#4C4C4C" stroke-width="2.5"/>
</g>
<defs>
<linearGradient id="paint0_linear_1_1609" x1="141.81" y1="68.791" x2="141.81" y2="120.516" gradientUnits="userSpaceOnUse">
<stop stop-color="#C1B2FF"/>
<stop offset="1" stop-color="#3A10E5"/>
</linearGradient>
<clipPath id="clip0_1_1609">
<rect width="331.034" height="150" fill="white"/>
</clipPath>
</defs>
</svg>
