<svg width="30" height="30" viewBox="0 0 30 30" fill="none" xmlns="http://www.w3.org/2000/svg">
<circle cx="15" cy="15" r="15" fill="white"/>
<path fill-rule="evenodd" clip-rule="evenodd" d="M14.9694 29.9387C23.2367 29.9387 29.9387 23.2367 29.9387 14.9694C29.9387 6.70201 23.2367 0 14.9694 0C6.70201 0 0 6.70201 0 14.9694C0 22.3474 5.22319 28.705 12.2477 29.9387C13.0122 30.0558 14.1726 29.9387 14.9694 29.9387C15.0138 29.9387 14.9251 29.9391 14.9694 29.9387C15.0128 29.9391 14.9258 29.9387 14.9694 29.9387ZM14.9694 29.9387C15.7202 29.9324 16.9691 30.0493 17.6911 29.9387V19.0519H20.4128L21.7736 14.9694H17.6911V12.2477C17.6911 11.0915 17.1888 10.8868 19.0519 10.8868H21.7736V6.80425C21.7736 6.80425 19.3315 6.80425 17.6911 6.80425C14.2637 6.80425 12.2477 8.58497 12.2477 12.2477V14.9694H8.16511V19.0519H12.2477V29.9387C13.0529 30.0801 14.1253 29.9315 14.9694 29.9387Z" fill="#2374D1"/>
</svg>
