<svg width="266" height="182" viewBox="0 0 266 182" fill="none" xmlns="http://www.w3.org/2000/svg">
<g opacity="0.4">
<path d="M45.8252 116.545C47.5709 116.545 48.9866 115.13 48.9866 113.383C48.9866 111.637 47.5709 110.222 45.8252 110.222C44.0788 110.222 42.6631 111.637 42.6631 113.383C42.6631 115.13 44.0788 116.545 45.8252 116.545Z" stroke="#DDDDDD" stroke-width="2" stroke-miterlimit="10"/>
<path d="M28.8875 128.289C30.6332 128.289 32.0489 126.873 32.0489 125.127C32.0489 123.381 30.6332 121.966 28.8875 121.966C27.1411 121.966 25.7254 123.381 25.7254 125.127C25.7254 126.873 27.1411 128.289 28.8875 128.289Z" stroke="#DDDDDD" stroke-width="2" stroke-miterlimit="10"/>
<path d="M33.584 82.4517V83.0674M43.1147 110.492L33.584 100.962V86.6108" stroke="#DDDDDD" stroke-width="2" stroke-miterlimit="10" stroke-linecap="round" stroke-linejoin="round"/>
<path d="M47.1797 163.52C48.9254 163.52 50.3411 162.105 50.3411 160.359C50.3411 158.612 48.9254 157.197 47.1797 157.197C45.4332 157.197 44.0176 158.612 44.0176 160.359C44.0176 162.105 45.4332 163.52 47.1797 163.52Z" stroke="#DDDDDD" stroke-width="2" stroke-miterlimit="10"/>
<path d="M44.4703 157.468L35.6623 148.66V144.504C35.6623 143.737 36.249 143.149 37.0169 143.149H48.152M55.1745 143.149H51.6633" stroke="#DDDDDD" stroke-width="2" stroke-miterlimit="10" stroke-linecap="round" stroke-linejoin="round"/>
<path d="M45.3277 103.988L39.2746 97.981V93.8257C39.2746 93.0579 39.8621 92.4704 40.6299 92.4704H45.3277" stroke="#DDDDDD" stroke-width="2" stroke-miterlimit="10" stroke-linecap="round" stroke-linejoin="round"/>
<path d="M25.9506 177.206C27.697 177.206 29.1127 175.79 29.1127 174.044C29.1127 172.298 27.697 170.882 25.9506 170.882C24.2049 170.882 22.789 172.298 22.789 174.044C22.789 175.79 24.2049 177.206 25.9506 177.206Z" stroke="#DDDDDD" stroke-width="2" stroke-miterlimit="10"/>
<path d="M28.2092 92.8615V103.221L37.7392 112.751V137.91" stroke="#DDDDDD" stroke-width="2" stroke-miterlimit="10" stroke-linecap="round" stroke-linejoin="round"/>
<path d="M29.79 133.627V135.784M48.6705 163.565V171.65L39.3208 181V160.9L29.79 151.37V139.882" stroke="#DDDDDD" stroke-width="2" stroke-miterlimit="10" stroke-linecap="round" stroke-linejoin="round"/>
<path d="M57.4266 137.684H45.8247C44.5603 137.684 43.5663 136.69 43.5663 135.425V126.724M43.5663 121.468V123.489" stroke="#DDDDDD" stroke-width="2" stroke-miterlimit="10" stroke-linecap="round" stroke-linejoin="round"/>
<path d="M53.5446 132.264H49.3029V121.559" stroke="#DDDDDD" stroke-width="2" stroke-miterlimit="10" stroke-linecap="round" stroke-linejoin="round"/>
<path d="M4.92965 72.1079L20.1062 88.1471C20.9644 89.0058 21.416 90.135 21.416 91.3543V96.5425M8.81414 90.9394V85.1828L1 77.3687" stroke="#DDDDDD" stroke-width="2" stroke-miterlimit="10" stroke-linecap="round" stroke-linejoin="round"/>
<path d="M28.2088 102.499L12.0839 118.623" stroke="#DDDDDD" stroke-width="2" stroke-miterlimit="10" stroke-linecap="round" stroke-linejoin="round"/>
<path d="M28.2088 111.124L12.0839 127.249V135.606" stroke="#DDDDDD" stroke-width="2" stroke-miterlimit="10" stroke-linecap="round" stroke-linejoin="round"/>
<path d="M53.5437 148.615H43.4767L47.496 152.589" stroke="#DDDDDD" stroke-width="2" stroke-miterlimit="10" stroke-linecap="round" stroke-linejoin="round"/>
<path d="M18.7686 121.289V128.064" stroke="#DDDDDD" stroke-width="2" stroke-miterlimit="10" stroke-linecap="round" stroke-linejoin="round"/>
<path d="M28.8875 36.57C30.6332 36.57 32.0489 35.1545 32.0489 33.4082C32.0489 31.6621 30.6332 30.2465 28.8875 30.2465C27.1411 30.2465 25.7254 31.6621 25.7254 33.4082C25.7254 35.1545 27.1411 36.57 28.8875 36.57Z" stroke="#DDDDDD" stroke-width="2" stroke-miterlimit="10"/>
<path d="M47.1797 74.1951C48.9254 74.1951 50.3411 72.7794 50.3411 71.033C50.3411 69.2865 48.9254 67.8716 47.1797 67.8716C45.4332 67.8716 44.0176 69.2865 44.0176 71.033C44.0176 72.7794 45.4332 74.1951 47.1797 74.1951Z" stroke="#DDDDDD" stroke-width="2" stroke-miterlimit="10"/>
<path d="M44.4696 68.141L35.6623 59.3338V55.1777C35.6623 54.4099 36.249 53.8231 37.0169 53.8231H48.1512M55.1745 53.8231H51.6633" stroke="#DDDDDD" stroke-width="2" stroke-miterlimit="10" stroke-linecap="round" stroke-linejoin="round"/>
<path d="M25.9504 87.8788C27.6969 87.8788 29.1126 86.4639 29.1126 84.7174C29.1126 82.971 27.6969 81.5553 25.9504 81.5553C24.2047 81.5553 22.789 82.971 22.789 84.7174C22.789 86.4639 24.2047 87.8788 25.9504 87.8788Z" stroke="#DDDDDD" stroke-width="2" stroke-miterlimit="10"/>
<path d="M23.241 81.8727L13.7104 72.3419V63.4888C13.7104 62.9923 13.3039 62.5858 12.8071 62.5858H7.75088" stroke="#DDDDDD" stroke-width="2" stroke-miterlimit="10" stroke-linecap="round" stroke-linejoin="round"/>
<path d="M29.466 15.5907L37.4008 23.5255V48.6838" stroke="#DDDDDD" stroke-width="2" stroke-miterlimit="10" stroke-linecap="round" stroke-linejoin="round"/>
<path d="M28.9932 37.1204V45.6602M48.6712 74.2391V82.3243L39.3215 91.674V71.5743L28.9932 61.2459V49.7586" stroke="#DDDDDD" stroke-width="2" stroke-miterlimit="10" stroke-linecap="round" stroke-linejoin="round"/>
<path d="M24.0528 42.6373V64.5275L33.5832 74.0582V77.95M33.5832 98.6136V86.7931M33.5832 82.048V83.126" stroke="#DDDDDD" stroke-width="2" stroke-miterlimit="10" stroke-linecap="round" stroke-linejoin="round"/>
<path d="M26.2677 75.8654L18.9052 68.5028V65.2238M18.9052 61.0501C18.9052 59.063 17.2791 57.4372 15.2918 57.4372H7.77793C7.01005 57.4372 6.42285 56.8497 6.42285 56.0819V38.3597" stroke="#DDDDDD" stroke-width="2" stroke-miterlimit="10" stroke-linecap="round" stroke-linejoin="round"/>
<path d="M57.4266 48.3584H45.8247C44.5603 48.3584 43.5663 47.3649 43.5663 46.1002V37.3995M43.5663 32.1432V34.1641" stroke="#DDDDDD" stroke-width="2" stroke-miterlimit="10" stroke-linecap="round" stroke-linejoin="round"/>
<path d="M49.3029 32.2325V42.9373H55.5844C56.0062 42.9373 56.3484 42.5953 56.3484 42.1733V18.0789" stroke="#DDDDDD" stroke-width="2" stroke-miterlimit="10" stroke-linecap="round" stroke-linejoin="round"/>
<path d="M28.2088 21.7985L12.0839 37.9235V52.6626" stroke="#DDDDDD" stroke-width="2" stroke-miterlimit="10" stroke-linecap="round" stroke-linejoin="round"/>
<path d="M53.5445 59.2891H43.4767L47.496 63.2633" stroke="#DDDDDD" stroke-width="2" stroke-miterlimit="10" stroke-linecap="round" stroke-linejoin="round"/>
<path d="M17.9708 31.9621V53.0983" stroke="#DDDDDD" stroke-width="2" stroke-miterlimit="10" stroke-linecap="round" stroke-linejoin="round"/>
<path d="M227.882 128.325C226.136 128.325 224.721 129.741 224.721 131.487C224.721 133.233 226.136 134.649 227.882 134.649C229.629 134.649 231.044 133.233 231.044 131.487C231.044 129.741 229.629 128.325 227.882 128.325Z" stroke="#DDDDDD" stroke-width="2" stroke-miterlimit="10"/>
<path d="M244.821 116.582C243.075 116.582 241.659 117.997 241.659 119.744C241.659 121.489 243.075 122.905 244.821 122.905C246.567 122.905 247.983 121.489 247.983 119.744C247.983 117.997 246.567 116.582 244.821 116.582Z" stroke="#DDDDDD" stroke-width="2" stroke-miterlimit="10"/>
<path d="M230.594 134.377L240.124 143.908V150.754" stroke="#DDDDDD" stroke-width="2" stroke-miterlimit="10" stroke-linecap="round" stroke-linejoin="round"/>
<path d="M226.529 81.3506C224.783 81.3506 223.367 82.7663 223.367 84.512C223.367 86.2584 224.783 87.6741 226.529 87.6741C228.275 87.6741 229.691 86.2584 229.691 84.512C229.691 82.7663 228.275 81.3506 226.529 81.3506Z" stroke="#DDDDDD" stroke-width="2" stroke-miterlimit="10"/>
<path d="M229.238 87.4028L238.045 96.2108V100.366C238.045 101.134 237.459 101.721 236.691 101.721H225.557M218.533 101.721H222.044" stroke="#DDDDDD" stroke-width="2" stroke-miterlimit="10" stroke-linecap="round" stroke-linejoin="round"/>
<path d="M228.38 140.882L234.433 146.89V151.045C234.433 151.813 233.846 152.4 233.078 152.4H228.38" stroke="#DDDDDD" stroke-width="2" stroke-miterlimit="10" stroke-linecap="round" stroke-linejoin="round"/>
<path d="M247.758 67.665C246.012 67.665 244.596 69.0807 244.596 70.8264C244.596 72.5729 246.012 73.9886 247.758 73.9886C249.504 73.9886 250.919 72.5729 250.919 70.8264C250.919 69.0807 249.504 67.665 247.758 67.665Z" stroke="#DDDDDD" stroke-width="2" stroke-miterlimit="10"/>
<path d="M250.468 73.6724L259.998 83.2031V92.0562C259.998 92.5528 260.404 92.9592 260.902 92.9592H264.603" stroke="#DDDDDD" stroke-width="2" stroke-miterlimit="10" stroke-linecap="round" stroke-linejoin="round"/>
<path d="M245.837 151.909V141.55L236.307 132.02V106.861" stroke="#DDDDDD" stroke-width="2" stroke-miterlimit="10" stroke-linecap="round" stroke-linejoin="round"/>
<path d="M243.918 111.243V109.086M225.037 81.3051V73.2198L234.387 63.8701V83.9699L243.918 93.5006V104.988" stroke="#DDDDDD" stroke-width="2" stroke-miterlimit="10" stroke-linecap="round" stroke-linejoin="round"/>
<path d="M249.655 104.928V91.017L240.124 81.4863V77.5953M240.124 56.931V68.7514M240.124 73.4965V72.4185" stroke="#DDDDDD" stroke-width="2" stroke-miterlimit="10" stroke-linecap="round" stroke-linejoin="round"/>
<path d="M247.44 79.6797L254.803 87.0422V90.3213M254.803 94.4949C254.803 96.4821 256.43 98.1086 258.417 98.1086" stroke="#DDDDDD" stroke-width="2" stroke-miterlimit="10" stroke-linecap="round" stroke-linejoin="round"/>
<path d="M216.281 107.187H227.883C229.147 107.187 230.141 108.181 230.141 109.445V118.146M230.141 123.402V121.381" stroke="#DDDDDD" stroke-width="2" stroke-miterlimit="10" stroke-linecap="round" stroke-linejoin="round"/>
<path d="M220.164 112.607H224.406V123.312" stroke="#DDDDDD" stroke-width="2" stroke-miterlimit="10" stroke-linecap="round" stroke-linejoin="round"/>
<path d="M245.499 142.371L261.625 126.247" stroke="#DDDDDD" stroke-width="2" stroke-miterlimit="10" stroke-linecap="round" stroke-linejoin="round"/>
<path d="M245.499 133.746L261.625 117.62V109.265" stroke="#DDDDDD" stroke-width="2" stroke-miterlimit="10" stroke-linecap="round" stroke-linejoin="round"/>
<path d="M220.164 96.2549H230.232L226.212 92.2806" stroke="#DDDDDD" stroke-width="2" stroke-miterlimit="10" stroke-linecap="round" stroke-linejoin="round"/>
<path d="M254.938 123.582V116.807" stroke="#DDDDDD" stroke-width="2" stroke-miterlimit="10" stroke-linecap="round" stroke-linejoin="round"/>
<path d="M175.627 35.9378C175.627 34.1916 174.211 32.776 172.465 32.776C170.719 32.776 169.304 34.1916 169.304 35.9378C169.304 37.6839 170.719 39.0995 172.465 39.0995C174.211 39.0995 175.627 37.6839 175.627 35.9378Z" stroke="#DDDDDD" stroke-width="2" stroke-miterlimit="10"/>
<path d="M187.371 52.8757C187.371 51.13 185.956 49.7144 184.21 49.7144C182.464 49.7144 181.048 51.13 181.048 52.8757C181.048 54.6222 182.464 56.0379 184.21 56.0379C185.956 56.0379 187.371 54.6222 187.371 52.8757Z" stroke="#DDDDDD" stroke-width="2" stroke-miterlimit="10"/>
<path d="M141.534 48.1794H142.149M169.575 38.6489L160.044 48.1794H145.693" stroke="#DDDDDD" stroke-width="2" stroke-miterlimit="10" stroke-linecap="round" stroke-linejoin="round"/>
<path d="M222.603 34.5833C222.603 32.8372 221.187 31.4216 219.441 31.4216C217.695 31.4216 216.279 32.8372 216.279 34.5833C216.279 36.3296 217.695 37.7451 219.441 37.7451C221.187 37.7451 222.603 36.3296 222.603 34.5833Z" stroke="#DDDDDD" stroke-width="2" stroke-miterlimit="10"/>
<path d="M216.549 37.2933L207.741 46.1011H203.586C202.818 46.1011 202.231 45.5139 202.231 44.746V33.6116M202.231 26.5884V30.1" stroke="#DDDDDD" stroke-width="2" stroke-miterlimit="10" stroke-linecap="round" stroke-linejoin="round"/>
<path d="M163.071 36.4351L157.063 42.4876H152.908C152.14 42.4876 151.553 41.9004 151.553 41.1325V36.4351" stroke="#DDDDDD" stroke-width="2" stroke-miterlimit="10" stroke-linecap="round" stroke-linejoin="round"/>
<path d="M236.287 55.8119C236.287 54.0654 234.872 52.6498 233.125 52.6498C231.379 52.6498 229.964 54.0654 229.964 55.8119C229.964 57.5576 231.379 58.9733 233.125 58.9733C234.872 58.9733 236.287 57.5576 236.287 55.8119Z" stroke="#DDDDDD" stroke-width="2" stroke-miterlimit="10"/>
<path d="M230.28 58.522L220.749 68.0527H211.896C211.4 68.0527 210.993 68.4592 210.993 68.9565V82.4164" stroke="#DDDDDD" stroke-width="2" stroke-miterlimit="10" stroke-linecap="round" stroke-linejoin="round"/>
<path d="M151.942 53.5526H162.302L171.833 44.0225H196.991" stroke="#DDDDDD" stroke-width="2" stroke-miterlimit="10" stroke-linecap="round" stroke-linejoin="round"/>
<path d="M192.711 51.9724H194.868M222.649 33.0923H238.712L248.062 42.4421H219.984L210.453 51.9724H198.966" stroke="#DDDDDD" stroke-width="2" stroke-miterlimit="10" stroke-linecap="round" stroke-linejoin="round"/>
<path d="M199.025 57.7096H212.936L222.467 48.1788H226.358M255.001 48.1788H235.202M230.457 48.1788H231.535" stroke="#DDDDDD" stroke-width="2" stroke-miterlimit="10" stroke-linecap="round" stroke-linejoin="round"/>
<path d="M224.273 55.4956L216.911 62.8582H213.631M209.458 62.8582C207.471 62.8582 205.845 64.4839 205.845 66.4718V79.5704C205.845 80.3382 205.257 80.9257 204.49 80.9257H178.789" stroke="#DDDDDD" stroke-width="2" stroke-miterlimit="10" stroke-linecap="round" stroke-linejoin="round"/>
<path d="M180.551 38.196H182.572M185.807 38.196H194.507C195.772 38.196 196.766 37.2023 196.766 35.9376V21.9426H225.845" stroke="#DDDDDD" stroke-width="2" stroke-miterlimit="10" stroke-linecap="round" stroke-linejoin="round"/>
<path d="M191.345 28.2197V32.4607H180.64" stroke="#DDDDDD" stroke-width="2" stroke-miterlimit="10" stroke-linecap="round" stroke-linejoin="round"/>
<path d="M158.693 58.9282L174.733 74.104C175.591 74.9628 176.72 75.4143 177.94 75.4143H190.768M186.874 54.9982L194.688 62.8123H200.445V75.4143H194.435" stroke="#DDDDDD" stroke-width="2" stroke-miterlimit="10" stroke-linecap="round" stroke-linejoin="round"/>
<path d="M161.58 53.5542L177.705 69.6789" stroke="#DDDDDD" stroke-width="2" stroke-miterlimit="10" stroke-linecap="round" stroke-linejoin="round"/>
<path d="M170.207 53.5542L186.333 69.6789H194.688" stroke="#DDDDDD" stroke-width="2" stroke-miterlimit="10" stroke-linecap="round" stroke-linejoin="round"/>
<path d="M207.697 28.2197V38.2874L211.672 34.2675" stroke="#DDDDDD" stroke-width="2" stroke-miterlimit="10" stroke-linecap="round" stroke-linejoin="round"/>
<path d="M180.37 62.9937H187.146" stroke="#DDDDDD" stroke-width="2" stroke-miterlimit="10" stroke-linecap="round" stroke-linejoin="round"/>
<path d="M102.316 51.9715H104.473M132.254 33.0908H146.472V42.4407H129.589L120.058 51.9715H108.571" stroke="#DDDDDD" stroke-width="2" stroke-miterlimit="10" stroke-linecap="round" stroke-linejoin="round"/>
<path d="M96.4935 24.6774C96.4935 22.9312 95.0778 21.5156 93.3313 21.5156C91.5856 21.5156 90.1699 22.9312 90.1699 24.6774C90.1699 26.4236 91.5856 27.8392 93.3313 27.8392C95.0778 27.8392 96.4935 26.4236 96.4935 24.6774Z" stroke="#DDDDDD" stroke-width="2" stroke-miterlimit="10"/>
<path d="M96.9778 52.8738C96.9778 51.1273 95.5622 49.7124 93.8164 49.7124C92.07 49.7124 90.6543 51.1273 90.6543 52.8738C90.6543 54.6203 92.07 56.0359 93.8164 56.0359C95.5622 56.0359 96.9778 54.6203 96.9778 52.8738Z" stroke="#DDDDDD" stroke-width="2" stroke-miterlimit="10"/>
<path d="M51.1407 48.1766H51.7565M90.9246 26.9031L69.6506 48.1766H55.2991" stroke="#DDDDDD" stroke-width="2" stroke-miterlimit="10" stroke-linecap="round" stroke-linejoin="round"/>
<path d="M132.209 34.5807C132.209 32.8345 130.793 31.4189 129.047 31.4189C127.3 31.4189 125.886 32.8345 125.886 34.5807C125.886 36.3269 127.3 37.7425 129.047 37.7425C130.793 37.7425 132.209 36.3269 132.209 34.5807Z" stroke="#DDDDDD" stroke-width="2" stroke-miterlimit="10"/>
<path d="M126.156 37.2907L117.349 46.0984H113.193C112.425 46.0984 111.838 45.5112 111.838 44.7434V33.609M111.838 26.5858V30.0974" stroke="#DDDDDD" stroke-width="2" stroke-miterlimit="10" stroke-linecap="round" stroke-linejoin="round"/>
<path d="M93.9264 13.7275L65.9186 42.4862H62.5135C61.7457 42.4862 61.1582 41.899 61.1582 41.1311V36.4336" stroke="#DDDDDD" stroke-width="2" stroke-miterlimit="10" stroke-linecap="round" stroke-linejoin="round"/>
<path d="M145.894 55.8095C145.894 54.0637 144.478 52.6481 142.731 52.6481C140.985 52.6481 139.57 54.0637 139.57 55.8095C139.57 57.5559 140.985 58.9716 142.731 58.9716C144.478 58.9716 145.894 57.5559 145.894 55.8095Z" stroke="#DDDDDD" stroke-width="2" stroke-miterlimit="10"/>
<path d="M139.887 58.5209L130.356 68.0516H121.503C121.006 68.0516 120.6 68.4581 120.6 68.9547V82.4146" stroke="#DDDDDD" stroke-width="2" stroke-miterlimit="10" stroke-linecap="round" stroke-linejoin="round"/>
<path d="M61.5487 53.5522H71.9084L81.4391 44.0216H106.597" stroke="#DDDDDD" stroke-width="2" stroke-miterlimit="10" stroke-linecap="round" stroke-linejoin="round"/>
<path d="M108.631 57.7079H122.542L132.073 48.1779H135.965M156.629 48.1779H144.808" stroke="#DDDDDD" stroke-width="2" stroke-miterlimit="10" stroke-linecap="round" stroke-linejoin="round"/>
<path d="M133.88 55.4941L126.517 62.8567H123.238M119.064 62.8567C117.077 62.8567 115.451 64.4825 115.451 66.4696V79.5682C115.451 80.3367 114.864 80.9235 114.096 80.9235H88.3955" stroke="#DDDDDD" stroke-width="2" stroke-miterlimit="10" stroke-linecap="round" stroke-linejoin="round"/>
<path d="M106.372 24.3341V35.9356C106.372 37.2003 105.379 38.194 104.114 38.194H95.4134M90.1571 38.194H92.1779" stroke="#DDDDDD" stroke-width="2" stroke-miterlimit="10" stroke-linecap="round" stroke-linejoin="round"/>
<path d="M100.952 16.771V32.4574H90.248" stroke="#DDDDDD" stroke-width="2" stroke-miterlimit="10" stroke-linecap="round" stroke-linejoin="round"/>
<path d="M68.3008 58.9258L84.3399 74.1024C85.1979 74.9603 86.3271 75.4126 87.5464 75.4126H100.375M96.4805 54.9966L104.295 62.8106H110.051V75.4126H104.042" stroke="#DDDDDD" stroke-width="2" stroke-miterlimit="10" stroke-linecap="round" stroke-linejoin="round"/>
<path d="M71.1865 53.5522L87.3113 69.677" stroke="#DDDDDD" stroke-width="2" stroke-miterlimit="10" stroke-linecap="round" stroke-linejoin="round"/>
<path d="M79.8133 53.5524L95.9388 69.6772H104.295" stroke="#DDDDDD" stroke-width="2" stroke-miterlimit="10" stroke-linecap="round" stroke-linejoin="round"/>
<path d="M117.304 28.2171V38.2848L121.279 34.2648" stroke="#DDDDDD" stroke-width="2" stroke-miterlimit="10" stroke-linecap="round" stroke-linejoin="round"/>
<path d="M89.9766 62.9917H96.7524" stroke="#DDDDDD" stroke-width="2" stroke-miterlimit="10" stroke-linecap="round" stroke-linejoin="round"/>
<path d="M147.355 6.73749H149.512M177.293 25.6178H191.511V16.268H174.627L165.097 6.73749H153.61" stroke="#DDDDDD" stroke-width="2" stroke-miterlimit="10" stroke-linecap="round" stroke-linejoin="round"/>
<path d="M130.273 22.7708C130.273 24.517 128.857 25.9326 127.111 25.9326C125.365 25.9326 123.949 24.517 123.949 22.7708C123.949 21.0247 125.365 19.6091 127.111 19.6091C128.857 19.6091 130.273 21.0247 130.273 22.7708Z" stroke="#DDDDDD" stroke-width="2" stroke-miterlimit="10"/>
<path d="M96.929 10.5309H96.7937M124.219 20.0614L114.689 10.5309H100.337" stroke="#DDDDDD" stroke-width="2" stroke-miterlimit="10" stroke-linecap="round" stroke-linejoin="round"/>
<path d="M177.247 24.1271C177.247 25.8733 175.832 27.2889 174.086 27.2889C172.339 27.2889 170.924 25.8733 170.924 24.1271C170.924 22.3809 172.339 20.9653 174.086 20.9653C175.832 20.9653 177.247 22.3809 177.247 24.1271Z" stroke="#DDDDDD" stroke-width="2" stroke-miterlimit="10"/>
<path d="M171.194 21.4164L162.386 12.6086H158.231C157.463 12.6086 156.876 13.1958 156.876 13.9637V25.098M156.876 32.1212V28.6096" stroke="#DDDDDD" stroke-width="2" stroke-miterlimit="10" stroke-linecap="round" stroke-linejoin="round"/>
<path d="M117.715 22.2743L111.708 16.2218H107.552C106.785 16.2218 106.197 16.809 106.197 17.5768V22.2743" stroke="#DDDDDD" stroke-width="2" stroke-miterlimit="10" stroke-linecap="round" stroke-linejoin="round"/>
<path d="M106.588 5.15625H116.948L126.478 14.6867H151.636" stroke="#DDDDDD" stroke-width="2" stroke-miterlimit="10" stroke-linecap="round" stroke-linejoin="round"/>
<path d="M153.67 1H167.581L177.112 10.5304H181.003M201.667 10.5304H189.847" stroke="#DDDDDD" stroke-width="2" stroke-miterlimit="10" stroke-linecap="round" stroke-linejoin="round"/>
<path d="M237.57 37.6572H225.75" stroke="#DDDDDD" stroke-width="2" stroke-miterlimit="10" stroke-linecap="round" stroke-linejoin="round"/>
<path d="M151.411 34.3736V22.7721C151.411 21.5074 150.417 20.5137 149.153 20.5137H140.452M135.195 20.5137H137.217" stroke="#DDDDDD" stroke-width="2" stroke-miterlimit="10" stroke-linecap="round" stroke-linejoin="round"/>
<path d="M145.99 30.4901V26.249H135.285" stroke="#DDDDDD" stroke-width="2" stroke-miterlimit="10" stroke-linecap="round" stroke-linejoin="round"/>
<path d="M162.343 30.4907V20.423L166.317 24.443" stroke="#DDDDDD" stroke-width="2" stroke-miterlimit="10" stroke-linecap="round" stroke-linejoin="round"/>
</g>
<path d="M40.4141 55.2499C40.4141 52.7189 42.4661 50.666 44.998 50.666H222.243C224.774 50.666 226.827 52.7189 226.827 55.2499V170.612C226.827 173.144 224.774 175.196 222.243 175.196H44.9972C42.4661 175.196 40.4141 173.144 40.4141 170.612V55.2499Z" fill="#EDECEC"/>
<path d="M55.6935 79.6972C55.6935 78.0096 57.061 76.6413 58.7494 76.6413H208.491C210.179 76.6413 211.547 78.0096 211.547 79.6972V156.86C211.547 158.548 210.179 159.916 208.491 159.916H58.7494C57.061 159.916 55.6935 158.548 55.6935 156.86V79.6972Z" fill="white" stroke="#777777" stroke-width="2"/>
<path d="M187.482 92.6851H62.9516C62.3187 92.6851 61.8057 93.1981 61.8057 93.831C61.8057 94.4639 62.3187 94.977 62.9516 94.977H187.482C188.115 94.977 188.628 94.4639 188.628 93.831C188.628 93.1981 188.115 92.6851 187.482 92.6851Z" fill="#DDDDDD"/>
<path d="M72.8835 82.7534H64.4796C63.0028 82.7534 61.8057 83.9506 61.8057 85.4274C61.8057 86.9042 63.0028 88.1013 64.4796 88.1013H72.8835C74.3603 88.1013 75.5574 86.9042 75.5574 85.4274C75.5574 83.9506 74.3603 82.7534 72.8835 82.7534Z" fill="#DDDDDD"/>
<path d="M203.144 82.7534H195.504C194.238 82.7534 193.212 83.7796 193.212 85.0454V92.6853C193.212 93.9511 194.238 94.9772 195.504 94.9772H203.144C204.41 94.9772 205.436 93.9511 205.436 92.6853V85.0454C205.436 83.7796 204.41 82.7534 203.144 82.7534Z" fill="#DDDDDD"/>
<path d="M40.4141 55.2499C40.4141 52.7189 42.4661 50.666 44.998 50.666H222.243C224.774 50.666 226.827 52.7189 226.827 55.2499V61.3618H40.4141V55.2499Z" fill="#DDDDDD" stroke="#777777" stroke-width="2"/>
<path d="M47.29 58.306C48.5558 58.306 49.582 57.2798 49.582 56.014C49.582 54.7482 48.5558 53.722 47.29 53.722C46.0242 53.722 44.998 54.7482 44.998 56.014C44.998 57.2798 46.0242 58.306 47.29 58.306Z" fill="#777777"/>
<path d="M53.4023 58.3061C54.6681 58.3061 55.6943 57.2799 55.6943 56.0141C55.6943 54.7483 54.6681 53.7222 53.4023 53.7222C52.1365 53.7222 51.1104 54.7483 51.1104 56.0141C51.1104 57.2799 52.1365 58.3061 53.4023 58.3061Z" fill="#777777"/>
<path d="M59.5138 58.306C60.7797 58.306 61.8058 57.2798 61.8058 56.014C61.8058 54.7482 60.7797 53.722 59.5138 53.722C58.248 53.722 57.2219 54.7482 57.2219 56.014C57.2219 57.2798 58.248 58.306 59.5138 58.306Z" fill="#777777"/>
<path d="M40.4141 55.2499C40.4141 52.7189 42.4661 50.666 44.998 50.666H222.243C224.774 50.666 226.827 52.7189 226.827 55.2499V170.612C226.827 173.144 224.774 175.196 222.243 175.196H44.9972C42.4661 175.196 40.4141 173.144 40.4141 170.612V55.2499Z" stroke="#777777" stroke-width="2"/>
<path opacity="0.07" fill-rule="evenodd" clip-rule="evenodd" d="M17.9098 98.0332C15.8001 98.0332 14.0898 99.7438 14.0898 101.853V124.552C14.0898 127.342 15.1801 130.022 17.128 132.019L21.9054 136.919V173.661C21.9054 174.192 21.9828 174.705 22.1268 175.189H69.2727V136.909L73.8681 131.974C75.7116 129.994 76.7368 127.389 76.7368 124.684V101.853C76.7368 99.7438 75.0263 98.0332 72.9169 98.0332H63.749C61.6397 98.0332 59.9291 99.7438 59.9291 101.853V106.437H53.8172V101.853C53.8172 99.7438 52.1066 98.0332 49.9973 98.0332H40.8294C38.72 98.0332 37.0095 99.7438 37.0095 101.853V106.437H30.8976V101.853C30.8976 99.7438 29.187 98.0332 27.0776 98.0332H17.9098Z" fill="#4C4C4C"/>
<path opacity="0.07" fill-rule="evenodd" clip-rule="evenodd" d="M193.627 98.033C191.517 98.033 189.807 99.7436 189.807 101.853V124.552C189.807 127.342 190.897 130.022 192.845 132.019L197.622 136.918V173.661C197.622 174.192 197.699 174.705 197.844 175.189H244.989V136.909L249.585 131.974C251.428 129.994 252.454 127.389 252.454 124.684V101.853C252.454 99.7436 250.743 98.033 248.634 98.033H239.466C237.356 98.033 235.646 99.7436 235.646 101.853V106.437H229.534V101.853C229.534 99.7436 227.823 98.033 225.714 98.033H216.546C214.437 98.033 212.726 99.7436 212.726 101.853V106.437H206.614V101.853C206.614 99.7436 204.904 98.033 202.794 98.033H193.627Z" fill="#4C4C4C"/>
<path opacity="0.15" fill-rule="evenodd" clip-rule="evenodd" d="M227.418 99.5612H224.95V94.9773C224.95 92.8679 223.24 91.1573 221.13 91.1573H211.962C209.853 91.1573 208.142 92.8679 208.142 94.9773V119.204C208.142 121.994 209.233 124.674 211.181 126.671L215.958 131.571V174.425C215.958 174.956 216.035 175.469 216.18 175.953H227.418V99.5612Z" fill="#4C4C4C"/>
<path d="M25.1339 124.009C25.1339 121.478 27.186 119.425 29.7178 119.425H237.522C240.054 119.425 242.106 121.478 242.106 124.009V170.612C242.106 173.144 240.054 175.196 237.522 175.196H29.7171C27.186 175.196 25.1339 173.144 25.1339 170.612V124.009Z" fill="#E1E1E1" stroke="#4C4C4C" stroke-width="2"/>
<g opacity="0.8">
<path d="M100.388 123.245H75.1761C74.5431 123.245 74.0301 123.758 74.0301 124.391C74.0301 125.024 74.5431 125.537 75.1761 125.537H100.388C101.021 125.537 101.534 125.024 101.534 124.391C101.534 123.758 101.021 123.245 100.388 123.245Z" fill="white"/>
<path d="M187.482 123.245H177.55C176.917 123.245 176.404 123.759 176.404 124.391C176.404 125.024 176.917 125.537 177.55 125.537H187.482C188.115 125.537 188.628 125.024 188.628 124.391C188.628 123.759 188.115 123.245 187.482 123.245Z" fill="white"/>
<path d="M195.885 123.245H192.829C192.196 123.245 191.683 123.758 191.683 124.391C191.683 125.024 192.196 125.537 192.829 125.537H195.885C196.518 125.537 197.031 125.024 197.031 124.391C197.031 123.758 196.518 123.245 195.885 123.245Z" fill="white"/>
</g>
<path d="M189.392 142.345H174.112C172.846 142.345 171.82 143.371 171.82 144.637V150.749C171.82 152.014 172.846 153.041 174.112 153.041H189.392C190.658 153.041 191.684 152.014 191.684 150.749V144.637C191.684 143.371 190.658 142.345 189.392 142.345Z" fill="#D1D1D1"/>
<path d="M67.1537 142.345H51.874C50.6082 142.345 49.582 143.371 49.582 144.637V150.749C49.582 152.014 50.6082 153.041 51.874 153.041H67.1537C68.4196 153.041 69.4457 152.014 69.4457 150.749V144.637C69.4457 143.371 68.4196 142.345 67.1537 142.345Z" fill="#D1D1D1"/>
<path d="M97.7123 153.04H82.4326C81.1668 153.04 80.1406 154.066 80.1406 155.332V161.444C80.1406 162.71 81.1668 163.736 82.4326 163.736H97.7123C98.9782 163.736 100.004 162.71 100.004 161.444V155.332C100.004 154.066 98.9782 153.04 97.7123 153.04Z" fill="#D1D1D1"/>
<path d="M158.831 163.736H143.552C142.286 163.736 141.26 164.762 141.26 166.028V172.14C141.26 173.406 142.286 174.432 143.552 174.432H158.831C160.097 174.432 161.123 173.406 161.123 172.14V166.028C161.123 164.762 160.097 163.736 158.831 163.736Z" fill="#D1D1D1"/>
<path d="M222.244 153.04H206.964C205.698 153.04 204.672 154.066 204.672 155.332V161.444C204.672 162.71 205.698 163.736 206.964 163.736H222.244C223.509 163.736 224.536 162.71 224.536 161.444V155.332C224.536 154.066 223.509 153.04 222.244 153.04Z" fill="#D1D1D1"/>
<path d="M112.993 131.649H97.7129C96.447 131.649 95.4209 132.675 95.4209 133.941V140.052C95.4209 141.318 96.447 142.344 97.7129 142.344H112.993C114.258 142.344 115.285 141.318 115.285 140.052V133.941C115.285 132.675 114.258 131.649 112.993 131.649Z" fill="#D1D1D1"/>
<path d="M166.472 120.188H151.193C149.927 120.188 148.901 121.215 148.901 122.48V129.356C148.901 130.622 149.927 131.648 151.193 131.648H166.472C167.738 131.648 168.764 130.622 168.764 129.356V122.48C168.764 121.215 167.738 120.188 166.472 120.188Z" fill="#D1D1D1"/>
<path opacity="0.15" fill-rule="evenodd" clip-rule="evenodd" d="M8.74316 119.418C8.79733 122.131 9.88112 124.724 11.7792 126.671L16.5566 131.57V174.425C16.5566 174.956 16.634 175.468 16.7781 175.953H63.9239V131.56L68.5192 126.626C70.3444 124.666 71.3674 122.094 71.388 119.418H8.74316Z" fill="#4C4C4C"/>
<path opacity="0.15" fill-rule="evenodd" clip-rule="evenodd" d="M195.157 119.418C195.212 122.131 196.295 124.724 198.194 126.671L202.971 131.57V174.425C202.971 174.956 203.048 175.468 203.192 175.953H250.338V131.56L254.933 126.626C256.759 124.666 257.781 122.094 257.802 119.418H195.157Z" fill="#4C4C4C"/>
<path fill-rule="evenodd" clip-rule="evenodd" d="M1.86523 91.1575C1.86523 89.4699 3.23346 88.1016 4.92119 88.1016H14.089C15.7768 88.1016 17.145 89.4699 17.145 91.1575V96.5054H24.7849V91.1575C24.7849 89.4699 26.1532 88.1016 27.8408 88.1016H37.0087C38.6963 88.1016 40.0646 89.4699 40.0646 91.1575V96.5054H47.7045V91.1575C47.7045 89.4699 49.0728 88.1016 50.7605 88.1016H59.9283C61.616 88.1016 62.9843 89.4699 62.9843 91.1575V96.5054V102.617V115.516C62.9843 118.028 62.0323 120.447 60.3202 122.285L55.5201 127.44V172.133C55.5201 173.821 54.1518 175.189 52.4641 175.189H14.2648C11.7331 175.189 9.68083 173.137 9.68083 170.605V127.44L4.68641 122.318C2.8776 120.463 1.86523 117.975 1.86523 115.384V102.617V96.5054V91.1575Z" fill="#EDECEC"/>
<path fill-rule="evenodd" clip-rule="evenodd" d="M3.10481 120.189C2.29857 118.73 1.86523 117.079 1.86523 115.384V108.729H6.79792C8.06378 108.729 9.08989 109.755 9.08989 111.021V117.897C9.08989 119.163 8.06378 120.189 6.79792 120.189H3.10481ZM9.68083 142.344V131.648H21.3137C22.5795 131.648 23.6057 132.675 23.6057 133.94V140.052C23.6057 141.318 22.5795 142.344 21.3137 142.344H9.68083ZM11.7407 174.432C10.4995 173.612 9.68083 172.204 9.68083 170.605V163.736H21.3137C22.5795 163.736 23.6057 164.762 23.6057 166.028V172.14C23.6057 173.406 22.5795 174.432 21.3137 174.432H11.7407ZM55.5201 153.04V163.736H41.1777C39.9118 163.736 38.8858 162.71 38.8858 161.444V155.332C38.8858 154.066 39.9118 153.04 41.1777 153.04H55.5201ZM62.9843 97.269V102.617V108.729H53.4016C52.1356 108.729 51.1096 107.703 51.1096 106.437V99.561C51.1096 98.2951 52.1356 97.269 53.4016 97.269H62.9843Z" fill="#D9D9D9"/>
<path opacity="0.1" fill-rule="evenodd" clip-rule="evenodd" d="M62.1843 116.369C61.9949 118.571 61.0743 120.656 59.557 122.285L55.106 127.065H23.325C21.1043 127.065 19.0205 125.993 17.7297 124.185L13.8724 118.785C13.15 117.774 13.8729 116.369 15.1157 116.369H62.1843Z" fill="#4C4C4C"/>
<path d="M17.1453 96.5053H16.3813V97.2692H17.1453V96.5053ZM24.7852 96.5053V97.2692H25.5492V96.5053H24.7852ZM40.0649 96.5053H39.3009V97.2692H40.0649V96.5053ZM47.7048 96.5053V97.2692H48.4688V96.5053H47.7048ZM60.3205 122.285L59.7621 121.765L60.3205 122.285ZM55.5204 127.44L54.9612 126.919L54.7564 127.139V127.44H55.5204ZM9.68115 127.44H10.4451V127.129L10.2281 126.907L9.68115 127.44ZM4.68673 122.318L5.23367 121.785L4.68673 122.318ZM4.9215 87.3374C2.81183 87.3374 1.10156 89.048 1.10156 91.1573H2.62954C2.62954 89.8914 3.65565 88.8654 4.9215 88.8654V87.3374ZM14.0894 87.3374H4.9215V88.8654H14.0894V87.3374ZM17.9093 91.1573C17.9093 89.048 16.199 87.3374 14.0894 87.3374V88.8654C15.3551 88.8654 16.3813 89.8914 16.3813 91.1573H17.9093ZM17.9093 96.5053V91.1573H16.3813V96.5053H17.9093ZM24.7852 95.7413H17.1453V97.2692H24.7852V95.7413ZM24.0212 91.1573V96.5053H25.5492V91.1573H24.0212ZM27.8411 87.3374C25.7318 87.3374 24.0212 89.048 24.0212 91.1573H25.5492C25.5492 89.8914 26.5752 88.8654 27.8411 88.8654V87.3374ZM37.009 87.3374H27.8411V88.8654H37.009V87.3374ZM40.8289 91.1573C40.8289 89.048 39.1184 87.3374 37.009 87.3374V88.8654C38.2749 88.8654 39.3009 89.8914 39.3009 91.1573H40.8289ZM40.8289 96.5053V91.1573H39.3009V96.5053H40.8289ZM47.7048 95.7413H40.0649V97.2692H47.7048V95.7413ZM46.9408 91.1573V96.5053H48.4688V91.1573H46.9408ZM50.7608 87.3374C48.6514 87.3374 46.9408 89.048 46.9408 91.1573H48.4688C48.4688 89.8914 49.4948 88.8654 50.7608 88.8654V87.3374ZM59.9286 87.3374H50.7608V88.8654H59.9286V87.3374ZM63.7486 91.1573C63.7486 89.048 62.038 87.3374 59.9286 87.3374V88.8654C61.1945 88.8654 62.2206 89.8914 62.2206 91.1573H63.7486ZM63.7486 96.5053V91.1573H62.2206V96.5053H63.7486ZM63.7486 102.617V96.5053H62.2206V102.617H63.7486ZM63.7486 115.516V102.617H62.2206V115.516H63.7486ZM60.8798 122.806C62.7233 120.826 63.7486 118.222 63.7486 115.516H62.2206C62.2206 117.835 61.342 120.068 59.7621 121.765L60.8798 122.806ZM56.0796 127.961L60.8798 122.806L59.7621 121.765L54.9612 126.919L56.0796 127.961ZM54.7564 127.44V172.133H56.2844V127.44H54.7564ZM54.7564 172.133C54.7564 173.399 53.7304 174.425 52.4645 174.425V175.953C54.5738 175.953 56.2844 174.243 56.2844 172.133H54.7564ZM52.4645 174.425H14.2651V175.953H52.4645V174.425ZM14.2651 174.425C12.1553 174.425 10.4451 172.715 10.4451 170.605H8.91716C8.91716 173.559 11.3115 175.953 14.2651 175.953V174.425ZM10.4451 170.605V127.44H8.91716V170.605H10.4451ZM4.13971 122.851L9.13413 127.973L10.2281 126.907L5.23367 121.785L4.13971 122.851ZM1.10156 115.384C1.10156 118.174 2.19177 120.854 4.13971 122.851L5.23367 121.785C3.56405 120.073 2.62954 117.775 2.62954 115.384H1.10156ZM1.10156 102.617V115.384H2.62954V102.617H1.10156ZM1.10156 96.5053V102.617H2.62954V96.5053H1.10156ZM1.10156 91.1573V96.5053H2.62954V91.1573H1.10156Z" fill="#4C4C4C"/>
<path d="M12.5285 91.1573H6.41659C5.78368 91.1573 5.27061 91.6704 5.27061 92.3033C5.27061 92.9362 5.78368 93.4493 6.41659 93.4493H12.5285C13.1614 93.4493 13.6745 92.9362 13.6745 92.3033C13.6745 91.6704 13.1614 91.1573 12.5285 91.1573Z" fill="white"/>
<path d="M33.1554 91.1572H29.3354C28.7025 91.1572 28.1895 91.6703 28.1895 92.3032C28.1895 92.9361 28.7025 93.4492 29.3354 93.4492H33.1554C33.7883 93.4492 34.3014 92.9361 34.3014 92.3032C34.3014 91.6703 33.7883 91.1572 33.1554 91.1572Z" fill="white"/>
<path d="M56.0763 91.1572H52.2563C51.6234 91.1572 51.1104 91.6703 51.1104 92.3032C51.1104 92.9361 51.6234 93.4492 52.2563 93.4492H56.0763C56.7092 93.4492 57.2223 92.9361 57.2223 92.3032C57.2223 91.6703 56.7092 91.1572 56.0763 91.1572Z" fill="white"/>
<path fill-rule="evenodd" clip-rule="evenodd" d="M203.558 91.1575C203.558 89.4699 204.926 88.1016 206.614 88.1016H215.781C217.469 88.1016 218.837 89.4699 218.837 91.1575V96.5054H226.477V91.1575C226.477 89.4699 227.846 88.1016 229.533 88.1016H238.701C240.389 88.1016 241.757 89.4699 241.757 91.1575V96.5054H249.397V91.1575C249.397 89.4699 250.765 88.1016 252.453 88.1016H261.621C263.308 88.1016 264.677 89.4699 264.677 91.1575V96.5054V102.617V115.516C264.677 118.028 263.725 120.447 262.013 122.285L257.212 127.44V172.133C257.212 173.821 255.844 175.189 254.157 175.189H215.957C213.425 175.189 211.373 173.137 211.373 170.605V127.44L206.379 122.318C204.57 120.463 203.558 117.975 203.558 115.384V102.617V96.5054V91.1575Z" fill="#EDECEC"/>
<path fill-rule="evenodd" clip-rule="evenodd" d="M203.558 108.729V102.617V97.269H209.255C210.52 97.269 211.547 98.2951 211.547 99.561V106.437C211.547 107.703 210.52 108.729 209.255 108.729H203.558ZM257.212 163.736V172.133C257.212 173.05 256.809 173.872 256.17 174.432H253.566C252.3 174.432 251.274 173.406 251.274 172.14V166.028C251.274 164.762 252.3 163.736 253.566 163.736H257.212ZM257.212 131.648V142.344H245.926C244.66 142.344 243.634 141.318 243.634 140.052V133.94C243.634 132.675 244.66 131.648 245.926 131.648H257.212ZM216.895 155.332C216.895 154.066 217.921 153.04 219.187 153.04H234.466C235.731 153.04 236.758 154.066 236.758 155.332V161.444C236.758 162.71 235.731 163.736 234.466 163.736H219.187C217.921 163.736 216.895 162.71 216.895 161.444V155.332Z" fill="#D9D9D9"/>
<path opacity="0.1" fill-rule="evenodd" clip-rule="evenodd" d="M263.877 116.369C263.687 118.571 262.767 120.656 261.249 122.285L256.798 127.065H224.253C222.032 127.065 220.713 125.993 219.422 124.185L215.564 118.785C214.842 117.774 215.565 116.369 216.808 116.369H263.877Z" fill="#4C4C4C"/>
<path d="M218.838 96.5053H218.074V97.2692H218.838V96.5053ZM226.478 96.5053V97.2692H227.242V96.5053H226.478ZM241.757 96.5053H240.993V97.2692H241.757V96.5053ZM249.397 96.5053V97.2692H250.161V96.5053H249.397ZM262.013 122.285L261.454 121.765L262.013 122.285ZM257.213 127.44L256.654 126.919L256.449 127.139V127.44H257.213ZM211.374 127.44H212.138V127.129L211.921 126.907L211.374 127.44ZM206.379 122.318L206.926 121.785L206.379 122.318ZM206.614 87.3374C204.505 87.3374 202.794 89.048 202.794 91.1573H204.322C204.322 89.8914 205.348 88.8654 206.614 88.8654V87.3374ZM215.782 87.3374H206.614V88.8654H215.782V87.3374ZM219.602 91.1573C219.602 89.048 217.891 87.3374 215.782 87.3374V88.8654C217.048 88.8654 218.074 89.8914 218.074 91.1573H219.602ZM219.602 96.5053V91.1573H218.074V96.5053H219.602ZM226.478 95.7413H218.838V97.2692H226.478V95.7413ZM225.714 91.1573V96.5053H227.242V91.1573H225.714ZM229.534 87.3374C227.424 87.3374 225.714 89.048 225.714 91.1573H227.242C227.242 89.8914 228.268 88.8654 229.534 88.8654V87.3374ZM238.701 87.3374H229.534V88.8654H238.701V87.3374ZM242.521 91.1573C242.521 89.048 240.811 87.3374 238.701 87.3374V88.8654C239.967 88.8654 240.993 89.8914 240.993 91.1573H242.521ZM242.521 96.5053V91.1573H240.993V96.5053H242.521ZM249.397 95.7413H241.757V97.2692H249.397V95.7413ZM248.633 91.1573V96.5053H250.161V91.1573H248.633ZM252.453 87.3374C250.344 87.3374 248.633 89.048 248.633 91.1573H250.161C250.161 89.8914 251.187 88.8654 252.453 88.8654V87.3374ZM261.621 87.3374H252.453V88.8654H261.621V87.3374ZM265.441 91.1573C265.441 89.048 263.73 87.3374 261.621 87.3374V88.8654C262.887 88.8654 263.913 89.8914 263.913 91.1573H265.441ZM265.441 96.5053V91.1573H263.913V96.5053H265.441ZM265.441 102.617V96.5053H263.913V102.617H265.441ZM265.441 115.516V102.617H263.913V115.516H265.441ZM262.572 122.806C264.416 120.826 265.441 118.222 265.441 115.516H263.913C263.913 117.835 263.034 120.068 261.454 121.765L262.572 122.806ZM257.772 127.961L262.572 122.806L261.454 121.765L256.654 126.919L257.772 127.961ZM256.449 127.44V172.133H257.977V127.44H256.449ZM256.449 172.133C256.449 173.399 255.423 174.425 254.157 174.425V175.953C256.266 175.953 257.977 174.243 257.977 172.133H256.449ZM254.157 174.425H215.957V175.953H254.157V174.425ZM215.957 174.425C213.848 174.425 212.138 172.715 212.138 170.605H210.61C210.61 173.559 213.004 175.953 215.957 175.953V174.425ZM212.138 170.605V127.44H210.61V170.605H212.138ZM205.832 122.851L210.827 127.973L211.921 126.907L206.926 121.785L205.832 122.851ZM202.794 115.384C202.794 118.174 203.884 120.854 205.832 122.851L206.926 121.785C205.256 120.073 204.322 117.775 204.322 115.384H202.794ZM202.794 102.617V115.384H204.322V102.617H202.794ZM202.794 96.5053V102.617H204.322V96.5053H202.794ZM202.794 91.1573V96.5053H204.322V91.1573H202.794Z" fill="#4C4C4C"/>
<path d="M214.221 91.1573H208.109C207.476 91.1573 206.963 91.6704 206.963 92.3033C206.963 92.9362 207.476 93.4493 208.109 93.4493H214.221C214.854 93.4493 215.367 92.9362 215.367 92.3033C215.367 91.6704 214.854 91.1573 214.221 91.1573Z" fill="white"/>
<path d="M234.849 91.1573H231.029C230.396 91.1573 229.883 91.6704 229.883 92.3033C229.883 92.9362 230.396 93.4493 231.029 93.4493H234.849C235.482 93.4493 235.995 92.9362 235.995 92.3033C235.995 91.6704 235.482 91.1573 234.849 91.1573Z" fill="white"/>
<path d="M257.769 91.1572H253.949C253.316 91.1572 252.803 91.6703 252.803 92.3032C252.803 92.9361 253.316 93.4492 253.949 93.4492H257.769C258.402 93.4492 258.915 92.9361 258.915 92.3032C258.915 91.6703 258.402 91.1572 257.769 91.1572Z" fill="white"/>
<path opacity="0.15" fill-rule="evenodd" clip-rule="evenodd" d="M112.531 99.5615C108.734 99.5615 105.655 102.64 105.655 106.437V135.007C105.655 150.452 118.176 162.972 133.621 162.972C149.066 162.972 161.586 150.452 161.586 135.007V106.437C161.586 102.64 158.508 99.5615 154.71 99.5615H112.531Z" fill="#4C4C4C"/>
<path d="M106.42 99.5616C106.42 96.1863 109.157 93.4497 112.532 93.4497H154.711C158.086 93.4497 160.823 96.1863 160.823 99.5616V128.132C160.823 143.155 148.644 155.333 133.622 155.333C118.599 155.333 106.42 143.155 106.42 128.132V99.5616Z" fill="url(#paint0_linear_1_1460)" stroke="#4C4C4C" stroke-width="2"/>
<path fill-rule="evenodd" clip-rule="evenodd" d="M155.382 119.631C155.946 119.631 156.402 120.087 156.402 120.651V128.131C156.402 140.371 146.749 150.356 134.641 150.89C134.079 150.915 133.621 150.456 133.621 149.892C133.621 149.329 134.078 148.875 134.641 148.848C145.622 148.316 154.362 139.244 154.362 128.131V120.651C154.362 120.087 154.819 119.631 155.382 119.631Z" fill="white"/>
<path opacity="0.8" fill-rule="evenodd" clip-rule="evenodd" d="M110.714 101.182C110.714 99.2833 112.253 97.7438 114.152 97.7438H128.861C129.493 97.7438 130.007 98.2572 130.007 98.8898C130.007 99.5232 129.493 100.036 128.861 100.036H114.152C113.519 100.036 113.006 100.549 113.006 101.182V109.091C113.006 109.723 112.492 110.237 111.86 110.237C111.227 110.237 110.714 109.723 110.714 109.091V101.182ZM133.835 98.8898C133.835 98.2572 134.348 97.7438 134.981 97.7438H138.381C139.014 97.7438 139.527 98.2572 139.527 98.8898C139.527 99.5232 139.014 100.036 138.381 100.036H134.981C134.348 100.036 133.835 99.5232 133.835 98.8898ZM141.995 98.8898C141.995 98.2572 142.509 97.7438 143.141 97.7438H146.202C146.834 97.7438 147.348 98.2572 147.348 98.8898C147.348 99.5232 146.834 100.036 146.202 100.036H143.141C142.509 100.036 141.995 99.5232 141.995 98.8898ZM111.86 114.065C112.492 114.065 113.006 114.578 113.006 115.211V118.271C113.006 118.904 112.492 119.417 111.86 119.417C111.227 119.417 110.714 118.904 110.714 118.271V115.211C110.714 114.578 111.227 114.065 111.86 114.065Z" fill="white"/>
<path d="M123.516 117.89C123.516 116.671 123.772 115.509 124.239 114.445C125.711 111.089 129.271 108.722 133.428 108.722C136.513 108.722 139.27 110.026 141.087 112.071" stroke="white" stroke-width="3" stroke-linecap="round"/>
<path d="M133.621 124.773C136.996 124.773 139.733 122.036 139.733 118.661C139.733 115.285 136.996 112.549 133.621 112.549C130.245 112.549 127.509 115.285 127.509 118.661C127.509 122.036 130.245 124.773 133.621 124.773Z" fill="white"/>
<path fill-rule="evenodd" clip-rule="evenodd" d="M138.914 121.718C139.435 120.819 139.733 119.775 139.733 118.661C139.733 115.286 136.996 112.549 133.621 112.549C130.245 112.549 127.509 115.286 127.509 118.661C127.509 119.775 127.806 120.819 128.327 121.718C128.291 121.469 128.273 121.213 128.273 120.953C128.273 117.999 130.667 115.605 133.621 115.605C136.574 115.605 138.969 117.999 138.969 120.953C138.969 121.213 138.95 121.469 138.914 121.718Z" fill="white"/>
<path d="M130.565 123.245H136.677L138.964 131.822C139.352 133.277 138.256 134.704 136.75 134.704H130.492C128.986 134.704 127.89 133.277 128.278 131.822L130.565 123.245Z" fill="white"/>
<defs>
<linearGradient id="paint0_linear_1_1460" x1="133.621" y1="93.4497" x2="133.621" y2="155.333" gradientUnits="userSpaceOnUse">
<stop stop-color="#7E60FA"/>
<stop offset="0.555208" stop-color="#461FE9"/>
</linearGradient>
</defs>
</svg>
