<svg width="45" height="50" viewBox="0 0 45 50" fill="none" xmlns="http://www.w3.org/2000/svg">
<path d="M5.95177 48.0597C5.80162 48.0605 5.65158 48.0518 5.50252 48.0338C5.39113 48.0338 5.27606 48.0115 5.16467 47.993C4.94486 47.9572 4.72775 47.9064 4.51491 47.8409L4.20299 47.7298C4.06449 47.679 3.92939 47.6196 3.79834 47.5519C3.40976 47.3602 3.05286 47.1102 2.74011 46.8105C2.45667 46.5443 2.21511 46.2368 2.02354 45.8987C1.96414 45.7874 1.90475 45.6762 1.85277 45.5613C1.82456 45.5065 1.8009 45.4495 1.78215 45.3908C1.75785 45.334 1.7368 45.2758 1.71906 45.2166C1.59727 44.8585 1.5358 44.4827 1.53713 44.1046V7.81543" stroke="#1B2935" stroke-width="2" stroke-linecap="round" stroke-linejoin="round"/>
<path d="M16.92 48.0528H5.95568C5.79974 48.0528 5.65123 48.0528 5.50271 48.0528C5.05716 48.007 4.61924 47.9048 4.19946 47.7488C4.06208 47.6931 3.9322 47.6339 3.80224 47.5672C3.41032 47.3792 3.05163 47.1288 2.7403 46.8258C2.45685 46.5596 2.21529 46.2522 2.02374 45.9139C1.95755 45.8072 1.89924 45.6956 1.84924 45.5803C1.79809 45.4597 1.75465 45.3359 1.71925 45.2097C1.60015 44.851 1.53997 44.4755 1.54103 44.0977" stroke="#1B2935" stroke-width="2" stroke-linecap="round" stroke-linejoin="round"/>
<path d="M27.7129 19.251V17.3309V16.4857V13.5499V11.1221V7.81934" stroke="#1B2935" stroke-width="2" stroke-linecap="round" stroke-linejoin="round"/>
<path d="M12.3271 48.0564H23.2951" stroke="#1B2935" stroke-width="2" stroke-linecap="round" stroke-linejoin="round"/>
<path d="M24.0078 1.53662H5.25004C4.26531 1.53662 3.32091 1.92716 2.62461 2.62232C1.9283 3.31746 1.53711 4.26029 1.53711 5.24338V7.83811H27.7133V5.24338C27.7133 4.26157 27.3232 3.31984 26.6285 2.6249C25.9338 1.92995 24.9912 1.53859 24.0078 1.53662V1.53662Z" stroke="#1B2935" stroke-width="2" stroke-linecap="round" stroke-linejoin="round"/>
<path d="M12.3271 4.67969H16.92" stroke="#1B2935" stroke-width="2" stroke-linecap="round" stroke-linejoin="round"/>
<path d="M15.9544 41.3623H1.53711" stroke="#1B2935" stroke-width="2" stroke-linecap="round" stroke-linejoin="round"/>
<path d="M41.2673 36.7604C42.7973 30.3836 38.8595 23.976 32.4721 22.4487C26.0847 20.9213 19.6664 24.8524 18.1365 31.2292C16.6066 37.6059 20.5443 44.0135 26.9317 45.5409C33.3191 47.0683 39.7374 43.1371 41.2673 36.7604Z" stroke="#3A10E5" stroke-width="1.7" stroke-linecap="round" stroke-linejoin="round"/>
<path d="M29.7034 41.6504V45.8724" stroke="#3A10E5" stroke-width="1.7" stroke-linecap="round" stroke-linejoin="round"/>
<path d="M29.7034 22.1277V26.2014" stroke="#3A10E5" stroke-width="1.7" stroke-linecap="round" stroke-linejoin="round"/>
<path d="M36.1193 34.0007H41.5996" stroke="#3A10E5" stroke-width="1.7" stroke-linecap="round" stroke-linejoin="round"/>
<path d="M17.8105 34.0005H23.2982" stroke="#3A10E5" stroke-width="1.7" stroke-linecap="round" stroke-linejoin="round"/>
<path d="M21.91 25.0374C26.9918 26.5902 32.4226 26.5902 37.5043 25.0374" stroke="#3A10E5" stroke-width="1.7" stroke-linecap="round" stroke-linejoin="round"/>
<path d="M37.4748 42.9816C32.4453 41.2066 26.9582 41.2066 21.9287 42.9816" stroke="#3A10E5" stroke-width="1.7" stroke-linecap="round" stroke-linejoin="round"/>
<path d="M26.9038 22.4609C24.5563 25.8525 23.2988 29.8774 23.2988 34.0001C23.2988 38.1226 24.5563 42.1475 26.9038 45.5392" stroke="#3A10E5" stroke-width="1.7" stroke-linecap="round" stroke-linejoin="round"/>
<path d="M32.5107 22.4609C34.8583 25.8525 36.1157 29.8774 36.1157 34.0001C36.1157 38.1226 34.8583 42.1475 32.5107 45.5392" stroke="#3A10E5" stroke-width="1.7" stroke-linecap="round" stroke-linejoin="round"/>
<path d="M29.7814 26.2007V41.6505" stroke="#3A10E5" stroke-width="1.7" stroke-linecap="round" stroke-linejoin="round"/>
<path d="M23.2949 34.0227H36.1156" stroke="#3A10E5" stroke-width="1.7" stroke-linecap="round" stroke-linejoin="round"/>
<path d="M11.1864 20.0373V21.6836H6.08984C6.14451 21.0612 6.31062 20.4703 6.58815 19.9111C6.86989 19.3476 7.41446 18.6097 8.22184 17.6971C8.86102 16.9697 9.2542 16.4776 9.40137 16.2211C9.62004 15.8469 9.72937 15.4705 9.72937 15.092C9.72937 14.6884 9.63896 14.3835 9.45814 14.1774C9.27732 13.9714 9.03974 13.8684 8.74537 13.8684C8.10199 13.8684 7.75507 14.3499 7.70461 15.3128L6.26016 15.1362C6.34846 14.1943 6.60918 13.5025 7.0423 13.061C7.47964 12.6195 8.05994 12.3987 8.78323 12.3987C9.57799 12.3987 10.1772 12.6573 10.5809 13.1746C10.9846 13.6917 11.1864 14.2847 11.1864 14.9533C11.1864 15.3317 11.1339 15.6997 11.0288 16.0571C10.9278 16.4103 10.7702 16.7678 10.5556 17.1295C10.3412 17.4869 9.98378 17.9453 9.48337 18.5045C9.01661 19.0302 8.72015 19.3771 8.59399 19.5452C8.47204 19.7135 8.37323 19.8775 8.29753 20.0373H11.1864ZM15.0152 21.6836V19.8228H11.9118V18.2711L15.1981 12.3987H16.4218V18.2649H17.3616V19.8228H16.4218V21.6836H15.0152ZM15.0152 18.2649V15.1047L13.2743 18.2649H15.0152ZM19.8216 12.4365V15.8363C20.0529 15.5 20.3073 15.2498 20.5849 15.0857C20.8666 14.9175 21.1715 14.8335 21.4995 14.8335C21.9368 14.8335 22.3027 14.9491 22.597 15.1803C22.8913 15.4116 23.1016 15.7397 23.2278 16.1644C23.3203 16.4755 23.3665 17.0053 23.3665 17.7539V21.6836H21.9157V18.145C21.9157 17.325 21.8632 16.8119 21.7581 16.6059C21.6109 16.3284 21.3607 16.1896 21.0075 16.1896C20.6332 16.1896 20.3409 16.3409 20.1307 16.6438C19.9247 16.9423 19.8216 17.5037 19.8216 18.3279V21.6836H18.3646V12.4365H19.8216Z" fill="#1B2935"/>
</svg>
