<svg width="60" height="60" viewBox="0 0 60 60" fill="none" xmlns="http://www.w3.org/2000/svg">
<circle cx="30" cy="30" r="29.5" stroke="#3A10E5"/>
<g clip-path="url(#clip0_948_15040)">
<path d="M37.5411 28.7966C37.4709 28.7852 37.3999 28.78 37.3289 28.7809H25.235L25.4987 28.6582C25.7564 28.5362 25.9909 28.3702 26.1917 28.1676L29.5831 24.7761C30.0298 24.3498 30.1048 23.6638 29.761 23.1509C29.3608 22.6044 28.5933 22.4857 28.0467 22.8859C28.0025 22.9183 27.9606 22.9535 27.9211 22.9915L21.7883 29.1243C21.309 29.6031 21.3086 30.3797 21.7874 30.8589C21.7877 30.8592 21.788 30.8596 21.7883 30.8599L27.9211 36.9927C28.4008 37.471 29.1774 37.47 29.6558 36.9903C29.6934 36.9525 29.7285 36.9124 29.761 36.8701C30.1048 36.3572 30.0298 35.6712 29.5831 35.2449L26.1978 31.8473C26.0179 31.6671 25.811 31.5161 25.5845 31.3996L25.2166 31.234H37.2614C37.888 31.2573 38.4377 30.8196 38.5554 30.2037C38.6639 29.535 38.2097 28.9051 37.5411 28.7966Z" fill="#3A10E5"/>
</g>
<defs>
<clipPath id="clip0_948_15040">
<rect width="17.1429" height="17.1429" fill="white" transform="translate(21.4286 21.4285)"/>
</clipPath>
</defs>     
</svg>
