<svg width="37" height="32" viewBox="0 0 37 32" fill="none" xmlns="http://www.w3.org/2000/svg">
<path d="M15.995 32C13.4639 31.9992 10.969 31.3979 8.71538 30.2455C6.46177 29.0931 4.51372 27.4224 3.03128 25.3708C1.54883 23.3192 0.574289 20.9451 0.187709 18.4436C-0.198871 15.9422 0.0135437 13.3847 0.807502 10.9812C1.60146 8.57782 2.95431 6.39705 4.7549 4.6181C6.5555 2.83914 8.75246 1.51277 11.1653 0.747927C13.5782 -0.016912 16.138 -0.198386 18.6347 0.218412C21.1313 0.635211 23.4934 1.63839 25.5269 3.14553C25.7991 3.36669 25.9754 3.68432 26.0192 4.03226C26.063 4.3802 25.9709 4.73162 25.762 5.01333C25.5532 5.29503 25.2437 5.48529 24.898 5.54448C24.5524 5.60367 24.1972 5.52722 23.9065 5.33106C21.5063 3.54905 18.5751 2.62878 15.5871 2.71906C12.599 2.80933 9.72875 3.90489 7.44048 5.82856C5.15221 7.75222 3.57972 10.3915 2.97732 13.3196C2.37491 16.2477 2.7778 19.2934 4.12085 21.9642C5.46389 24.6349 7.66856 26.7746 10.3783 28.0371C13.088 29.2996 16.1444 29.6111 19.0532 28.9214C21.962 28.2316 24.553 26.5808 26.4073 24.236C28.2616 21.8912 29.2708 18.9894 29.2716 16C29.2697 15.2999 29.2128 14.601 29.1014 13.9098C29.0737 13.731 29.0815 13.5484 29.1243 13.3726C29.1671 13.1968 29.2442 13.0311 29.351 12.8851C29.4578 12.7391 29.5924 12.6155 29.747 12.5214C29.9016 12.4274 30.0732 12.3647 30.252 12.337C30.4309 12.3093 30.6134 12.3171 30.7892 12.3599C30.965 12.4027 31.1307 12.4798 31.2767 12.5866C31.4228 12.6935 31.5464 12.828 31.6404 12.9826C31.7344 13.1372 31.7971 13.3088 31.8248 13.4877C31.9465 14.3194 32.0034 15.1594 31.995 16C31.9914 20.2424 30.3046 24.3099 27.3048 27.3097C24.305 30.3095 20.2374 31.9964 15.995 32Z" fill="#2AB930"/>
<path d="M17.6969 21.1065C17.3364 21.105 16.9911 20.9606 16.7369 20.7048L10.2688 14.2368C10.0458 13.9763 9.92918 13.6412 9.94242 13.2985C9.95566 12.9558 10.0977 12.6307 10.3402 12.3882C10.5828 12.1456 10.9078 12.0036 11.2506 11.9903C11.5933 11.9771 11.9283 12.0937 12.1888 12.3168L17.6969 17.818L34.0986 1.42313C34.3591 1.20005 34.6942 1.08348 35.0369 1.09672C35.3796 1.10996 35.7047 1.25203 35.9472 1.49454C36.1897 1.73705 36.3318 2.06214 36.345 2.40485C36.3583 2.74756 36.2417 3.08264 36.0186 3.34313L18.6569 20.7048C18.4027 20.9606 18.0575 21.105 17.6969 21.1065Z" fill="#FFB300"/>
</svg>
