<svg width="29" height="21" viewBox="0 0 29 21" fill="none" xmlns="http://www.w3.org/2000/svg">
<g clip-path="url(#clip0_948_11177)">
<path d="M0.9 20.0691C0.402944 20.0691 0 19.6662 0 19.1691V0.9C0 0.402944 0.402944 0 0.9 0H27.45C27.9471 0 28.35 0.402944 28.35 0.9V19.1691C28.35 19.6662 27.9471 20.0691 27.45 20.0691H0.9ZM26.55 18.2691V1.8H1.8V18.2691H26.55Z" fill="#3A10E5"/>
<path d="M11.0163 7.10926C11.0163 5.94051 10.0694 4.99336 8.90133 4.99336C7.73329 4.99336 6.78633 5.94051 6.78633 7.10926C6.78633 8.2772 7.73338 9.22426 8.90133 9.22426C10.0693 9.22426 11.0163 8.2772 11.0163 7.10926ZM12.8163 7.10926C12.8163 9.27132 11.0634 11.0243 8.90133 11.0243C6.73927 11.0243 4.98633 9.27132 4.98633 7.10926C4.98633 4.94648 6.73909 3.19336 8.90133 3.19336C11.0636 3.19336 12.8163 4.94648 12.8163 7.10926Z" fill="#3A10E5"/>
<path d="M8.9017 9.22386C12.2529 9.22386 14.1775 11.5447 14.1775 14.6464C14.1775 15.1434 13.7746 15.5464 13.2775 15.5464H4.525C4.02794 15.5464 3.625 15.1434 3.625 14.6464C3.625 11.5446 5.54981 9.22386 8.9017 9.22386ZM8.9017 11.0239C6.95694 11.0239 5.79693 12.0816 5.50076 13.7464H12.3017C12.0056 12.0817 10.8458 11.0239 8.9017 11.0239ZM16.8778 15.5467H23.8258C24.3228 15.5467 24.7258 15.1438 24.7258 14.6467C24.7258 14.1497 24.3228 13.7467 23.8258 13.7467H16.8778C16.3807 13.7467 15.9778 14.1497 15.9778 14.6467C15.9778 15.1438 16.3807 15.5467 16.8778 15.5467ZM16.8778 10.8472H23.8258C24.3228 10.8472 24.7258 10.4442 24.7258 9.94719C24.7258 9.45013 24.3228 9.04719 23.8258 9.04719H16.8778C16.3807 9.04719 15.9778 9.45013 15.9778 9.94719C15.9778 10.4442 16.3807 10.8472 16.8778 10.8472ZM16.8778 6.14766H20.3518C20.8488 6.14766 21.2518 5.74471 21.2518 5.24766C21.2518 4.7506 20.8488 4.34766 20.3518 4.34766H16.8778C16.3807 4.34766 15.9778 4.7506 15.9778 5.24766C15.9778 5.74471 16.3807 6.14766 16.8778 6.14766Z" fill="#3A10E5"/>
</g>
<defs>
<clipPath id="clip0_948_11177">
<rect width="29" height="21" fill="white"/>
</clipPath>
</defs>
</svg>
