<svg width="20" height="20" viewBox="0 0 20 20" fill="none" xmlns="http://www.w3.org/2000/svg">
<rect width="20" height="20" fill="#F5F5F5"/>
<g id="Admin part">
<g id="1. Tests page">
<rect width="1440" height="1024" transform="translate(-1134 -301)" fill="#D7E1F8"/>
<g id="Group 1634">
<g id="Rectangle 233" filter="url(#filter0_d_0_1)">
<rect x="-944" y="-139" width="1060" height="314" rx="20" fill="white"/>
</g>
<g id="Component 139">
<g id="Frame 1095">
<g id="Rectangle 302" filter="url(#filter1_dd_0_1)">
<rect x="-864" y="-22" width="900" height="66" rx="8" fill="white"/>
</g>
</g>
<g id="Group 1422">
<g id="trash">
<path id="Vector" d="M2.5 5H4.16667H17.5" stroke="#9A9A9A" stroke-width="2" stroke-linecap="round" stroke-linejoin="round"/>
<path id="Vector_2" d="M6.66699 4.99984V3.33317C6.66699 2.89114 6.84259 2.46722 7.15515 2.15466C7.46771 1.8421 7.89163 1.6665 8.33366 1.6665H11.667C12.109 1.6665 12.5329 1.8421 12.8455 2.15466C13.1581 2.46722 13.3337 2.89114 13.3337 3.33317V4.99984M15.8337 4.99984V16.6665C15.8337 17.1085 15.6581 17.5325 15.3455 17.845C15.0329 18.1576 14.609 18.3332 14.167 18.3332H5.83366C5.39163 18.3332 4.96771 18.1576 4.65515 17.845C4.34259 17.5325 4.16699 17.1085 4.16699 16.6665V4.99984H15.8337Z" stroke="#9A9A9A" stroke-width="2" stroke-linecap="round" stroke-linejoin="round"/>
</g>
</g>
</g>
</g>
</g>
</g>
<defs>
<filter id="filter0_d_0_1" x="-983" y="-174" width="1138" height="392" filterUnits="userSpaceOnUse" color-interpolation-filters="sRGB">
<feFlood flood-opacity="0" result="BackgroundImageFix"/>
<feColorMatrix in="SourceAlpha" type="matrix" values="0 0 0 0 0 0 0 0 0 0 0 0 0 0 0 0 0 0 127 0" result="hardAlpha"/>
<feOffset dy="4"/>
<feGaussianBlur stdDeviation="19.5"/>
<feComposite in2="hardAlpha" operator="out"/>
<feColorMatrix type="matrix" values="0 0 0 0 0.768627 0 0 0 0 0.768627 0 0 0 0 0.768627 0 0 0 0.6 0"/>
<feBlend mode="normal" in2="BackgroundImageFix" result="effect1_dropShadow_0_1"/>
<feBlend mode="normal" in="SourceGraphic" in2="effect1_dropShadow_0_1" result="shape"/>
</filter>
<filter id="filter1_dd_0_1" x="-874" y="-36" width="920" height="94" filterUnits="userSpaceOnUse" color-interpolation-filters="sRGB">
<feFlood flood-opacity="0" result="BackgroundImageFix"/>
<feColorMatrix in="SourceAlpha" type="matrix" values="0 0 0 0 0 0 0 0 0 0 0 0 0 0 0 0 0 0 127 0" result="hardAlpha"/>
<feOffset dy="4"/>
<feGaussianBlur stdDeviation="5"/>
<feComposite in2="hardAlpha" operator="out"/>
<feColorMatrix type="matrix" values="0 0 0 0 0 0 0 0 0 0 0 0 0 0 0 0 0 0 0.06 0"/>
<feBlend mode="normal" in2="BackgroundImageFix" result="effect1_dropShadow_0_1"/>
<feColorMatrix in="SourceAlpha" type="matrix" values="0 0 0 0 0 0 0 0 0 0 0 0 0 0 0 0 0 0 127 0" result="hardAlpha"/>
<feOffset dy="-4"/>
<feGaussianBlur stdDeviation="5"/>
<feComposite in2="hardAlpha" operator="out"/>
<feColorMatrix type="matrix" values="0 0 0 0 0 0 0 0 0 0 0 0 0 0 0 0 0 0 0.06 0"/>
<feBlend mode="normal" in2="effect1_dropShadow_0_1" result="effect2_dropShadow_0_1"/>
<feBlend mode="normal" in="SourceGraphic" in2="effect2_dropShadow_0_1" result="shape"/>
</filter>
</defs>
</svg>
