<svg width="15" height="27" viewBox="0 0 15 27" fill="none" xmlns="http://www.w3.org/2000/svg">
<path d="M1.07558 22.9644C2.24774 23.6614 4.05351 24.4217 6.30279 24.5167V25.7206C6.30279 26.4175 6.74631 26.8294 7.34823 26.8294C7.95015 26.8294 8.39367 26.4175 8.39367 25.7206V24.4217C12.1002 23.8831 14.3812 21.2854 14.3812 17.5788C14.3812 14.189 12.3537 11.8764 8.39367 11.3062V6.20568C9.15399 6.3324 9.81926 6.58584 10.4845 6.90264C10.7697 7.02936 11.1498 7.1244 11.4666 7.1244C12.5437 7.1244 13.3357 6.20568 13.3357 5.19192C13.3357 4.49496 12.9239 3.86136 12.2586 3.4812C11.1815 2.87928 9.88263 2.46744 8.39367 2.34072V1.13688C8.39367 0.439918 7.95015 0.0280762 7.34823 0.0280762C6.74631 0.0280762 6.30279 0.439918 6.30279 1.13688V2.3724C2.75463 2.81592 0.346954 5.47704 0.346954 9.05688C0.346954 12.415 2.59623 14.7276 6.30279 15.2662V20.6834C5.35239 20.5567 4.27526 20.1766 3.32486 19.6063C2.9447 19.3846 2.46951 19.2578 2.08935 19.2578C0.885511 19.2578 0.0935059 20.1766 0.0935059 21.2537C0.0935059 21.919 0.378623 22.5526 1.07558 22.9644ZM6.30279 10.8943C5.13063 10.4508 4.71878 9.69048 4.71878 8.67672C4.71878 7.56792 5.28903 6.71256 6.30279 6.3324V10.8943ZM8.39367 20.4617V15.7097C9.59751 16.1532 10.0094 16.8818 10.0094 17.8956C10.0094 19.1945 9.43911 20.0815 8.39367 20.4617Z" fill="#4C4C4C"/>
</svg>
