<svg width="254" height="170" viewBox="0 0 254 170" fill="none" xmlns="http://www.w3.org/2000/svg">
<g opacity="0.8">
<path fill-rule="evenodd" clip-rule="evenodd" d="M108.22 2.89538C153.538 -6.01491 197.498 23.501 206.409 68.8191C215.318 114.136 185.803 158.096 140.486 167.006C95.167 175.915 51.2069 146.401 42.2977 101.083C33.3875 55.7645 62.9035 11.8057 108.22 2.89538Z" fill="#F9F9F9"/>
<path fill-rule="evenodd" clip-rule="evenodd" d="M167.133 42.4491C166.083 42.656 164.955 42.462 163.997 41.8177C162.078 40.5303 161.569 37.9339 162.856 36.0161L166.152 31.1064C167.439 29.1887 170.036 28.6784 171.954 29.9659C173.871 31.2544 174.382 33.8507 173.094 35.7685L169.798 40.6771C169.155 41.6365 168.183 42.2433 167.133 42.4491ZM127.589 25.2356C125.469 25.4436 124.61 28.0721 126.194 29.4936L132.435 35.0947C133.542 36.0894 133.712 37.7639 132.827 38.9591L131.777 40.3731C131.143 41.2285 130.091 41.6649 129.04 41.5094L124.735 40.8737C123.98 40.7612 123.209 40.9552 122.594 41.4108L101.228 58.6761L98.9435 67.55C98.529 69.1612 97.2275 70.3093 95.6963 70.6094C95.1041 70.7273 94.4766 70.7166 93.851 70.5568C91.614 69.9812 90.2694 67.7 90.844 65.4628L91.5823 62.592L89.8118 62.3305C85.0923 61.6315 80.6703 64.9236 79.9857 69.6446C79.712 71.5238 80.7786 73.3387 82.5518 74.0151L102.804 81.7408C102.804 81.7408 111.642 85.3195 113.542 87.5961L120.82 97.3975C121.732 98.626 123.094 99.4418 124.608 99.6644L125.894 99.8545C128.164 100.191 130.206 101.413 131.576 103.256L132.65 104.702C134.461 107.143 134.859 110.354 133.699 113.163L130.931 119.868C130.293 121.411 128.688 122.321 127.037 122.077L125.245 121.812C123.695 121.584 122.175 122.371 121.468 123.768L118.506 130.475C117.666 132.378 116.168 133.915 114.287 134.804L107.802 137.867L106.219 148.577C105.932 150.528 104.095 151.862 102.151 151.531L102.128 151.528C100.762 151.297 99.659 150.283 99.3105 148.941L96.6687 138.755C95.6998 135.016 95.4904 131.121 96.0554 127.3L97.4713 117.71C97.8074 115.445 97.0568 113.157 95.4455 111.529L87.7693 103.779C86.158 102.152 85.4056 99.8624 85.7409 97.5991L86.803 90.4033L89.2697 85.5307L76.0926 80.5027C70.7052 78.4477 66.7566 73.7621 65.6434 68.1031L64.3164 61.3507L63.3352 61.207C60.2386 60.7493 57.7827 58.3609 57.2371 55.2779L54.2891 39.3826C61.1766 28.8022 70.3268 20.0472 80.9308 13.5918L84.391 18.1488C85.3414 19.4265 87.1462 19.6935 88.4266 18.7438L90.5316 17.1808C92.9877 15.3573 96.0677 14.5834 99.094 15.0304L99.5674 15.1012C101.212 15.3434 102.339 16.8827 102.077 18.5229L101.688 20.9563C101.359 23.0059 103.505 24.5549 105.347 23.5998L115.444 18.3632C116.338 17.899 117.356 17.7286 118.352 17.8765L137.532 20.7098L137.002 24.3073L127.589 25.2356ZM206.336 101.448C202.777 119.13 193.837 134.323 181.623 145.8C178.89 144.598 175.901 142.135 175.223 139.561L172.294 128.476C171.496 125.455 171.321 122.303 171.777 119.212L173.192 109.632C173.891 104.906 170.625 100.507 165.898 99.8096L165.685 99.7779C162.12 99.2499 158.822 97.5823 156.286 95.0215L155.907 94.6379C152.218 90.9137 150.497 85.6698 151.264 80.482C151.573 78.3863 152.28 76.3688 153.345 74.5368L156.599 68.9507C158.379 65.8935 161.84 64.2265 165.34 64.7443L171.921 65.7166C175.023 66.1754 177.943 67.4693 180.367 69.4578L185.572 73.7275C188.069 75.7771 191.525 76.2037 194.447 74.823L196.696 73.7618C198.239 73.0317 199.966 72.7756 201.655 73.0253L207.157 73.7264C208.376 82.7218 208.228 92.048 206.336 101.448ZM204.705 61.9479L180.045 56.3961L177.438 59.0139C176.209 60.906 173.99 61.9082 171.758 61.578L166.862 60.8545C163.711 60.3892 161.535 57.4573 161.999 54.3057L162.146 53.7965C162.529 51.2045 163.468 49.4207 166.072 49.1313L172.076 48.4645C173.284 48.2512 174.426 47.7581 175.412 47.0259C177.095 45.776 178.214 43.9075 178.52 41.8321L179.416 35.7723C179.557 34.8171 180.072 33.9596 180.844 33.3839L186.795 29.4604C195.073 38.7899 201.236 49.8688 204.705 61.9479Z" fill="#E8E8E8"/>
<path fill-rule="evenodd" clip-rule="evenodd" d="M167.133 42.4491C166.083 42.656 164.955 42.462 163.997 41.8177C162.078 40.5303 161.569 37.9339 162.856 36.0161L166.152 31.1064C167.439 29.1887 170.036 28.6784 171.954 29.9659C173.871 31.2544 174.382 33.8507 173.094 35.7685L169.798 40.6771C169.155 41.6365 168.183 42.2433 167.133 42.4491ZM127.589 25.2356C125.469 25.4436 124.61 28.0721 126.194 29.4936L132.435 35.0947C133.542 36.0894 133.712 37.7639 132.827 38.9591L131.777 40.3731C131.143 41.2285 130.091 41.6649 129.04 41.5094L124.735 40.8737C123.98 40.7612 123.209 40.9552 122.594 41.4108L101.228 58.6761L98.9435 67.55C98.529 69.1612 97.2275 70.3092 95.6963 70.6094C95.1041 70.7273 94.4766 70.7166 93.851 70.5568C91.614 69.9812 90.2694 67.7 90.844 65.4628L91.5823 62.592L89.8118 62.3305C85.0923 61.6315 80.6703 64.9236 79.9857 69.6446C79.712 71.5238 80.7786 73.3387 82.5518 74.0151L102.804 81.7408C102.804 81.7408 111.642 85.3195 113.542 87.5961L120.82 97.3975C121.732 98.626 123.094 99.4418 124.608 99.6644L125.894 99.8545C128.164 100.191 130.206 101.413 131.576 103.256L132.65 104.702C134.461 107.143 134.859 110.354 133.699 113.163L130.931 119.868C130.293 121.411 128.688 122.321 127.037 122.077L125.245 121.812C123.695 121.584 122.175 122.371 121.468 123.768L118.506 130.475C117.666 132.378 116.168 133.915 114.287 134.804L107.802 137.867L106.219 148.577C105.932 150.528 104.095 151.862 102.151 151.531L102.128 151.528C100.762 151.297 99.659 150.284 99.3105 148.941L96.6687 138.755C95.6998 135.016 95.4904 131.121 96.0554 127.3L97.4713 117.71C97.8074 115.445 97.0568 113.157 95.4455 111.529L87.7693 103.779C86.158 102.152 85.4056 99.8624 85.7409 97.5991L86.803 90.4033L89.2697 85.5307L76.0926 80.5027C70.7052 78.4477 66.7566 73.7621 65.6434 68.1031L64.3164 61.3507L63.3352 61.207C60.2386 60.7493 57.7827 58.3609 57.2371 55.2779L54.2891 39.3826C61.1766 28.8022 70.3268 20.0472 80.9308 13.5918L84.391 18.1488C85.3414 19.4265 87.1462 19.6935 88.4266 18.7438L90.5316 17.1808C92.9877 15.3573 96.0677 14.5834 99.094 15.0304L99.5674 15.1012C101.212 15.3434 102.339 16.8827 102.077 18.5229L101.688 20.9563C101.359 23.0059 103.505 24.5549 105.347 23.5998L115.444 18.3632C116.338 17.899 117.356 17.7286 118.352 17.8765L137.532 20.7098L137.002 24.3073L127.589 25.2356ZM206.336 101.448C202.777 119.13 193.837 134.323 181.623 145.8C178.89 144.598 175.901 142.135 175.223 139.561L172.294 128.476C171.496 125.455 171.321 122.303 171.778 119.212L173.192 109.632C173.891 104.906 170.625 100.507 165.898 99.8096L165.685 99.7779C162.12 99.2499 158.822 97.5823 156.286 95.0215L155.907 94.6379C152.218 90.9137 150.497 85.6689 151.264 80.482C151.573 78.3863 152.28 76.3688 153.345 74.5368L156.599 68.9507C158.379 65.8935 161.84 64.2265 165.34 64.7443L171.921 65.7166C175.023 66.1754 177.943 67.4693 180.367 69.4578L185.572 73.7275C188.069 75.7771 191.525 76.2037 194.447 74.8231L196.696 73.7618C198.239 73.0317 199.966 72.7756 201.655 73.0253L207.157 73.7264C208.376 82.7218 208.228 92.048 206.336 101.448ZM204.705 61.9479L180.045 56.3961L177.438 59.0139C176.209 60.906 173.99 61.9082 171.758 61.578L166.862 60.8545C163.711 60.3892 161.535 57.4573 161.999 54.3057L162.146 53.7965C162.529 51.2045 163.468 49.4207 166.072 49.1313L172.076 48.4645C173.284 48.2512 174.426 47.7581 175.412 47.0259C177.095 45.7759 178.214 43.9075 178.52 41.8321L179.416 35.7723C179.557 34.8171 180.072 33.9596 180.844 33.3839L186.795 29.4604C195.073 38.7899 201.236 49.8688 204.705 61.9479Z" stroke="#D5D5D5" stroke-width="1.5"/>
<path d="M108.39 3.06727C153.708 -5.84306 197.668 23.6729 206.579 68.9909C215.488 114.308 185.973 158.267 140.656 167.178C95.337 176.087 51.3769 146.572 42.4677 101.256C33.5573 55.9363 63.0736 11.9775 108.39 3.06727Z" stroke="#4C4C4C" stroke-width="1.5"/>
</g>
<g opacity="0.16">
<path d="M47.3086 142.132C47.669 142.077 47.917 141.741 47.8625 141.38C47.8081 141.02 47.4717 140.772 47.1114 140.827L47.3086 142.132ZM216.896 88.1481L216.571 87.5735C216.254 87.753 216.142 88.1552 216.321 88.472C216.5 88.7897 216.901 88.9014 217.219 88.7237L216.896 88.1481ZM218.745 87.1027L219.071 87.6765C219.387 87.4969 219.498 87.0939 219.319 86.7771C219.139 86.4603 218.737 86.3494 218.42 86.5281L218.745 87.1027ZM222.443 85.0206L222.111 84.4495C221.799 84.6317 221.69 85.0294 221.867 85.3445C222.045 85.6586 222.441 85.7721 222.759 85.5997L222.443 85.0206ZM225.677 83.2589L226.013 83.8273C226.323 83.6443 226.428 83.2465 226.251 82.9333C226.074 82.62 225.678 82.5074 225.362 82.6798L225.677 83.2589ZM228.361 80.8832C228.049 81.0724 227.95 81.4784 228.139 81.79C228.328 82.1017 228.734 82.2011 229.045 82.0119L228.361 80.8832ZM36.2742 143.444C36.6373 143.412 36.9066 143.093 36.8756 142.73C36.8445 142.367 36.5249 142.097 36.1617 142.128L36.2742 143.444ZM41.1779 141.62C40.8158 141.663 40.5565 141.991 40.5987 142.353C40.6408 142.715 40.9685 142.974 41.3306 142.932L41.1779 141.62ZM2.14415 136.516C1.6642 134.984 1.93709 133.18 3.04245 131.09C4.14879 128.999 6.05848 126.684 8.73245 124.191C14.0778 119.206 22.3639 113.611 32.9906 107.755C54.2343 96.0505 84.7078 83.375 119.374 72.5142L118.979 71.2546C84.2555 82.1342 53.6953 94.8406 32.3536 106.6C21.6876 112.477 13.2932 118.133 7.83221 123.226C5.10289 125.771 3.07783 128.2 1.87566 130.474C0.672526 132.747 0.262974 134.927 0.884606 136.911L2.14415 136.516ZM119.374 72.5142C154.039 61.6531 186.298 54.6741 210.423 52.1646C222.491 50.9093 232.489 50.7762 239.722 51.8196C243.341 52.3416 246.23 53.1527 248.332 54.239C250.432 55.3244 251.686 56.6503 252.166 58.1824L253.426 57.7877C252.804 55.8038 251.224 54.2477 248.938 53.0663C246.654 51.886 243.604 51.0459 239.911 50.5131C232.521 49.4472 222.399 49.5917 210.286 50.8516C186.05 53.3727 153.703 60.3753 118.979 71.2546L119.374 72.5142ZM218.419 86.5289C217.808 86.8765 217.192 87.2241 216.572 87.5726L217.219 88.7237C217.84 88.3743 218.458 88.0249 219.071 87.6765L218.419 86.5289ZM217.221 88.7228L219.07 87.6773L218.42 86.5281L216.571 87.5735L217.221 88.7228ZM225.341 82.6904C225.051 82.862 224.415 83.2034 223.753 83.5572C223.105 83.903 222.435 84.2612 222.111 84.4495L222.775 85.5909C223.073 85.4175 223.713 85.0752 224.375 84.7214C225.022 84.3756 225.692 84.0165 226.013 83.8273L225.341 82.6904ZM222.759 85.5997L225.993 83.8388L225.362 82.6798L222.127 84.4407L222.759 85.5997ZM252.166 58.1824C252.533 59.3553 252.284 60.7566 251.343 62.4171C250.402 64.0762 248.815 65.9132 246.667 67.8941C242.37 71.8526 235.949 76.2751 228.361 80.8832L229.045 82.0119C236.654 77.3916 243.166 72.9146 247.561 68.8647C249.756 66.8414 251.455 64.897 252.491 63.0679C253.527 61.2402 253.945 59.4463 253.426 57.7877L252.166 58.1824ZM36.1617 142.128C27.101 142.904 18.9318 142.812 12.8254 141.826C9.7697 141.333 7.26496 140.621 5.43121 139.703C3.58823 138.782 2.51534 137.701 2.14415 136.516L0.884606 136.911C1.40926 138.585 2.84965 139.888 4.84074 140.884C6.84115 141.884 9.49145 142.625 12.615 143.129C18.8673 144.138 27.1541 144.224 36.2742 143.444L36.1617 142.128ZM47.1114 140.827C45.1124 141.129 43.1309 141.393 41.1779 141.62L41.3306 142.932C43.2987 142.703 45.295 142.436 47.3086 142.132L47.1114 140.827Z" fill="#4C4C4C"/>
<path d="M50.1288 94.9781C50.4905 94.9341 50.7478 94.6041 50.7032 94.2424C50.6588 93.8807 50.3295 93.6237 49.9677 93.6677L50.1288 94.9781ZM189.514 51.3738L189.176 50.807C188.863 50.9935 188.761 51.3982 188.947 51.7112C189.133 52.0241 189.537 52.1273 189.851 51.9416L189.514 51.3738ZM191.021 50.4751L191.361 51.0408C191.673 50.8534 191.774 50.4485 191.587 50.1361C191.4 49.8236 190.995 49.7217 190.682 49.9082L191.021 50.4751ZM194.034 48.6845L193.687 48.1226C193.381 48.3115 193.283 48.7117 193.467 49.0216C193.65 49.3314 194.049 49.4363 194.361 49.2572L194.034 48.6845ZM196.671 47.1743L197.022 47.7337C197.326 47.5429 197.422 47.1435 197.237 46.8351C197.053 46.5268 196.655 46.4229 196.343 46.6016L196.671 47.1743ZM198.776 45.0548C198.469 45.2524 198.381 45.6609 198.579 45.9673C198.777 46.2735 199.186 46.3615 199.492 46.1638L198.776 45.0548ZM40.9854 95.7701C41.3495 95.7525 41.6301 95.4427 41.6122 95.0793C41.5943 94.7149 41.2847 94.4342 40.9206 94.4518L40.9854 95.7701ZM45.0675 94.1755C44.7044 94.2054 44.4346 94.5249 44.4651 94.8883C44.4955 95.2517 44.8147 95.521 45.178 95.4911L45.0675 94.1755ZM216.547 30.1601C216.348 30.4654 216.435 30.8743 216.74 31.0734C217.045 31.2726 217.454 31.1865 217.653 30.8812L216.547 30.1601ZM212.481 36.5969C212.753 36.3539 212.775 35.9366 212.533 35.6649C212.29 35.3933 211.873 35.3701 211.601 35.6131L212.481 36.5969ZM12.5801 87.9363C12.1331 86.479 12.3152 84.8132 13.1673 82.9309C14.0217 81.0443 15.5338 78.9803 17.6769 76.7766C21.9628 72.3697 28.6739 67.5042 37.3301 62.4831C54.6331 52.4463 79.5778 41.8617 108.062 33.122L107.674 31.8601C79.1246 40.6203 54.0806 51.2407 36.6678 61.3413C27.9661 66.3888 21.1375 71.325 16.7307 75.8563C14.5274 78.1217 12.9048 80.3108 11.9648 82.387C11.0225 84.4673 10.7504 86.4729 11.3182 88.3235L12.5801 87.9363ZM108.062 33.122C136.545 24.3824 163.134 19.1545 183.089 17.7595C193.071 17.0615 201.357 17.3257 207.376 18.5704C210.386 19.1927 212.796 20.0535 214.562 21.1365C216.323 22.2165 217.408 23.4941 217.855 24.951L219.117 24.5638C218.549 22.7135 217.199 21.2056 215.252 20.0112C213.309 18.8198 210.738 17.9175 207.643 17.2777C201.453 15.9979 193.032 15.741 182.996 16.4426C162.915 17.8466 136.224 23.0999 107.674 31.8601L108.062 33.122ZM190.681 49.9092C190.183 50.208 189.683 50.507 189.177 50.8061L189.851 51.9416C190.357 51.6412 190.861 51.341 191.361 51.0408L190.681 49.9092ZM189.852 51.9406L191.359 51.0418L190.682 49.9082L189.176 50.807L189.852 51.9406ZM196.321 46.6148C196.089 46.7598 195.575 47.0492 195.033 47.3535C194.508 47.6486 193.956 47.9574 193.687 48.1226L194.38 49.2464C194.618 49.0994 195.138 48.8088 195.679 48.5046C196.204 48.2097 196.756 47.9 197.022 47.7337L196.321 46.6148ZM194.361 49.2572L196.999 47.747L196.343 46.6016L193.706 48.1117L194.361 49.2572ZM40.9206 94.4518C33.4247 94.8205 26.651 94.4193 21.5676 93.2717C19.0245 92.6971 16.9356 91.9429 15.397 91.0269C13.8554 90.109 12.927 89.0662 12.5801 87.9363L11.3182 88.3235C11.7966 89.8829 13.0237 91.1501 14.7217 92.1612C16.4228 93.1741 18.658 93.9678 21.2769 94.5592C26.5176 95.7419 33.4207 96.1423 40.9854 95.7701L40.9206 94.4518ZM49.9677 93.6677C48.3177 93.871 46.6814 94.04 45.0675 94.1755L45.178 95.4911C46.8088 95.3538 48.4621 95.1831 50.1288 94.9781L49.9677 93.6677ZM217.855 24.951C218.297 26.3898 217.879 28.1194 216.547 30.1601L217.653 30.8812C219.075 28.7004 219.726 26.5485 219.117 24.5638L217.855 24.951ZM211.601 35.6131C208.271 38.5918 203.85 41.7799 198.776 45.0548L199.492 46.1638C204.591 42.8725 209.078 39.6416 212.481 36.5969L211.601 35.6131Z" fill="#4C4C4C"/>
<path d="M174.172 12.7817C173.916 13.0404 173.916 13.4584 174.175 13.7151C174.434 13.9719 174.852 13.9704 175.109 13.7117L174.172 12.7817ZM39.3654 54.7544C39.7136 54.8621 40.0832 54.6671 40.1909 54.3189C40.2986 53.9706 40.1037 53.601 39.7554 53.4933L39.3654 54.7544ZM35.3595 50.4092C35.0711 49.4689 35.1844 48.3746 35.7622 47.1084C36.3423 45.8373 37.3741 44.4333 38.8507 42.9225C41.8034 39.9016 46.4357 36.5539 52.4253 33.09C64.3951 26.1677 81.6563 18.8551 101.368 12.8066L100.981 11.5447C81.2022 17.6135 63.8434 24.9618 51.7645 31.9473C45.7296 35.4374 40.9803 38.8553 37.9068 41.9999C36.3702 43.5719 35.2276 45.1005 34.5614 46.5603C33.8928 48.0253 33.6877 49.4604 34.0976 50.7965L35.3595 50.4092ZM101.368 12.8066C121.081 6.75821 139.473 3.1312 153.265 2.14883C160.167 1.65726 165.879 1.83081 170.019 2.67575C172.089 3.09829 173.73 3.68208 174.923 4.40905C176.112 5.1332 176.82 5.97571 177.108 6.91599L178.37 6.52879C177.96 5.19269 176.985 4.11962 175.61 3.28177C174.239 2.44682 172.436 1.82211 170.283 1.38242C165.974 0.502897 160.125 0.336885 153.171 0.832166C139.253 1.82351 120.76 5.47596 100.981 11.5447L101.368 12.8066ZM177.108 6.91599C177.325 7.62175 177.219 8.45907 176.724 9.46025C176.228 10.4648 175.367 11.578 174.172 12.7817L175.109 13.7117C176.354 12.4573 177.324 11.228 177.908 10.0447C178.494 8.85807 178.718 7.66241 178.37 6.52879L177.108 6.91599ZM39.7554 53.4933C37.162 52.6911 35.7262 51.6042 35.3595 50.4092L34.0976 50.7965C34.6738 52.6743 36.7189 53.9358 39.3654 54.7544L39.7554 53.4933Z" fill="#4C4C4C"/>
<path d="M199.312 135.051C199.413 135.401 199.779 135.603 200.129 135.502C200.48 135.401 200.681 135.035 200.58 134.684L199.312 135.051ZM104.448 170.654C104.811 170.632 105.089 170.32 105.067 169.956C105.046 169.592 104.734 169.314 104.369 169.336L104.448 170.654ZM89.8812 166.686C89.7175 166.119 89.8125 165.42 90.2842 164.555C90.7577 163.688 91.5787 162.712 92.7526 161.649C95.0987 159.525 98.7393 157.152 103.429 154.68C112.796 149.741 126.219 144.476 141.474 140.066L141.107 138.798C125.793 143.225 112.282 148.52 102.813 153.512C98.0837 156.005 94.3313 158.439 91.8664 160.671C90.6353 161.786 89.6964 162.875 89.1253 163.923C88.5533 164.973 88.3201 166.04 88.6131 167.053L89.8812 166.686ZM141.474 140.066C156.729 135.656 170.89 132.947 181.448 132.125C186.732 131.714 191.079 131.779 194.195 132.323C195.756 132.596 196.971 132.983 197.833 133.464C198.694 133.944 199.148 134.485 199.312 135.051L200.58 134.684C200.288 133.672 199.521 132.895 198.477 132.311C197.435 131.73 196.059 131.309 194.423 131.024C191.148 130.451 186.676 130.394 181.346 130.809C170.674 131.64 156.421 134.371 141.107 138.798L141.474 140.066ZM104.369 169.336C100.411 169.57 96.8657 169.429 94.2389 168.924C92.9233 168.671 91.8717 168.332 91.1211 167.926C90.3625 167.516 89.9964 167.086 89.8812 166.686L88.6131 167.053C88.8683 167.936 89.5864 168.597 90.4928 169.088C91.408 169.583 92.6048 169.954 93.9899 170.22C96.7637 170.753 100.428 170.891 104.448 170.654L104.369 169.336Z" fill="#4C4C4C"/>
<path d="M80.0432 161.847L80.0855 162.505C80.4489 162.482 80.7243 162.169 80.7023 161.806C80.6803 161.443 80.3679 161.167 80.0054 161.188L80.0432 161.847ZM77.5071 161.995L77.4683 161.336C77.1049 161.358 76.8277 161.668 76.8479 162.032C76.8682 162.394 77.1779 162.673 77.5414 162.654L77.5071 161.995ZM74.6523 162.123L74.677 162.782C75.0404 162.769 75.3247 162.464 75.3123 162.1C75.3 161.737 74.9955 161.452 74.6321 161.463L74.6523 162.123ZM72.7498 162.182L72.7287 161.522C72.3652 161.534 72.0792 161.837 72.0898 162.201C72.1003 162.564 72.4022 162.851 72.7656 162.842L72.7498 162.182ZM69.5774 162.884C69.9426 162.884 70.2374 162.588 70.2374 162.224C70.2365 161.859 69.9408 161.564 69.5765 161.564L69.5774 162.884ZM205.14 122.512L204.803 121.943C204.491 122.128 204.386 122.53 204.569 122.844C204.752 123.158 205.154 123.264 205.468 123.084L205.14 122.512ZM208.096 120.762L208.441 121.325C208.75 121.136 208.85 120.732 208.662 120.422C208.476 120.11 208.073 120.008 207.76 120.193L208.096 120.762ZM210.575 118.427C210.268 118.625 210.181 119.033 210.378 119.339C210.576 119.646 210.985 119.733 211.292 119.535L210.575 118.427ZM50.95 156.546C50.6414 155.561 50.8169 154.37 51.5891 152.945C52.3619 151.518 53.6987 149.923 55.5838 148.192C59.3512 144.733 65.1932 140.833 72.6935 136.736C87.686 128.55 109.184 119.653 133.629 111.994L133.235 110.734C108.732 118.411 87.1492 127.34 72.0616 135.578C64.5218 139.695 58.5732 143.656 54.691 147.22C52.7513 149.002 51.2985 150.71 50.4285 152.316C49.5578 153.923 49.2372 155.494 49.6904 156.941L50.95 156.546ZM133.629 111.994C158.075 104.335 180.807 99.3749 197.789 97.5427C206.286 96.6267 213.31 96.4964 218.377 97.1881C220.913 97.5339 222.921 98.0804 224.369 98.8108C225.817 99.5412 226.641 100.419 226.95 101.404L228.209 101.009C227.756 99.5632 226.596 98.4553 224.963 97.6325C223.333 96.8097 221.164 96.2359 218.555 95.8795C213.333 95.1676 206.188 95.3093 197.647 96.2307C180.556 98.0743 157.738 103.057 133.235 110.734L133.629 111.994ZM80.001 161.188C79.1377 161.243 78.2955 161.293 77.4719 161.336L77.5414 162.654C78.3695 162.611 79.2178 162.561 80.0855 162.505L80.001 161.188ZM80.0054 161.188L77.4683 161.336L77.5449 162.654L80.0819 162.505L80.0054 161.188ZM74.6286 161.463C73.9827 161.487 73.3508 161.507 72.7331 161.522L72.7656 162.842C73.3895 162.826 74.0267 162.807 74.677 162.782L74.6286 161.463ZM74.6321 161.463L72.7287 161.522L72.77 162.841L74.6735 162.782L74.6321 161.463ZM69.5765 161.564C63.6171 161.569 59.162 161.113 56.0751 160.224C52.9662 159.329 51.4212 158.05 50.95 156.546L49.6904 156.941C50.3646 159.093 52.4671 160.559 55.7098 161.492C58.9745 162.432 63.5758 162.889 69.5774 162.884L69.5765 161.564ZM207.753 120.197C206.792 120.784 205.81 121.365 204.811 121.939L205.468 123.084C206.477 122.504 207.469 121.917 208.441 121.325L207.753 120.197ZM205.476 123.079L208.433 121.329L207.76 120.193L204.803 121.943L205.476 123.079ZM226.95 101.404C227.177 102.13 227.03 103.106 226.383 104.355C225.741 105.592 224.657 107.003 223.181 108.534C220.231 111.594 215.812 115.039 210.575 118.427L211.292 119.535C216.574 116.118 221.084 112.61 224.131 109.45C225.652 107.872 226.832 106.357 227.555 104.962C228.271 103.579 228.587 102.217 228.209 101.009L226.95 101.404Z" fill="#4C4C4C"/>
</g>
<g opacity="0.85">
<path opacity="0.85" d="M183.238 164.281V155.469" stroke="#3785D7" stroke-width="1.5" stroke-linecap="round" stroke-linejoin="round"/>
<path opacity="0.85" d="M195.664 150.754H187.975" stroke="#3785D7" stroke-width="1.5" stroke-linecap="round" stroke-linejoin="round"/>
<path opacity="0.85" d="M188.532 156.075L186.228 153.713" stroke="#3785D7" stroke-width="1.5" stroke-linecap="round" stroke-linejoin="round"/>
<path opacity="0.85" d="M190.534 158.087L190.26 157.766" stroke="#3785D7" stroke-width="1.5" stroke-linecap="round" stroke-linejoin="round"/>
<path opacity="0.85" d="M192.793 160.357L192.674 160.201" stroke="#3785D7" stroke-width="1.5" stroke-linecap="round" stroke-linejoin="round"/>
<path opacity="0.85" d="M188.788 145.195L186.228 147.786" stroke="#3785D7" stroke-width="1.5" stroke-linecap="round" stroke-linejoin="round"/>
<path opacity="0.85" d="M191.595 142.355L190.645 143.32" stroke="#3785D7" stroke-width="1.5" stroke-linecap="round" stroke-linejoin="round"/>
<path opacity="0.85" d="M180.248 153.713L177.341 156.681" stroke="#3785D7" stroke-width="1.5" stroke-linecap="round" stroke-linejoin="round"/>
<path opacity="0.85" d="M175.156 158.832L173.922 160.119" stroke="#3785D7" stroke-width="1.5" stroke-linecap="round" stroke-linejoin="round"/>
</g>
<g opacity="0.85">
<path opacity="0.85" d="M69.5431 4.39941L68.4854 11.8711" stroke="#DDDDDD" stroke-width="1.64352" stroke-linecap="round" stroke-linejoin="round"/>
<path opacity="0.85" d="M57.3848 14.377L63.9046 15.2996" stroke="#DDDDDD" stroke-width="1.64352" stroke-linecap="round" stroke-linejoin="round"/>
<path opacity="0.85" d="M64.0693 10.7217L65.7396 13.0004" stroke="#DDDDDD" stroke-width="1.64352" stroke-linecap="round" stroke-linejoin="round"/>
<path opacity="0.85" d="M62.6133 8.77539L62.8069 9.08101" stroke="#DDDDDD" stroke-width="1.64352" stroke-linecap="round" stroke-linejoin="round"/>
<path opacity="0.85" d="M60.9697 6.5791L61.0522 6.72632" stroke="#DDDDDD" stroke-width="1.64352" stroke-linecap="round" stroke-linejoin="round"/>
<path opacity="0.85" d="M62.5479 19.9153L65.0286 18.0254" stroke="#DDDDDD" stroke-width="1.64352" stroke-linecap="round" stroke-linejoin="round"/>
<path opacity="0.85" d="M59.8262 21.9861L60.7481 21.2822" stroke="#DDDDDD" stroke-width="1.64352" stroke-linecap="round" stroke-linejoin="round"/>
<path opacity="0.85" d="M70.8086 13.7184L73.6299 11.5508" stroke="#DDDDDD" stroke-width="1.64352" stroke-linecap="round" stroke-linejoin="round"/>
<path opacity="0.85" d="M75.7412 9.98953L76.9424 9.04688" stroke="#DDDDDD" stroke-width="1.64352" stroke-linecap="round" stroke-linejoin="round"/>
</g>
<path opacity="0.12" fill-rule="evenodd" clip-rule="evenodd" d="M59.6552 137.962C51.1756 127.631 45.0564 115.114 42.2977 101.083C38.5246 81.8917 41.642 62.9447 49.9319 46.7998H198.794C202.268 53.5862 204.865 60.9649 206.408 68.8181C211.411 94.2635 204.299 119.282 189.077 137.907C175.304 134.613 153.247 130.84 124.48 130.84C95.5546 130.84 73.4129 134.655 59.6552 137.962Z" fill="#4C4C4C"/>
<path d="M215.12 37.1201H33.8398C29.9517 37.1201 26.7998 40.272 26.7998 44.1601V118.08C26.7998 121.968 29.9517 125.12 33.8398 125.12H215.12C219.008 125.12 222.16 121.968 222.16 118.08V44.1601C222.16 40.272 219.008 37.1201 215.12 37.1201Z" fill="white" fill-opacity="0.94" stroke="#3785D7" stroke-width="1.5"/>
<path opacity="0.3" d="M195.936 33.1602H200.374M206.144 33.1602H216.88C222.226 33.1602 226.56 37.4941 226.56 42.8402V46.6046M226.56 53.775V59.1527M226.56 63.1861V66.7712M226.56 112.482V120.28C226.56 125.626 222.226 129.96 216.88 129.96H209.251M204.369 129.96H200.374M47.2547 129.96H40.5973M35.2714 129.96H32.0804C26.7343 129.96 22.4004 125.626 22.4004 120.28V117.64M22.4004 108.001V110.16M22.4004 103.52V98.142M22.4004 88.7304V81.112M22.4004 64.5306V61.8416M22.4004 53.775V42.8402C22.4004 37.4941 26.7343 33.1602 32.0804 33.1602H40.5973" stroke="#3785D7" stroke-width="1.5" stroke-linecap="round"/>
</svg>
