<svg width="20" height="20" viewBox="0 0 20 20" fill="none" xmlns="http://www.w3.org/2000/svg">
<rect width="20" height="20" fill="#F5F5F5"/>
<g id="Admin part">
<g id="1. Tests page">
<rect width="1440" height="1024" transform="translate(-1092 -302)" fill="#D7E1F8"/>
<g id="Group 1634">
<g id="Rectangle 233" filter="url(#filter0_d_0_1)">
<rect x="-902" y="-140" width="1060" height="314" rx="20" fill="white"/>
</g>
<g id="Component 139">
<g id="Frame 1095">
<g id="Rectangle 302" filter="url(#filter1_dd_0_1)">
<rect x="-822" y="-23" width="900" height="66" rx="8" fill="white"/>
</g>
<g id="Group 1423">
<g id="edit" clip-path="url(#clip0_0_1)">
<path id="Vector" d="M9.16699 3.3335H3.33366C2.89163 3.3335 2.46771 3.50909 2.15515 3.82165C1.84259 4.13421 1.66699 4.55814 1.66699 5.00016V16.6668C1.66699 17.1089 1.84259 17.5328 2.15515 17.8453C2.46771 18.1579 2.89163 18.3335 3.33366 18.3335H15.0003C15.4424 18.3335 15.8663 18.1579 16.1788 17.8453C16.4914 17.5328 16.667 17.1089 16.667 16.6668V10.8335" stroke="#9A9A9A" stroke-width="2" stroke-linecap="round" stroke-linejoin="round"/>
<path id="Vector_2" d="M15.417 2.0832C15.7485 1.75168 16.1982 1.56543 16.667 1.56543C17.1358 1.56543 17.5855 1.75168 17.917 2.0832C18.2485 2.41472 18.4348 2.86436 18.4348 3.3332C18.4348 3.80204 18.2485 4.25168 17.917 4.5832L10.0003 12.4999L6.66699 13.3332L7.50033 9.99986L15.417 2.0832Z" stroke="#9A9A9A" stroke-width="2" stroke-linecap="round" stroke-linejoin="round"/>
</g>
</g>
</g>
</g>
</g>
</g>
</g>
<defs>
<filter id="filter0_d_0_1" x="-941" y="-175" width="1138" height="392" filterUnits="userSpaceOnUse" color-interpolation-filters="sRGB">
<feFlood flood-opacity="0" result="BackgroundImageFix"/>
<feColorMatrix in="SourceAlpha" type="matrix" values="0 0 0 0 0 0 0 0 0 0 0 0 0 0 0 0 0 0 127 0" result="hardAlpha"/>
<feOffset dy="4"/>
<feGaussianBlur stdDeviation="19.5"/>
<feComposite in2="hardAlpha" operator="out"/>
<feColorMatrix type="matrix" values="0 0 0 0 0.768627 0 0 0 0 0.768627 0 0 0 0 0.768627 0 0 0 0.6 0"/>
<feBlend mode="normal" in2="BackgroundImageFix" result="effect1_dropShadow_0_1"/>
<feBlend mode="normal" in="SourceGraphic" in2="effect1_dropShadow_0_1" result="shape"/>
</filter>
<filter id="filter1_dd_0_1" x="-832" y="-37" width="920" height="94" filterUnits="userSpaceOnUse" color-interpolation-filters="sRGB">
<feFlood flood-opacity="0" result="BackgroundImageFix"/>
<feColorMatrix in="SourceAlpha" type="matrix" values="0 0 0 0 0 0 0 0 0 0 0 0 0 0 0 0 0 0 127 0" result="hardAlpha"/>
<feOffset dy="4"/>
<feGaussianBlur stdDeviation="5"/>
<feComposite in2="hardAlpha" operator="out"/>
<feColorMatrix type="matrix" values="0 0 0 0 0 0 0 0 0 0 0 0 0 0 0 0 0 0 0.06 0"/>
<feBlend mode="normal" in2="BackgroundImageFix" result="effect1_dropShadow_0_1"/>
<feColorMatrix in="SourceAlpha" type="matrix" values="0 0 0 0 0 0 0 0 0 0 0 0 0 0 0 0 0 0 127 0" result="hardAlpha"/>
<feOffset dy="-4"/>
<feGaussianBlur stdDeviation="5"/>
<feComposite in2="hardAlpha" operator="out"/>
<feColorMatrix type="matrix" values="0 0 0 0 0 0 0 0 0 0 0 0 0 0 0 0 0 0 0.06 0"/>
<feBlend mode="normal" in2="effect1_dropShadow_0_1" result="effect2_dropShadow_0_1"/>
<feBlend mode="normal" in="SourceGraphic" in2="effect2_dropShadow_0_1" result="shape"/>
</filter>
<clipPath id="clip0_0_1">
<rect width="20" height="20" fill="white"/>
</clipPath>
</defs>
</svg>
