<svg width="55" height="50" viewBox="0 0 55 50" fill="none" xmlns="http://www.w3.org/2000/svg">
<path d="M42.619 34.0278L43.1424 34.5684L46.2007 37.7336L48.567 40.1767L52.0275 43.7787C52.5117 44.2684 52.7914 44.9238 52.8098 45.6121C52.8283 46.3002 52.5842 46.9697 52.1271 47.4845C52.0593 47.5595 51.9871 47.6302 51.9107 47.6964L51.8804 47.7267C51.3517 48.1804 50.6686 48.4133 49.9727 48.3771C49.277 48.3408 48.6216 48.0383 48.143 47.5321L44.6823 43.9517L42.3377 41.5043L39.2794 38.3389L38.7344 37.7768L39.379 37.1542L41.9008 34.7241L42.619 34.0278Z" stroke="#3A10E5" stroke-width="2" stroke-linecap="round" stroke-linejoin="round"/>
<path d="M41.3428 27.3245C41.8172 25.0654 41.6109 22.7165 40.7503 20.5745C39.6076 17.7501 37.3975 15.4896 34.5989 14.2828C32.4987 13.3766 30.1773 13.1114 27.9266 13.5207C25.6759 13.9301 23.5967 14.9956 21.9504 16.5833C20.4455 18.0302 19.3641 19.8602 18.8228 21.8761C18.7163 22.2646 18.6311 22.6587 18.5676 23.0565C18.0747 26.0446 18.7721 29.1068 20.5102 31.5873C22.2483 34.0677 24.8891 35.7692 27.8667 36.3272C30.8445 36.8852 33.9224 36.2554 36.4412 34.5726C38.9601 32.89 40.7196 30.2881 41.3428 27.3245V27.3245Z" stroke="#3A10E5" stroke-width="2" stroke-linecap="round" stroke-linejoin="round"/>
<path d="M28.9279 17.3496C29.4813 17.2754 30.041 17.2595 30.5976 17.3021C31.4351 17.3699 32.2561 17.5729 33.0287 17.9032C34.2263 18.4196 35.2726 19.2325 36.0687 20.2652C36.865 21.2979 37.3849 22.5163 37.5794 23.8055C37.7125 24.7099 37.6847 25.6307 37.4973 26.5255C37.1425 28.2158 36.2237 29.7356 34.8915 30.8356C33.5593 31.9355 31.8927 32.5504 30.1651 32.5793" stroke="#3A10E5" stroke-width="2" stroke-linecap="round" stroke-linejoin="round"/>
<path d="M24.4896 30.2558C23.2213 28.9377 22.4678 27.2086 22.3656 25.3826C22.3298 24.8192 22.3573 24.2534 22.4479 23.6962C22.4859 23.4419 22.5407 23.1906 22.6122 22.9437C22.9665 21.6035 23.6817 20.3861 24.68 19.4238" stroke="#3A10E5" stroke-width="2" stroke-linecap="round" stroke-linejoin="round"/>
<path d="M40.5863 35.9866L38.0254 33.3618" stroke="#3A10E5" stroke-width="2" stroke-linecap="round" stroke-linejoin="round"/>
<path d="M39.8261 46.0802H1.62109V1.62012H46.1763V32.0164" stroke="#1B2935" stroke-width="2" stroke-linecap="round" stroke-linejoin="round"/>
<path d="M1.62109 9.45117H46.1763" stroke="#1B2935" stroke-width="2" stroke-linecap="round" stroke-linejoin="round"/>
<path d="M6.25488 13.3628H15.0871" stroke="#1B2935" stroke-width="2" stroke-linecap="round" stroke-linejoin="round"/>
<path d="M6.25488 17.8625H15.0871" stroke="#1B2935" stroke-width="2" stroke-linecap="round" stroke-linejoin="round"/>
<path d="M6.25488 22.3613H15.0871" stroke="#1B2935" stroke-width="2" stroke-linecap="round" stroke-linejoin="round"/>
<path d="M6.25488 26.8608H15.0871" stroke="#1B2935" stroke-width="2" stroke-linecap="round" stroke-linejoin="round"/>
<path d="M6.25488 31.3608H15.0871" stroke="#1B2935" stroke-width="2" stroke-linecap="round" stroke-linejoin="round"/>
<path d="M6.25488 35.8594H15.0871" stroke="#1B2935" stroke-width="2" stroke-linecap="round" stroke-linejoin="round"/>
</svg>
