<svg width="98" height="18" viewBox="0 0 98 18" fill="none" xmlns="http://www.w3.org/2000/svg">
<path d="M8.36086 1.12652C8.64244 0.630226 9.35756 0.630226 9.63914 1.12652L11.7025 4.76327C11.8072 4.94776 11.9864 5.07802 12.1943 5.12056L16.2906 5.9591C16.8496 6.07353 17.0706 6.75366 16.6856 7.17483L13.8645 10.261C13.7214 10.4176 13.6529 10.6283 13.6766 10.8391L14.145 14.9941C14.2089 15.5611 13.6304 15.9815 13.1108 15.7455L9.30393 14.0161C9.11081 13.9283 8.88919 13.9283 8.69607 14.0161L4.88917 15.7455C4.36965 15.9815 3.79109 15.5611 3.85501 14.9941L4.32335 10.8391C4.34711 10.6283 4.27863 10.4176 4.13551 10.261L1.31437 7.17482C0.929379 6.75366 1.15037 6.07353 1.70939 5.9591L5.80574 5.12056C6.01355 5.07802 6.19284 4.94776 6.29752 4.76327L8.36086 1.12652Z" fill="#F99808"/>
<path d="M28.3609 1.12652C28.6424 0.630226 29.3576 0.630226 29.6391 1.12652L31.7025 4.76327C31.8072 4.94776 31.9864 5.07802 32.1943 5.12056L36.2906 5.9591C36.8496 6.07353 37.0706 6.75366 36.6856 7.17483L33.8645 10.261C33.7214 10.4176 33.6529 10.6283 33.6766 10.8391L34.145 14.9941C34.2089 15.5611 33.6304 15.9815 33.1108 15.7455L29.3039 14.0161C29.1108 13.9283 28.8892 13.9283 28.6961 14.0161L24.8892 15.7455C24.3696 15.9815 23.7911 15.5611 23.855 14.9941L24.3234 10.8391C24.3471 10.6283 24.2786 10.4176 24.1355 10.261L21.3144 7.17482C20.9294 6.75366 21.1504 6.07353 21.7094 5.9591L25.8057 5.12056C26.0136 5.07802 26.1928 4.94776 26.2975 4.76327L28.3609 1.12652Z" fill="#F99808"/>
<path d="M48.3609 1.12652C48.6424 0.630226 49.3576 0.630226 49.6391 1.12652L51.7025 4.76327C51.8072 4.94776 51.9864 5.07802 52.1943 5.12056L56.2906 5.9591C56.8496 6.07353 57.0706 6.75366 56.6856 7.17483L53.8645 10.261C53.7214 10.4176 53.6529 10.6283 53.6766 10.8391L54.145 14.9941C54.2089 15.5611 53.6304 15.9815 53.1108 15.7455L49.3039 14.0161C49.1108 13.9283 48.8892 13.9283 48.6961 14.0161L44.8892 15.7455C44.3696 15.9815 43.7911 15.5611 43.855 14.9941L44.3234 10.8391C44.3471 10.6283 44.2786 10.4176 44.1355 10.261L41.3144 7.17482C40.9294 6.75366 41.1504 6.07353 41.7094 5.9591L45.8057 5.12056C46.0136 5.07802 46.1928 4.94776 46.2975 4.76327L48.3609 1.12652Z" fill="#F99808"/>
<path d="M68.3609 1.12652C68.6424 0.630226 69.3576 0.630226 69.6391 1.12652L71.7025 4.76327C71.8072 4.94776 71.9864 5.07802 72.1943 5.12056L76.2906 5.9591C76.8496 6.07353 77.0706 6.75366 76.6856 7.17483L73.8645 10.261C73.7214 10.4176 73.6529 10.6283 73.6766 10.8391L74.145 14.9941C74.2089 15.5611 73.6304 15.9815 73.1108 15.7455L69.3039 14.0161C69.1108 13.9283 68.8892 13.9283 68.6961 14.0161L64.8892 15.7455C64.3696 15.9815 63.7911 15.5611 63.855 14.9941L64.3234 10.8391C64.3471 10.6283 64.2786 10.4176 64.1355 10.261L61.3144 7.17482C60.9294 6.75366 61.1504 6.07353 61.7094 5.9591L65.8057 5.12056C66.0136 5.07802 66.1928 4.94776 66.2975 4.76327L68.3609 1.12652Z" fill="#F99808"/>
<path d="M88.3609 1.12652C88.6424 0.630226 89.3576 0.630226 89.6391 1.12652L91.7025 4.76327C91.8072 4.94776 91.9864 5.07802 92.1943 5.12056L96.2906 5.9591C96.8496 6.07353 97.0706 6.75366 96.6856 7.17483L93.8645 10.261C93.7214 10.4176 93.6529 10.6283 93.6766 10.8391L94.145 14.9941C94.2089 15.5611 93.6304 15.9815 93.1108 15.7455L89.3039 14.0161C89.1108 13.9283 88.8892 13.9283 88.6961 14.0161L84.8892 15.7455C84.3696 15.9815 83.7911 15.5611 83.855 14.9941L84.3234 10.8391C84.3471 10.6283 84.2786 10.4176 84.1355 10.261L81.3144 7.17482C80.9294 6.75366 81.1504 6.07353 81.7094 5.9591L85.8057 5.12056C86.0136 5.07802 86.1928 4.94776 86.2975 4.76327L88.3609 1.12652Z" fill="#F99808"/>
</svg>
