<svg width="16" height="17" viewBox="0 0 16 17" fill="none" xmlns="http://www.w3.org/2000/svg">
<g clip-path="url(#clip0_1_14398)">
<path d="M15.7376 8.68417C15.7376 8.14035 15.6934 7.59359 15.599 7.05859H8.02661V10.1392H12.363C12.183 11.1328 11.6048 12.0117 10.7582 12.5703V14.5692H13.3453C14.8645 13.1758 15.7376 11.1181 15.7376 8.68417Z" fill="#4285F4"/>
<path d="M8.02669 16.5002C10.1919 16.5002 12.0179 15.7918 13.3483 14.5689L10.7612 12.57C10.0415 13.058 9.11225 13.3343 8.02964 13.3343C5.93521 13.3343 4.15937 11.9263 3.5222 10.0332H0.852539V12.0938C2.21539 14.7953 4.99125 16.5002 8.02669 16.5002Z" fill="#34A853"/>
<path d="M3.51924 10.0328C3.18295 9.03925 3.18295 7.96338 3.51924 6.96981V4.90918H0.852531C-0.28613 7.1697 -0.28613 9.83293 0.852531 12.0935L3.51924 10.0328Z" fill="#FBBC04"/>
<path d="M8.02669 3.66546C9.17125 3.64783 10.2775 4.077 11.1064 4.8648L13.3985 2.58077C11.9471 1.22269 10.0208 0.476046 8.02669 0.499563C4.99125 0.499563 2.21539 2.2045 0.852539 4.9089L3.51925 6.96952C4.15347 5.07351 5.93226 3.66546 8.02669 3.66546Z" fill="#EA4335"/>
</g>
<defs>
<clipPath id="clip0_1_14398">
<rect width="15.7377" height="16" fill="white" transform="translate(0 0.5)"/>
</clipPath>
</defs>
</svg>
