<svg width="20" height="21" viewBox="0 0 20 21" fill="none" xmlns="http://www.w3.org/2000/svg">
<rect x="0.908203" y="1.35547" width="18.1818" height="17.8159" rx="4" fill="#2AB930"/>
<rect x="0.908203" y="1.35547" width="18.1818" height="17.8159" rx="4" stroke="white"/>
<path d="M7.39182 10.2633C7.24255 10.1318 7.04804 10.0604 6.84731 10.0635C6.64658 10.0666 6.45447 10.144 6.30953 10.2801C6.16459 10.4162 6.07752 10.601 6.06581 10.7974C6.05409 10.9938 6.11859 11.1872 6.24636 11.3389L8.01227 13.1551C8.08621 13.2311 8.17505 13.2916 8.27347 13.3332C8.37188 13.3747 8.47785 13.3963 8.585 13.3967C8.69158 13.3973 8.7972 13.3769 8.89559 13.3367C8.99398 13.2966 9.08312 13.2374 9.15773 13.1628L14.5509 7.70674C14.624 7.63304 14.6816 7.54595 14.7204 7.45045C14.7592 7.35494 14.7784 7.25288 14.7769 7.15011C14.7754 7.04733 14.7533 6.94584 14.7118 6.85144C14.6703 6.75704 14.6102 6.67158 14.535 6.59993C14.4598 6.52828 14.3709 6.47185 14.2734 6.43385C14.176 6.39586 14.0718 6.37705 13.9669 6.3785C13.862 6.37994 13.7585 6.40162 13.6621 6.44229C13.5658 6.48296 13.4786 6.54182 13.4055 6.61552L8.59295 11.4948L7.39182 10.2633Z" fill="white"/>
</svg>
