<svg width="301" height="176" viewBox="0 0 301 176" fill="none" xmlns="http://www.w3.org/2000/svg">
<g clip-path="url(#clip0_746_353)">
<g opacity="0.8">
<path opacity="0.4" d="M36.8511 134.567C35.8945 135.217 28.2906 140.11 18.9893 146.08" stroke="#CCCCCC" stroke-width="0.852603" stroke-linecap="round" stroke-dasharray="1.42 2.13"/>
<g opacity="0.2">
<path d="M39.611 134.374L39.8986 131.569L51.9831 124.646L40.6525 134.901C40.2277 135.286 39.5525 134.944 39.611 134.374Z" fill="white" stroke="#4C4C4C" stroke-width="1.06575" stroke-linejoin="round"/>
<path d="M52.2057 125.709C52.7518 124.951 52.0864 123.916 51.1707 124.099L38.0831 126.714C37.4516 126.84 37.1452 127.562 37.4936 128.103L42.8919 136.495C43.2403 137.036 44.0247 137.057 44.4013 136.535L52.2057 125.709Z" fill="white" stroke="#4C4C4C" stroke-width="1.06575"/>
<path d="M39.9229 131.681L52.0951 124.622" stroke="#4C4C4C" stroke-width="1.06575"/>
</g>
<path opacity="0.4" d="M225.171 99.3672C222.857 100.939 181.637 127.347 171.601 133.76" stroke="#CCCCCC" stroke-width="0.852603" stroke-linecap="round" stroke-dasharray="1.42 2.13"/>
<g opacity="0.2">
<path d="M227.931 99.1748L228.219 96.3693L240.303 89.4473L228.973 99.7019C228.548 100.086 227.873 99.745 227.931 99.1748Z" fill="white" stroke="#4C4C4C" stroke-width="1.06575" stroke-linejoin="round"/>
<path d="M240.526 90.5097C241.072 89.7521 240.406 88.7172 239.491 88.9002L226.404 91.5147C225.772 91.6405 225.466 92.363 225.814 92.9042L231.212 101.296C231.56 101.837 232.344 101.858 232.721 101.335L240.526 90.5097Z" fill="white" stroke="#4C4C4C" stroke-width="1.06575"/>
<path d="M228.244 96.4813L240.416 89.4229" stroke="#4C4C4C" stroke-width="1.06575"/>
</g>
<path opacity="0.4" d="M129.251 28.9668C126.937 30.5385 85.7169 56.9461 75.6807 63.3599" stroke="#CCCCCC" stroke-width="0.852603" stroke-linecap="round" stroke-dasharray="1.42 2.13"/>
<g opacity="0.2">
<path d="M132.011 28.7747L132.299 25.9693L144.383 19.0469L133.053 29.302C132.628 29.6865 131.953 29.3447 132.011 28.7747Z" fill="white" stroke="#4C4C4C" stroke-width="1.06575" stroke-linejoin="round"/>
<path d="M144.606 20.1087C145.152 19.3512 144.486 18.3169 143.571 18.4998L130.484 21.1137C129.852 21.2399 129.546 21.9623 129.894 22.5039L135.292 30.8951C135.64 31.4367 136.425 31.4574 136.801 30.9351L144.606 20.1087Z" fill="white" stroke="#4C4C4C" stroke-width="1.06575"/>
<path d="M132.324 26.0806L144.496 19.0225" stroke="#4C4C4C" stroke-width="1.06575"/>
</g>
<g opacity="0.7">
<path opacity="0.4" d="M28.0509 60.6465C25.7367 62.2183 -15.4833 88.6256 -25.5195 95.0399" stroke="#CCCCCC" stroke-width="0.852603" stroke-linecap="round" stroke-dasharray="1.42 2.13"/>
<g opacity="0.2">
<path d="M30.8112 60.4543L31.0988 57.6489L43.1833 50.7266L31.8527 60.9816C31.4279 61.3662 30.7527 61.0243 30.8112 60.4543Z" fill="white" stroke="#4C4C4C" stroke-width="1.06575" stroke-linejoin="round"/>
<path d="M43.4059 51.7884C43.952 51.031 43.2866 49.9966 42.3709 50.1795L29.2832 52.7934C28.6518 52.9195 28.3454 53.6419 28.6938 54.1836L34.0921 62.5748C34.4405 63.1164 35.2249 63.1371 35.6015 62.6148L43.4059 51.7884Z" fill="white" stroke="#4C4C4C" stroke-width="1.06575"/>
<path d="M31.123 57.7604L43.2953 50.7021" stroke="#4C4C4C" stroke-width="1.06575"/>
</g>
</g>
<path opacity="0.4" d="M106.368 142.954C105.214 143.738 84.6605 156.906 79.6562 160.104" stroke="#CCCCCC" stroke-width="0.425131" stroke-linecap="round" stroke-dasharray="0.71 1.06"/>
<g opacity="0.2">
<path d="M107.743 142.857L107.886 141.458L113.913 138.007L108.263 143.121C108.051 143.312 107.714 143.142 107.743 142.857Z" fill="white" stroke="#4C4C4C" stroke-width="0.531414" stroke-linejoin="round"/>
<path d="M114.024 138.537C114.296 138.159 113.964 137.643 113.507 137.734L106.982 139.038C106.667 139.101 106.514 139.461 106.688 139.731L109.379 143.915C109.554 144.185 109.944 144.195 110.133 143.935L114.024 138.537Z" fill="white" stroke="#4C4C4C" stroke-width="0.531414"/>
<path d="M107.899 141.515L113.969 137.995" stroke="#4C4C4C" stroke-width="0.531414"/>
</g>
<g opacity="0.6">
<path opacity="0.4" d="M222.698 158.851C221.544 159.635 200.991 172.802 195.986 176" stroke="#CCCCCC" stroke-width="0.425131" stroke-linecap="round" stroke-dasharray="0.71 1.06"/>
<g opacity="0.2">
<path d="M224.074 158.755L224.217 157.356L230.244 153.904L224.594 159.018C224.382 159.21 224.045 159.039 224.074 158.755Z" fill="white" stroke="#4C4C4C" stroke-width="0.531414" stroke-linejoin="round"/>
<path d="M230.355 154.434C230.627 154.056 230.295 153.54 229.838 153.632L223.312 154.935C222.998 154.998 222.845 155.358 223.019 155.629L225.71 159.812C225.885 160.082 226.275 160.093 226.464 159.832L230.355 154.434Z" fill="white" stroke="#4C4C4C" stroke-width="0.531414"/>
<path d="M224.23 157.413L230.3 153.893" stroke="#4C4C4C" stroke-width="0.531414"/>
</g>
</g>
<path opacity="0.5" d="M259.829 121.948C258.675 122.731 238.122 135.9 233.117 139.098" stroke="#CCCCCC" stroke-width="0.425131" stroke-linecap="round" stroke-dasharray="0.71 1.06"/>
<g opacity="0.3">
<path d="M261.205 121.852L261.348 120.452L267.374 117.001L261.724 122.115C261.513 122.307 261.176 122.136 261.205 121.852Z" fill="white" stroke="#4C4C4C" stroke-width="0.531414" stroke-linejoin="round"/>
<path d="M267.485 117.531C267.757 117.153 267.426 116.637 266.969 116.728L260.443 118.032C260.128 118.095 259.975 118.455 260.149 118.725L262.841 122.909C263.015 123.179 263.406 123.189 263.593 122.929L267.485 117.531Z" fill="white" stroke="#4C4C4C" stroke-width="0.531414"/>
<path d="M261.36 120.509L267.43 116.989" stroke="#4C4C4C" stroke-width="0.531414"/>
</g>
<g opacity="0.6">
<path opacity="0.4" d="M255.599 38.4053C254.446 39.189 233.892 52.3566 228.888 55.5547" stroke="#CCCCCC" stroke-width="0.425131" stroke-linecap="round" stroke-dasharray="0.71 1.06"/>
<g opacity="0.2">
<path d="M256.975 38.3095L257.119 36.9106L263.144 33.459L257.495 38.5725C257.283 38.7642 256.946 38.5937 256.975 38.3095Z" fill="white" stroke="#4C4C4C" stroke-width="0.531414" stroke-linejoin="round"/>
<path d="M263.255 33.9887C263.528 33.611 263.196 33.0952 262.739 33.1864L256.213 34.4898C255.898 34.5527 255.746 34.9129 255.919 35.1829L258.611 39.3671C258.785 39.6371 259.176 39.6474 259.364 39.387L263.255 33.9887Z" fill="white" stroke="#4C4C4C" stroke-width="0.531414"/>
<path d="M257.131 36.9666L263.2 33.4473" stroke="#4C4C4C" stroke-width="0.531414"/>
</g>
</g>
<path opacity="0.4" d="M210.89 33.1826C209.737 33.9663 189.183 47.1339 184.179 50.332" stroke="#CCCCCC" stroke-width="0.425131" stroke-linecap="round" stroke-dasharray="0.71 1.06"/>
<g opacity="0.2">
<path d="M212.266 33.0859L212.41 31.6871L218.435 28.2354L212.786 33.3489C212.574 33.5406 212.237 33.3702 212.266 33.0859Z" fill="white" stroke="#4C4C4C" stroke-width="0.531414" stroke-linejoin="round"/>
<path d="M218.546 28.765C218.819 28.3873 218.487 27.8715 218.03 27.9628L211.504 29.2661C211.189 29.329 211.037 29.6893 211.21 29.9593L213.902 34.1434C214.076 34.4134 214.467 34.4238 214.655 34.1633L218.546 28.765Z" fill="white" stroke="#4C4C4C" stroke-width="0.531414"/>
<path d="M212.422 31.743L218.491 28.2236" stroke="#4C4C4C" stroke-width="0.531414"/>
</g>
<path opacity="0.4" d="M64.1004 78.1191C62.9464 78.9029 42.3931 92.07 37.3887 95.2688" stroke="#CCCCCC" stroke-width="0.425131" stroke-linecap="round" stroke-dasharray="0.71 1.06"/>
<g opacity="0.2">
<path d="M65.4764 78.0234L65.6198 76.6245L71.6454 73.1729L65.9958 78.2864C65.7839 78.478 65.4473 78.3076 65.4764 78.0234Z" fill="white" stroke="#4C4C4C" stroke-width="0.531414" stroke-linejoin="round"/>
<path d="M71.7563 73.7026C72.0286 73.3248 71.6968 72.8091 71.2402 72.9003L64.7144 74.2036C64.3994 74.2665 64.2467 74.6267 64.4204 74.8968L67.1122 79.0809C67.2859 79.3509 67.6771 79.3613 67.8648 79.1008L71.7563 73.7026Z" fill="white" stroke="#4C4C4C" stroke-width="0.531414"/>
<path d="M65.6318 76.6806L71.7013 73.1611" stroke="#4C4C4C" stroke-width="0.531414"/>
</g>
<path d="M26.1551 104.278C22.6829 106.637 13.4286 112.618 7.04004 116.731" stroke="#CCCCCC" stroke-width="1.06575" stroke-linecap="round" stroke-dasharray="2.13 2.84"/>
<path d="M183.676 160.599C180.479 162.77 172.381 168.013 166.13 172.04" stroke="#CCCCCC" stroke-width="1.06575" stroke-linecap="round" stroke-dasharray="2.13 2.84"/>
<path d="M48.124 144.844C44.8717 147.053 25.9767 159.195 11.001 168.797" stroke="#CCCCCC" stroke-width="1.421" stroke-linecap="round" stroke-dasharray="2.84 4.26"/>
<path d="M233.66 31.2402C228.14 34.9892 195.369 55.8522 183.147 64.0501" stroke="#CCCCCC" stroke-width="1.06575" stroke-linecap="round" stroke-dasharray="2.13 2.84"/>
<path d="M237.698 161.546C234.956 163.408 225.49 169.492 215.16 176.15" stroke="#CCCCCC" stroke-width="1.06575" stroke-linecap="round" stroke-dasharray="2.13 2.84"/>
<path d="M206.018 98.1855C203.276 100.048 193.811 106.132 183.48 112.79" stroke="#CCCCCC" stroke-width="1.06575" stroke-linecap="round" stroke-dasharray="2.13 2.84"/>
<path d="M74.018 80.5859C71.2762 82.4481 61.8111 88.5321 51.4805 95.1901" stroke="#CCCCCC" stroke-width="1.06575" stroke-linecap="round" stroke-dasharray="2.13 2.84"/>
<path d="M147.938 142.186C144.307 144.651 128.888 154.521 115.28 163.321" stroke="#CCCCCC" stroke-width="1.06575" stroke-linecap="round" stroke-dasharray="2.13 2.84"/>
<path d="M79.706 39.6416C74.1859 43.3906 41.4146 64.2535 29.1934 72.4514" stroke="#CCCCCC" stroke-width="1.06575" stroke-linecap="round" stroke-dasharray="2.13 2.84"/>
<path d="M181.511 17.9902C175.99 21.7392 135.064 47.6007 122.843 55.7986" stroke="#CCCCCC" stroke-width="1.06575" stroke-linecap="round" stroke-dasharray="2.13 2.84"/>
<path d="M96.7702 74.4551C94.4558 76.0268 89.1318 79.0408 79.0957 85.4546" stroke="#DDDDDC" stroke-width="1.06575" stroke-linecap="round" stroke-dasharray="2.13 2.84"/>
<path d="M94.2354 166.788C91.921 168.361 83.3839 173.818 73.3477 180.232" stroke="#DDDDDC" stroke-width="0.852603" stroke-linecap="round" stroke-dasharray="1.42 2.13"/>
<path d="M261.727 53.6846C259.412 55.2563 238.837 68.8262 228.801 75.24" stroke="#CCCCCC" stroke-width="0.852603" stroke-linecap="round" stroke-dasharray="1.42 2.13"/>
<path d="M261.251 97.6074C258.937 99.1791 217.717 125.587 207.681 132" stroke="#CCCCCC" stroke-width="0.852603" stroke-linecap="round" stroke-dasharray="1.42 2.13"/>
<path d="M208.451 65.9277C206.137 67.4994 164.917 93.9074 154.881 100.321" stroke="#CCCCCC" stroke-width="0.852603" stroke-linecap="round" stroke-dasharray="1.42 2.13"/>
<path d="M120.451 95.8477C118.137 97.4193 76.9171 123.827 66.8809 130.241" stroke="#CCCCCC" stroke-width="0.852603" stroke-linecap="round" stroke-dasharray="1.42 2.13"/>
<path d="M172.371 50.0869C170.057 51.6586 128.837 78.0662 118.801 84.48" stroke="#CCCCCC" stroke-width="0.852603" stroke-linecap="round" stroke-dasharray="1.42 2.13"/>
<path d="M46.5306 25.4473C45.1963 26.3535 30.9278 35.5163 17.1602 44.3427" stroke="#CCCCCC" stroke-width="0.852603" stroke-linecap="round" stroke-dasharray="1.42 2.13"/>
<path d="M49.2907 25.2551L49.5783 22.4497L61.6628 15.5273L50.3322 25.7825C49.9074 26.167 49.2322 25.8251 49.2907 25.2551Z" fill="white" stroke="#4C4C4C" stroke-width="1.06575" stroke-linejoin="round"/>
<path d="M61.8854 16.5892C62.4315 15.8317 61.7661 14.7973 60.8504 14.9803L47.7627 17.5942C47.1313 17.7203 46.8249 18.4427 47.1733 18.9844L52.5716 27.3755C52.92 27.9172 53.7044 27.9379 54.081 27.4155L61.8854 16.5892Z" fill="white" stroke="#4C4C4C" stroke-width="1.06575"/>
<path d="M49.6035 22.5611L61.7758 15.5029" stroke="#4C4C4C" stroke-width="1.06575"/>
<path d="M237.703 31.7217L238.221 26.6717L260.633 13.833L239.733 32.7496C238.905 33.499 237.589 32.8326 237.703 31.7217Z" fill="white" stroke="#4C4C4C" stroke-width="1.24338" stroke-linejoin="round"/>
<path d="M261.046 15.8028C262.058 14.3979 260.825 12.4796 259.126 12.8188L234.853 17.6666C233.682 17.9006 233.114 19.2405 233.76 20.2449L243.772 35.8077C244.418 36.8123 245.873 36.8508 246.571 35.8819L261.046 15.8028Z" fill="white" stroke="#4C4C4C" stroke-width="1.24338"/>
<path d="M238.265 26.8786L260.84 13.7881" stroke="#4C4C4C" stroke-width="1.24338"/>
<path d="M242.104 161.962L242.621 156.912L265.034 144.073L244.134 162.99C243.306 163.739 241.989 163.072 242.104 161.962Z" fill="white" stroke="#4C4C4C" stroke-width="1.24338" stroke-linejoin="round"/>
<path d="M265.445 146.042C266.458 144.637 265.224 142.718 263.526 143.058L239.253 147.906C238.081 148.14 237.513 149.48 238.16 150.484L248.172 166.047C248.817 167.051 250.272 167.09 250.971 166.121L265.445 146.042Z" fill="white" stroke="#4C4C4C" stroke-width="1.24338"/>
<path d="M242.665 157.119L265.241 144.028" stroke="#4C4C4C" stroke-width="1.24338"/>
<path d="M210.423 98.602L210.94 93.5517L233.353 80.7129L212.453 99.6298C211.625 100.379 210.309 99.7125 210.423 98.602Z" fill="white" stroke="#4C4C4C" stroke-width="1.24338" stroke-linejoin="round"/>
<path d="M233.765 82.6827C234.778 81.2777 233.544 79.3594 231.846 79.6987L207.573 84.5465C206.402 84.7805 205.833 86.1204 206.48 87.1248L216.492 102.688C217.138 103.692 218.592 103.731 219.291 102.762L233.765 82.6827Z" fill="white" stroke="#4C4C4C" stroke-width="1.24338"/>
<path d="M210.985 93.7589L233.561 80.668" stroke="#4C4C4C" stroke-width="1.24338"/>
<path d="M78.4229 81.001L78.9408 75.951L101.353 63.1123L80.4531 82.0289C79.6251 82.7783 78.3091 82.1119 78.4229 81.001Z" fill="white" stroke="#4C4C4C" stroke-width="1.24338" stroke-linejoin="round"/>
<path d="M101.765 65.0821C102.778 63.6772 101.545 61.7589 99.8462 62.0981L75.5729 66.9459C74.4016 67.1799 73.8336 68.5198 74.4797 69.5242L84.4916 85.087C85.1378 86.0916 86.5927 86.1301 87.2911 85.1612L101.765 65.0821Z" fill="white" stroke="#4C4C4C" stroke-width="1.24338"/>
<path d="M78.9854 76.1589L101.561 63.0684" stroke="#4C4C4C" stroke-width="1.24338"/>
<path d="M152.344 142.602L152.862 137.551L175.274 124.713L154.374 143.629C153.546 144.378 152.23 143.712 152.344 142.602Z" fill="white" stroke="#4C4C4C" stroke-width="1.24338" stroke-linejoin="round"/>
<path d="M175.687 126.683C176.699 125.277 175.465 123.359 173.767 123.699L149.494 128.547C148.322 128.781 147.755 130.12 148.401 131.125L158.412 146.688C159.058 147.692 160.514 147.731 161.212 146.762L175.687 126.683Z" fill="white" stroke="#4C4C4C" stroke-width="1.24338"/>
<path d="M152.906 137.759L175.482 124.668" stroke="#4C4C4C" stroke-width="1.24338"/>
<path d="M29.6515 103.236L29.9654 100.175L46.9479 90.4473L31.6815 104.264C30.8535 105.014 29.5375 104.348 29.6515 103.236Z" fill="white" stroke="#4C4C4C" stroke-width="1.06575" stroke-linejoin="round"/>
<path d="M47.2602 91.9391C48.0276 90.8751 47.0925 89.4214 45.8057 89.6783L27.4133 93.3515C26.5258 93.5292 26.0954 94.5439 26.5851 95.3051L34.1713 107.098C34.6609 107.859 35.7633 107.888 36.2925 107.154L47.2602 91.9391Z" fill="white" stroke="#4C4C4C" stroke-width="1.06575"/>
<path d="M29.999 100.332L47.105 90.4131" stroke="#4C4C4C" stroke-width="1.06575"/>
<path d="M187.172 159.557L187.485 156.495L204.468 146.768L189.202 160.584C188.374 161.334 187.058 160.668 187.172 159.557Z" fill="white" stroke="#4C4C4C" stroke-width="1.06575" stroke-linejoin="round"/>
<path d="M204.781 148.259C205.548 147.195 204.613 145.742 203.326 145.999L184.933 149.672C184.046 149.85 183.616 150.864 184.105 151.625L191.692 163.418C192.181 164.179 193.284 164.209 193.813 163.475L204.781 148.259Z" fill="white" stroke="#4C4C4C" stroke-width="1.06575"/>
<path d="M187.52 156.653L204.625 146.733" stroke="#4C4C4C" stroke-width="1.06575"/>
<path d="M185.352 17.7809L185.762 13.7797L201.112 4.9873L186.394 18.3082C185.969 18.6927 185.294 18.3509 185.352 17.7809Z" fill="white" stroke="#4C4C4C" stroke-width="1.06575" stroke-linejoin="round"/>
<path d="M201.395 6.33624C202.088 5.37412 201.243 4.06037 200.08 4.29267L183.457 7.61273C182.654 7.77294 182.265 8.69055 182.708 9.37849L189.564 20.0366C190.007 20.7245 191.004 20.7509 191.482 20.0874L201.395 6.33624Z" fill="white" stroke="#4C4C4C" stroke-width="1.06575"/>
<path d="M185.793 13.9221L201.254 4.95703" stroke="#4C4C4C" stroke-width="1.06575"/>
<path d="M52.8663 150.487L53.9996 139.435L95.2381 115.812L55.4702 151.805C54.4082 152.767 52.7202 151.913 52.8663 150.487Z" fill="white" stroke="#4C4C4C" stroke-width="1.421" stroke-linejoin="round"/>
<path d="M95.9974 119.437C97.8604 116.852 95.59 113.323 92.4651 113.947L47.8035 122.866C45.6484 123.297 44.6031 125.762 45.7922 127.61L64.2137 156.246C65.4026 158.094 68.0795 158.165 69.3646 156.382L95.9974 119.437Z" fill="white" stroke="#4C4C4C" stroke-width="1.421"/>
<path d="M54.082 139.818L95.6197 115.731" stroke="#4C4C4C" stroke-width="1.421"/>
<path d="M82.4542 41.5685L83.0735 35.5295L110.623 19.748L85.058 42.8869C83.996 43.8481 82.3081 42.9934 82.4542 41.5685Z" fill="white" stroke="#4C4C4C" stroke-width="1.421" stroke-linejoin="round"/>
<path d="M111.131 22.1696C112.376 20.4428 110.859 18.0847 108.771 18.5017L78.9344 24.4608C77.4946 24.7483 76.7963 26.3954 77.5906 27.6301L89.8973 46.7601C90.6919 47.995 92.4801 48.0423 93.3389 46.8512L111.131 22.1696Z" fill="white" stroke="#4C4C4C" stroke-width="1.421"/>
<path d="M83.1289 35.7845L110.879 19.6934" stroke="#4C4C4C" stroke-width="1.421"/>
<path d="M264.011 97.4142L264.299 94.6088L276.383 87.6865L265.053 97.9413C264.628 98.3259 263.953 97.9845 264.011 97.4142Z" fill="white" stroke="#4C4C4C" stroke-width="1.06575" stroke-linejoin="round"/>
<path d="M276.606 88.7497C277.152 87.9918 276.486 86.9575 275.571 87.1404L262.484 89.7547C261.852 89.8805 261.546 90.603 261.894 91.1442L267.292 99.5359C267.64 100.077 268.425 100.098 268.801 99.5755L276.606 88.7497Z" fill="white" stroke="#4C4C4C" stroke-width="1.06575"/>
<path d="M264.323 94.7211L276.495 87.6631" stroke="#4C4C4C" stroke-width="1.06575"/>
<path d="M211.211 65.7346L211.498 62.9292L223.582 56.0068L212.252 66.262C211.827 66.6465 211.152 66.3046 211.211 65.7346Z" fill="white" stroke="#4C4C4C" stroke-width="1.06575" stroke-linejoin="round"/>
<path d="M223.805 57.0687C224.352 56.3112 223.685 55.2768 222.77 55.4598L209.683 58.0736C209.051 58.1997 208.745 58.9222 209.093 59.4639L214.491 67.855C214.84 68.3967 215.624 68.4174 216 67.895L223.805 57.0687Z" fill="white" stroke="#4C4C4C" stroke-width="1.06575"/>
<path d="M211.523 63.0416L223.696 55.9834" stroke="#4C4C4C" stroke-width="1.06575"/>
<path d="M123.211 95.6545L123.498 92.849L135.582 85.9268L124.252 96.1816C123.827 96.5661 123.152 96.2247 123.211 95.6545Z" fill="white" stroke="#4C4C4C" stroke-width="1.06575" stroke-linejoin="round"/>
<path d="M135.805 86.9886C136.352 86.2311 135.685 85.1968 134.77 85.3797L121.683 87.9936C121.051 88.1198 120.745 88.8422 121.093 89.3834L126.491 97.7751C126.84 98.3163 127.624 98.3374 128 97.8147L135.805 86.9886Z" fill="white" stroke="#4C4C4C" stroke-width="1.06575"/>
<path d="M123.523 92.9614L135.696 85.9033" stroke="#4C4C4C" stroke-width="1.06575"/>
<path d="M175.131 49.8948L175.419 47.0893L187.503 40.167L176.173 50.4222C175.748 50.8066 175.073 50.4648 175.131 49.8948Z" fill="white" stroke="#4C4C4C" stroke-width="1.06575" stroke-linejoin="round"/>
<path d="M187.726 41.2288C188.273 40.4713 187.606 39.437 186.691 39.6199L173.604 42.2338C172.972 42.3599 172.666 43.0824 173.014 43.624L178.412 52.0152C178.761 52.5568 179.545 52.5776 179.921 52.0551L187.726 41.2288Z" fill="white" stroke="#4C4C4C" stroke-width="1.06575"/>
<path d="M175.443 47.2008L187.616 40.1426" stroke="#4C4C4C" stroke-width="1.06575"/>
<path d="M99.0484 73.7787L99.3362 70.9731L111.42 64.0508L100.09 74.306C99.6653 74.6904 98.9904 74.3486 99.0484 73.7787Z" fill="white" stroke="#DDDDDD" stroke-width="1.06575" stroke-linejoin="round"/>
<path d="M111.643 65.1126C112.19 64.3552 111.523 63.3208 110.608 63.5037L97.5208 66.1177C96.889 66.2438 96.5827 66.9662 96.9312 67.5078L102.329 75.899C102.678 76.4407 103.462 76.4614 103.838 75.939L111.643 65.1126Z" fill="white" stroke="#DDDDDD" stroke-width="1.06575"/>
<path d="M99.3604 71.0856L111.533 64.0273" stroke="#DDDDDD" stroke-width="1.06575"/>
<path d="M96.2782 166.71L96.5414 164.142L105.766 158.858L96.7983 166.974C96.5862 167.166 96.2483 166.995 96.2782 166.71Z" fill="white" stroke="#4C4C4C" stroke-width="0.852603" stroke-linejoin="round"/>
<path d="M105.934 159.669C106.351 159.091 105.842 158.301 105.143 158.441L95.1537 160.436C94.6724 160.532 94.4383 161.084 94.704 161.497L98.8242 167.902C99.0909 168.316 99.6893 168.331 99.977 167.933L105.934 159.669Z" fill="white" stroke="#4C4C4C" stroke-width="0.852603"/>
<path d="M96.5596 164.227L105.85 158.84" stroke="#4C4C4C" stroke-width="0.852603"/>
<path d="M263.769 53.6066L264.032 51.0386L273.257 45.7549L264.29 53.8703C264.078 54.0625 263.74 53.8916 263.769 53.6066Z" fill="white" stroke="#4C4C4C" stroke-width="0.852603" stroke-linejoin="round"/>
<path d="M273.426 46.5656C273.843 45.9874 273.335 45.198 272.636 45.3375L262.646 47.3327C262.164 47.4289 261.93 47.9804 262.197 48.3938L266.317 54.7987C266.583 55.2121 267.182 55.2279 267.469 54.8292L273.426 46.5656Z" fill="white" stroke="#4C4C4C" stroke-width="0.852603"/>
<path d="M264.051 51.1238L273.342 45.7363" stroke="#4C4C4C" stroke-width="0.852603"/>
</g>
<path opacity="0.14" fill-rule="evenodd" clip-rule="evenodd" d="M187.631 41.3604H177.977L173.604 42.2338C172.972 42.3599 172.666 43.0824 173.014 43.6241L178.412 52.0152C178.761 52.5569 179.546 52.5776 179.921 52.0552L187.631 41.3604Z" fill="#4C4C4C"/>
<path opacity="0.16" fill-rule="evenodd" clip-rule="evenodd" d="M97.2962 41.3604H86.4238L89.8972 46.7597C90.6918 47.9944 92.48 48.0418 93.3389 46.8508L97.2962 41.3604Z" fill="#4C4C4C"/>
<path opacity="0.12" fill-rule="evenodd" clip-rule="evenodd" d="M71.2402 72.9003C71.6967 72.8091 72.0286 73.3248 71.7563 73.7025L67.8648 79.1008C67.677 79.3613 67.2859 79.3509 67.1121 79.0809L64.4204 74.8968C64.2467 74.6267 64.3994 74.2666 64.7144 74.2036L71.2402 72.9003Z" fill="#4C4C4C"/>
<path opacity="0.12" fill-rule="evenodd" clip-rule="evenodd" d="M239.491 88.9002C240.406 88.7172 241.072 89.7521 240.526 90.5097L232.721 101.335C232.345 101.858 231.56 101.837 231.212 101.296L225.814 92.9042C225.466 92.363 225.772 91.6405 226.404 91.5147L239.491 88.9002Z" fill="#4C4C4C"/>
<path opacity="0.1" fill-rule="evenodd" clip-rule="evenodd" d="M113.661 139.04H106.971C106.974 139.039 106.978 139.038 106.982 139.038L113.508 137.734C113.964 137.643 114.296 138.159 114.024 138.537L113.661 139.04Z" fill="#4C4C4C"/>
<path opacity="0.12" fill-rule="evenodd" clip-rule="evenodd" d="M166.777 139.041H153.493L148.4 131.125C147.753 130.12 148.322 128.78 149.493 128.547L173.766 123.699C175.464 123.359 176.698 125.277 175.685 126.683L166.777 139.041Z" fill="#4C4C4C"/>
<path opacity="0.12" fill-rule="evenodd" clip-rule="evenodd" d="M81.8644 139.041H58.9602C54.1001 139.041 50.1602 135.101 50.1602 130.241V122.396L92.4635 113.947C95.5884 113.323 97.8597 116.852 95.9958 119.437L81.8644 139.041Z" fill="#4C4C4C"/>
<path d="M241.121 43.5605H59.8408C55.9527 43.5605 52.8008 46.7125 52.8008 50.6005V124.521C52.8008 128.409 55.9527 131.561 59.8408 131.561H241.121C245.009 131.561 248.161 128.409 248.161 124.521V50.6005C248.161 46.7125 245.009 43.5605 241.121 43.5605Z" fill="white" fill-opacity="0.94" stroke="#3785D7" stroke-width="1.5"/>
<path opacity="0.3" d="M252.56 54.8454V48.8402C252.56 43.4941 248.226 39.1602 242.88 39.1602H231.701M252.56 68.2246V75.5906V75.6557M252.56 78.8254V82.0602M252.56 109.52V113.553M252.56 120.275V126.28C252.56 131.626 248.226 135.96 242.88 135.96H223.268M216.128 135.96H211.246M208.063 135.96H204.956M140.196 135.96H133.539M128.924 135.96H124.486M48.4004 113.553V118.36M48.4004 110.35V105.421M48.4004 76.3564V70.9787M48.4004 54.8454V48.8402C48.4004 43.4941 52.7343 39.1602 58.0804 39.1602H63.4905M67.0411 39.1602H71.9231M126.782 39.1602H129.888M133.944 39.1602H137.939M207.688 39.1602H212.126M227.568 39.1602H228.915" stroke="#3785D7" stroke-width="1.5" stroke-linecap="round"/>
<g opacity="0.85">
<path opacity="0.85" d="M82.1055 154.854L81.2305 149.171" stroke="#DDDDDD" stroke-width="1.25" stroke-linecap="round" stroke-linejoin="round"/>
<path opacity="0.85" d="M88.7741 144.897L83.8154 145.66" stroke="#DDDDDD" stroke-width="1.25" stroke-linecap="round" stroke-linejoin="round"/>
<path opacity="0.85" d="M84.7037 149.036L82.9834 147.742" stroke="#DDDDDD" stroke-width="1.25" stroke-linecap="round" stroke-linejoin="round"/>
<path opacity="0.85" d="M86.1951 150.135L85.9863 149.955" stroke="#DDDDDD" stroke-width="1.25" stroke-linecap="round" stroke-linejoin="round"/>
<path opacity="0.85" d="M87.8777 151.374L87.7852 151.285" stroke="#DDDDDD" stroke-width="1.25" stroke-linecap="round" stroke-linejoin="round"/>
<path opacity="0.85" d="M83.7891 141.994L82.3955 143.92" stroke="#DDDDDD" stroke-width="1.25" stroke-linecap="round" stroke-linejoin="round"/>
<path opacity="0.85" d="M85.3172 139.885L84.7998 140.601" stroke="#DDDDDD" stroke-width="1.25" stroke-linecap="round" stroke-linejoin="round"/>
<path opacity="0.85" d="M79.1281 148.335L77.5479 150.538" stroke="#DDDDDD" stroke-width="1.25" stroke-linecap="round" stroke-linejoin="round"/>
<path opacity="0.85" d="M76.3519 152.143L75.6836 153.095" stroke="#DDDDDD" stroke-width="1.25" stroke-linecap="round" stroke-linejoin="round"/>
</g>
<g opacity="0.5">
<path opacity="0.85" d="M247.817 5.79395L244.675 10.6085" stroke="#3785D7" stroke-width="1.25" stroke-linecap="round" stroke-linejoin="round"/>
<path opacity="0.85" d="M236.205 8.75195L240.406 11.4945" stroke="#3785D7" stroke-width="1.25" stroke-linecap="round" stroke-linejoin="round"/>
<path opacity="0.85" d="M241.999 8.38867L242.415 10.5007" stroke="#3785D7" stroke-width="1.25" stroke-linecap="round" stroke-linejoin="round"/>
<path opacity="0.85" d="M241.622 6.5752L241.657 6.84874" stroke="#3785D7" stroke-width="1.25" stroke-linecap="round" stroke-linejoin="round"/>
<path opacity="0.85" d="M241.197 4.5293L241.207 4.6575" stroke="#3785D7" stroke-width="1.25" stroke-linecap="round" stroke-linejoin="round"/>
<path opacity="0.85" d="M237.979 14.2419L240.302 13.7393" stroke="#3785D7" stroke-width="1.25" stroke-linecap="round" stroke-linejoin="round"/>
<path opacity="0.85" d="M235.433 14.7916L236.296 14.6035" stroke="#3785D7" stroke-width="1.25" stroke-linecap="round" stroke-linejoin="round"/>
<path opacity="0.85" d="M245.682 12.6335L248.329 12.0488" stroke="#3785D7" stroke-width="1.25" stroke-linecap="round" stroke-linejoin="round"/>
<path opacity="0.85" d="M250.291 11.6532L251.424 11.3906" stroke="#3785D7" stroke-width="1.25" stroke-linecap="round" stroke-linejoin="round"/>
</g>
</g>
<defs>
<clipPath id="clip0_746_353">
<rect width="300.96" height="176" fill="white"/>
</clipPath>
</defs>
</svg>
