<svg width="40" height="40" viewBox="0 0 40 40" fill="none" xmlns="http://www.w3.org/2000/svg">
<g id="56px / false">
<path id="Union" fill-rule="evenodd" clip-rule="evenodd" d="M8.31636 28.3453C7.39455 29.2671 7.39455 30.7616 8.31635 31.6834C9.23816 32.6052 10.7327 32.6052 11.6545 31.6834L19.9998 23.3381L28.3455 31.6837C29.2673 32.6056 30.7618 32.6056 31.6836 31.6837C32.6054 30.7619 32.6054 29.2674 31.6836 28.3456L23.338 20L31.6835 11.6545C32.6053 10.7327 32.6053 9.23816 31.6835 8.31635C30.7617 7.39455 29.2671 7.39455 28.3453 8.31635L19.9998 16.6618L11.6547 8.31667C10.7329 7.39487 9.23834 7.39487 8.31654 8.31667C7.39473 9.23848 7.39473 10.733 8.31654 11.6548L16.6617 20L8.31636 28.3453Z" fill="#F61414"/>
</g>
</svg>
