<svg width="60" height="60" viewBox="0 0 60 60" fill="none" xmlns="http://www.w3.org/2000/svg">
<circle cx="30" cy="30" r="29.5" stroke="#3A10E5"/>
<g clip-path="url(#clip0_948_15047)">
<path d="M22.4589 28.7966C22.5291 28.7852 22.6001 28.78 22.6711 28.7809H34.765L34.5013 28.6582C34.2436 28.5362 34.0091 28.3702 33.8083 28.1676L30.4169 24.7761C29.9702 24.3498 29.8952 23.6638 30.239 23.1509C30.6392 22.6044 31.4067 22.4857 31.9533 22.8859C31.9975 22.9183 32.0394 22.9535 32.0789 22.9915L38.2117 29.1243C38.691 29.6031 38.6914 30.3797 38.2126 30.8589C38.2123 30.8592 38.212 30.8596 38.2117 30.8599L32.0789 36.9927C31.5992 37.471 30.8226 37.47 30.3442 36.9903C30.3066 36.9525 30.2715 36.9124 30.239 36.8701C29.8952 36.3572 29.9702 35.6712 30.4169 35.2449L33.8022 31.8473C33.9821 31.6671 34.189 31.5161 34.4155 31.3996L34.7834 31.234H22.7386C22.112 31.2573 21.5623 30.8196 21.4446 30.2037C21.3361 29.535 21.7903 28.9051 22.4589 28.7966Z" fill="#3A10E5"/>
</g>
<defs>
<clipPath id="clip0_948_15047">
<rect width="17.1429" height="17.1429" fill="white" transform="matrix(-1 0 0 1 38.5714 21.4285)"/>
</clipPath>
</defs>
</svg>
