<svg width="301" height="176" viewBox="0 0 301 176" fill="none" xmlns="http://www.w3.org/2000/svg">
<g opacity="0.3">
<path fill-rule="evenodd" clip-rule="evenodd" d="M174.4 52.9051C177.391 55.3251 182.65 54.3266 186.469 50.5084C190.287 46.6901 191.285 41.4302 188.865 38.4404L188.886 38.4193L188.483 38.0163L186.469 36.0014V36.0015C183.352 32.8858 177.579 33.6075 173.573 37.6134C169.567 41.6193 168.846 47.3927 171.962 50.5084C171.969 50.5153 171.975 50.5223 171.982 50.5292L173.972 52.5189C173.973 52.5203 173.975 52.5217 173.976 52.5232C173.978 52.5246 173.98 52.526 173.981 52.5275L174.379 52.9262L174.4 52.9051Z" fill="#DDDDDD"/>
<path d="M186.468 36.0014L186.887 35.5813C186.655 35.3494 186.279 35.3494 186.047 35.5813L186.468 36.0014ZM186.468 36.0015L186.047 36.4215C186.279 36.6534 186.655 36.6534 186.887 36.4215L186.468 36.0015ZM171.981 50.5292L172.402 50.1091L172.399 50.1072L171.981 50.5292ZM186.45 50.4912C184.526 52.4157 182.237 53.5768 180.112 53.9194C177.987 54.2622 176.077 53.7839 174.798 52.506L173.959 53.3461C175.574 54.9615 177.906 55.4788 180.302 55.0923C182.699 54.7057 185.209 53.4127 187.291 51.3312L186.45 50.4912ZM188.465 38.8393C189.743 40.117 190.222 42.0281 189.879 44.1533C189.536 46.2777 188.375 48.5667 186.45 50.4912L187.291 51.3312C189.372 49.2499 190.664 46.7395 191.052 44.3425C191.438 41.9466 190.921 39.6146 189.306 37.9992L188.465 38.8393ZM188.465 38.8392V38.8393L189.306 37.9992L188.465 38.8392ZM186.047 36.4214L188.465 38.8392L189.306 37.9992L186.887 35.5813L186.047 36.4214ZM186.887 36.4215V36.4214L186.047 35.5813V35.5814L186.887 36.4215ZM173.993 38.0334C177.871 34.155 183.256 33.6299 186.047 36.4215L186.887 35.5814C183.448 32.1416 177.286 33.0597 173.152 37.1933L173.993 38.0334ZM172.381 50.0883C169.589 47.2966 170.114 41.9117 173.993 38.0334L173.152 37.1933C169.019 41.3269 168.1 47.4885 171.54 50.9284L172.381 50.0883ZM172.399 50.1072C172.393 50.1009 172.387 50.0946 172.381 50.0883L171.54 50.9284C171.548 50.9359 171.556 50.9436 171.563 50.9511L172.399 50.1072ZM174.795 52.5018L172.402 50.1092L171.561 50.9491L173.954 53.3419L174.795 52.5018ZM174.798 52.506C174.798 52.5056 174.797 52.505 174.796 52.5043C174.796 52.5036 174.795 52.5027 174.795 52.5018L173.954 53.3419C173.955 53.3423 173.955 53.3429 173.956 53.3436C173.957 53.3443 173.958 53.3452 173.959 53.3461L174.798 52.506Z" fill="#4C4C4C"/>
<path d="M171.961 50.5088C175.077 53.6245 180.85 52.9028 184.856 48.8969C188.862 44.8909 189.583 39.1176 186.468 36.0019C183.352 32.8862 177.579 33.6078 173.573 37.6138C169.567 41.6197 168.845 47.393 171.961 50.5088Z" fill="#EDEDED"/>
<path d="M171.961 50.5088C175.077 53.6245 180.85 52.9028 184.856 48.8969C188.862 44.8909 189.583 39.1176 186.468 36.0019C183.352 32.8862 177.579 33.6078 173.573 37.6138C169.567 41.6197 168.845 47.393 171.961 50.5088Z" stroke="#4C4C4C" stroke-width="1.35"/>
<path opacity="0.15" d="M173.573 48.8966C175.996 51.3199 180.486 50.7586 183.602 47.6429C186.718 44.5271 187.279 40.0368 184.856 37.6135C182.432 35.1901 177.942 35.7514 174.826 38.8671C171.71 41.9829 171.149 46.4732 173.573 48.8966Z" stroke="#4C4C4C" stroke-width="0.8"/>
<g opacity="0.4">
<path d="M183.268 42.7478C183.547 40.5097 181.959 38.9221 179.721 39.2019C177.483 39.4817 175.442 41.5228 175.162 43.7609C174.882 45.9991 176.47 47.5866 178.708 47.3069" stroke="#4C4C4C" stroke-width="1.5" stroke-linecap="round"/>
<path d="M183.445 39.0234L174.983 47.4858" stroke="#4C4C4C" stroke-width="1.35" stroke-linecap="round"/>
</g>
<path fill-rule="evenodd" clip-rule="evenodd" d="M184.716 126.85L187.558 129.69L187.533 129.716C190.376 133.229 189.203 139.41 184.717 143.897C180.23 148.383 174.049 149.557 170.536 146.713L170.511 146.738L170.063 146.29C170.055 146.282 170.046 146.273 170.037 146.264C170.029 146.255 170.02 146.247 170.012 146.239L167.694 143.921C167.686 143.913 167.678 143.905 167.67 143.897C164.008 140.235 164.856 133.451 169.564 128.743C174.271 124.036 181.056 123.188 184.716 126.85Z" fill="#DDDDDD"/>
<path d="M187.558 129.69L187.091 130.157L187.558 129.69ZM184.716 126.849L185.183 126.382C184.926 126.124 184.508 126.124 184.25 126.382L184.716 126.849ZM184.716 126.849L184.25 127.316C184.508 127.574 184.926 127.574 185.183 127.316L184.716 126.849ZM167.693 143.92L168.161 143.454L168.158 143.451L167.693 143.92ZM170.502 146.729L170.969 146.262L170.968 146.261L170.502 146.729ZM184.723 143.903C182.457 146.17 179.76 147.538 177.255 147.942C174.749 148.347 172.489 147.783 170.978 146.271L170.044 147.205C171.932 149.091 174.659 149.699 177.465 149.245C180.273 148.793 183.216 147.278 185.657 144.837L184.723 143.903ZM187.091 130.157C188.604 131.669 189.167 133.929 188.762 136.434C188.358 138.94 186.99 141.637 184.723 143.903L185.657 144.837C188.098 142.395 189.613 139.453 190.066 136.645C190.519 133.838 189.912 131.111 188.025 129.224L187.091 130.157ZM187.091 130.157L188.025 129.224H188.024L187.091 130.157ZM184.25 127.316L187.091 130.157L188.024 129.224L185.183 126.382L184.25 127.316ZM185.183 127.316L184.25 126.382L185.183 127.316ZM170.03 129.21C174.596 124.644 180.949 124.015 184.25 127.316L185.183 126.382C181.162 122.361 173.946 123.427 169.097 128.277L170.03 129.21ZM168.136 143.429C164.835 140.129 165.464 133.776 170.03 129.21L169.097 128.277C164.247 133.126 163.182 140.342 167.202 144.363L168.136 143.429ZM168.158 143.451C168.151 143.444 168.143 143.437 168.136 143.429L167.202 144.363C167.211 144.372 167.22 144.381 167.229 144.39L168.158 143.451ZM170.968 146.261L168.161 143.454L167.227 144.387L170.035 147.195L170.968 146.261ZM170.978 146.271C170.975 146.268 170.972 146.266 170.969 146.262L170.034 147.194C170.037 147.198 170.04 147.201 170.044 147.205L170.978 146.271Z" fill="#4C4C4C"/>
<path d="M167.669 143.896C171.331 147.558 178.115 146.71 182.822 142.002C187.53 137.295 188.378 130.51 184.716 126.849C181.055 123.188 174.271 124.036 169.563 128.743C164.856 133.451 164.008 140.235 167.669 143.896Z" fill="#EDEDED"/>
<path d="M167.669 143.896C171.331 147.558 178.115 146.71 182.822 142.002C187.53 137.295 188.378 130.51 184.716 126.849C181.055 123.188 174.271 124.036 169.563 128.743C164.856 133.451 164.008 140.235 167.669 143.896Z" stroke="#4C4C4C" stroke-width="1.5"/>
<path opacity="0.15" d="M169.563 142.003C172.411 144.851 177.688 144.191 181.349 140.53C185.01 136.868 185.67 131.592 182.822 128.744C179.975 125.896 174.698 126.556 171.037 130.217C167.375 133.879 166.716 139.155 169.563 142.003Z" stroke="#4C4C4C" stroke-width="0.940088"/>
<g opacity="0.4">
<path d="M180.955 134.777C181.285 132.148 179.419 130.282 176.789 130.611C174.158 130.94 171.76 133.338 171.431 135.968C171.102 138.598 172.968 140.464 175.598 140.135" stroke="#4C4C4C" stroke-width="1.76267" stroke-linecap="round"/>
<path d="M181.166 130.401L171.221 140.345" stroke="#4C4C4C" stroke-width="1.5864" stroke-linecap="round"/>
</g>
<path fill-rule="evenodd" clip-rule="evenodd" d="M105.516 91.6492L108.358 94.4899L108.333 94.5154C111.176 98.0284 110.003 104.209 105.517 108.697C101.03 113.183 94.8488 114.357 91.3358 111.513L91.3112 111.537L90.8632 111.089C90.8544 111.081 90.8456 111.073 90.8368 111.064C90.8289 111.055 90.8201 111.047 90.8113 111.038L88.4934 108.72C88.4855 108.712 88.4776 108.705 88.4696 108.697C84.8081 105.035 85.6561 98.251 90.3634 93.543C95.0705 88.8359 101.855 87.9877 105.516 91.6492Z" fill="#DDDDDD"/>
<path d="M105.516 91.6493L105.983 91.182C105.725 90.9242 105.307 90.9242 105.05 91.182L105.516 91.6493ZM105.516 91.6493L105.05 92.1157C105.307 92.3735 105.725 92.3735 105.983 92.1157L105.516 91.6493ZM88.4933 108.72L88.9606 108.254L88.958 108.251L88.4933 108.72ZM91.3014 111.528L91.7687 111.062L91.7678 111.061L91.3014 111.528ZM105.523 108.703C103.257 110.97 100.56 112.338 98.0545 112.742C95.5492 113.147 93.2893 112.583 91.7775 111.071L90.8438 112.005C92.7314 113.891 95.4585 114.498 98.2648 114.045C101.073 113.593 104.016 112.078 106.457 109.636L105.523 108.703ZM107.891 94.9572C109.404 96.469 109.967 98.7289 109.562 101.234C109.158 103.74 107.79 106.437 105.523 108.703L106.457 109.636C108.898 107.195 110.413 104.253 110.866 101.445C111.319 98.6382 110.712 95.9111 108.825 94.0235L107.891 94.9572ZM107.891 94.9572L108.825 94.0235H108.824L107.891 94.9572ZM105.05 92.1157L107.891 94.9572L108.824 94.0235L105.983 91.182L105.05 92.1157ZM105.983 92.1157L105.05 91.182L105.983 92.1157ZM90.8297 94.0103C95.396 89.444 101.749 88.8148 105.05 92.1157L105.983 91.182C101.962 87.161 94.7457 88.227 89.8969 93.0766L90.8297 94.0103ZM88.936 108.229C85.6347 104.928 86.2645 98.5758 90.8297 94.0103L89.8969 93.0766C85.0475 97.9254 83.9812 105.141 88.0023 109.163L88.936 108.229ZM88.958 108.251C88.9509 108.244 88.943 108.237 88.936 108.229L88.0023 109.163C88.0111 109.172 88.0199 109.181 88.0287 109.189L88.958 108.251ZM91.7678 111.061L88.9606 108.254L88.0269 109.187L90.835 111.995L91.7678 111.061ZM91.7775 111.071C91.7748 111.068 91.7722 111.066 91.7687 111.062L90.8341 111.994C90.8368 111.998 90.8403 112.001 90.8438 112.005L91.7775 111.071Z" fill="#4C4C4C"/>
<path d="M88.47 108.697C92.1313 112.358 98.9155 111.51 103.623 106.803C108.33 102.096 109.178 95.3113 105.517 91.6499C101.856 87.9886 95.0716 88.8366 90.3641 93.5441C85.6567 98.2515 84.8087 105.036 88.47 108.697Z" fill="#EDEDED"/>
<path d="M88.47 108.697C92.1313 112.358 98.9155 111.51 103.623 106.803C108.33 102.096 109.178 95.3113 105.517 91.6499C101.856 87.9886 95.0716 88.8366 90.3641 93.5441C85.6567 98.2515 84.8087 105.036 88.47 108.697Z" stroke="#4C4C4C" stroke-width="1.5"/>
<path opacity="0.15" d="M90.3642 106.803C93.2119 109.651 98.4885 108.991 102.15 105.33C105.811 101.668 106.471 96.3916 103.623 93.5439C100.775 90.6962 95.4987 91.3558 91.8374 95.0171C88.176 98.6785 87.5165 103.955 90.3642 106.803Z" stroke="#4C4C4C" stroke-width="0.940088"/>
<g opacity="0.4">
<path d="M101.755 99.5773C102.084 96.9479 100.219 95.0823 97.5884 95.4105C94.9581 95.7396 92.5601 98.1376 92.231 100.768C91.9019 103.398 93.7675 105.264 96.3978 104.935" stroke="#4C4C4C" stroke-width="1.76267" stroke-linecap="round"/>
<path d="M101.965 95.2012L92.0205 105.145" stroke="#4C4C4C" stroke-width="1.5864" stroke-linecap="round"/>
</g>
<path fill-rule="evenodd" clip-rule="evenodd" d="M57.5634 120.1C54.5736 117.68 49.3138 118.678 45.4955 122.496C41.6773 126.315 40.6789 131.574 43.0989 134.565L43.0778 134.586L43.4807 134.989L45.4956 137.003C48.6114 140.119 54.3847 139.398 58.3906 135.392C62.3965 131.386 63.1182 125.612 60.0025 122.496C59.9956 122.489 59.9885 122.483 59.9816 122.476L57.9918 120.486C57.9904 120.485 57.989 120.483 57.9876 120.482C57.9862 120.48 57.9847 120.479 57.9833 120.478L57.5846 120.079L57.5634 120.1Z" fill="#DDDDDD"/>
<path d="M43.0784 134.585L42.6583 135.005L43.0784 134.585ZM45.4962 137.003L45.0761 137.423C45.1876 137.534 45.3387 137.597 45.4962 137.597C45.6537 137.597 45.8048 137.534 45.9162 137.423L45.4962 137.003ZM45.4962 137.003L45.9162 136.583C45.6842 136.352 45.3081 136.352 45.0761 136.583L45.4962 137.003ZM59.9821 122.476L59.5621 122.896L59.564 122.897L59.9821 122.476ZM45.5132 122.514C47.4377 120.589 49.7268 119.427 51.851 119.085C53.9763 118.743 55.8874 119.221 57.1651 120.498L58.0052 119.659C56.3899 118.043 54.0579 117.526 51.6619 117.912C49.2649 118.299 46.7546 119.592 44.6731 121.673L45.5132 122.514ZM43.4983 134.166C42.2205 132.888 41.7422 130.977 42.085 128.851C42.4276 126.727 43.5887 124.438 45.5132 122.514L44.6731 121.673C42.5917 123.754 41.2988 126.265 40.9122 128.662C40.5257 131.058 41.0429 133.39 42.6583 135.005L43.4983 134.166ZM43.4984 134.166H43.4983L42.6583 135.005L43.4984 134.166ZM45.9162 136.583L43.4984 134.166L42.6583 135.005L45.0761 137.423L45.9162 136.583ZM45.0761 136.583L45.9162 137.423L45.0761 136.583ZM57.9711 134.971C54.0928 138.85 48.7079 139.374 45.9162 136.583L45.0761 137.423C48.5161 140.863 54.6777 139.945 58.8112 135.811L57.9711 134.971ZM59.583 122.917C62.3747 125.708 61.8495 131.093 57.9711 134.971L58.8112 135.811C62.9448 131.678 63.8629 125.516 60.4231 122.076L59.583 122.917ZM59.564 122.897C59.5704 122.903 59.5767 122.91 59.583 122.917L60.4231 122.076C60.4154 122.068 60.4078 122.061 60.4002 122.053L59.564 122.897ZM57.1695 120.503L59.5621 122.896L60.4021 122.055L58.0095 119.662L57.1695 120.503ZM57.1651 120.498C57.1657 120.499 57.1662 120.499 57.167 120.5C57.1676 120.501 57.1685 120.502 57.1695 120.503L58.0095 119.662C58.009 119.662 58.0085 119.661 58.0077 119.661C58.007 119.661 58.0062 119.66 58.0052 119.659L57.1651 120.498Z" fill="#4C4C4C"/>
<path d="M60.003 122.496C56.8873 119.38 51.114 120.102 47.108 124.108C43.1021 128.114 42.3804 133.887 45.4961 137.003C48.6119 140.119 54.3852 139.397 58.3911 135.391C62.3971 131.385 63.1187 125.612 60.003 122.496Z" fill="#EDEDED"/>
<path d="M60.003 122.496C56.8873 119.38 51.114 120.102 47.108 124.108C43.1021 128.114 42.3804 133.887 45.4961 137.003C48.6119 140.119 54.3852 139.397 58.3911 135.391C62.3971 131.385 63.1187 125.612 60.003 122.496Z" stroke="#4C4C4C" stroke-width="1.35"/>
<path opacity="0.15" d="M58.3904 124.108C55.967 121.685 51.4767 122.246 48.3609 125.362C45.2452 128.478 44.6839 132.968 47.1072 135.391C49.5306 137.815 54.0209 137.253 57.1367 134.138C60.2524 131.022 60.8137 126.532 58.3904 124.108Z" stroke="#4C4C4C" stroke-width="0.8"/>
<g opacity="0.4">
<path d="M48.697 130.256C48.4173 132.494 50.0048 134.082 52.243 133.802C54.4811 133.522 56.5222 131.481 56.802 129.243C57.0817 127.005 55.4942 125.417 53.256 125.697" stroke="#4C4C4C" stroke-width="1.5" stroke-linecap="round"/>
<path d="M48.5186 133.981L56.9809 125.519" stroke="#4C4C4C" stroke-width="1.35" stroke-linecap="round"/>
</g>
<path fill-rule="evenodd" clip-rule="evenodd" d="M195.724 87.5393C192.734 85.1194 187.474 86.1178 183.655 89.9357C179.837 93.754 178.839 99.0138 181.259 102.004L181.238 102.025L181.641 102.428L183.655 104.442H183.656C186.772 107.559 192.545 106.837 196.551 102.831C200.557 98.8254 201.278 93.0518 198.163 89.9357C198.156 89.9286 198.149 89.9225 198.142 89.9154L196.152 87.9254C196.151 87.924 196.15 87.9226 196.148 87.9211C196.146 87.9197 196.145 87.9183 196.144 87.9169L195.745 87.5181L195.724 87.5393Z" fill="#DDDDDD"/>
<path d="M183.655 104.443L183.235 104.864C183.468 105.095 183.843 105.095 184.076 104.864L183.655 104.443ZM183.656 104.443L184.076 104.023C183.843 103.792 183.468 103.792 183.235 104.023L183.656 104.443ZM198.142 89.916L197.721 90.3357L197.724 90.3375L198.142 89.916ZM183.673 89.9538C185.597 88.0293 187.886 86.868 190.011 86.5254C192.136 86.1827 194.047 86.6609 195.325 87.9388L196.164 87.0987C194.55 85.4833 192.218 84.9662 189.821 85.3526C187.424 85.7391 184.914 87.0321 182.832 89.1134L183.673 89.9538ZM181.658 101.606C180.38 100.328 179.902 98.4168 180.244 96.2916C180.587 94.1673 181.748 91.8784 183.673 89.9538L182.832 89.1134C180.751 91.1946 179.458 93.7053 179.071 96.1024C178.685 98.4986 179.202 100.831 180.818 102.445L181.658 101.606ZM181.658 101.606L180.818 102.445L181.658 101.606ZM184.076 104.023L181.658 101.606L180.818 102.445L183.235 104.864L184.076 104.023ZM183.235 104.023L184.076 104.864L183.235 104.023ZM196.131 102.411C192.252 106.29 186.867 106.815 184.076 104.023L183.235 104.864C186.675 108.304 192.837 107.385 196.97 103.251L196.131 102.411ZM197.742 90.3569C200.534 93.1482 200.009 98.5329 196.131 102.411L196.97 103.251C201.104 99.1181 202.023 92.9564 198.583 89.5165L197.742 90.3569ZM197.724 90.3375C197.73 90.3437 197.736 90.3498 197.742 90.3569L198.583 89.5165C198.575 89.5085 198.568 89.5015 198.56 89.4936L197.724 90.3375ZM195.329 87.943L197.721 90.3357L198.561 89.4953L196.169 87.103L195.329 87.943ZM195.325 87.9388C195.325 87.9393 195.326 87.9398 195.327 87.9405C195.327 87.9413 195.328 87.9421 195.329 87.943L196.169 87.103C196.169 87.1025 196.168 87.102 196.167 87.1012C196.166 87.1005 196.165 87.0996 196.164 87.0987L195.325 87.9388Z" fill="#4C4C4C"/>
<path d="M198.163 89.9366C195.047 86.8208 189.274 87.5425 185.268 91.5484C181.262 95.5544 180.541 101.328 183.656 104.443C186.772 107.559 192.545 106.837 196.551 102.832C200.557 98.8256 201.279 93.0523 198.163 89.9366Z" fill="#EDEDED"/>
<path d="M198.163 89.9366C195.047 86.8208 189.274 87.5425 185.268 91.5484C181.262 95.5544 180.541 101.328 183.656 104.443C186.772 107.559 192.545 106.837 196.551 102.832C200.557 98.8256 201.279 93.0523 198.163 89.9366Z" stroke="#4C4C4C" stroke-width="1.35"/>
<path opacity="0.15" d="M196.551 91.5487C194.128 89.1254 189.638 89.6867 186.522 92.8024C183.406 95.9182 182.845 100.409 185.268 102.832C187.692 105.255 192.182 104.694 195.298 101.578C198.414 98.4624 198.975 93.9721 196.551 91.5487Z" stroke="#4C4C4C" stroke-width="0.8"/>
<g opacity="0.4">
<path d="M186.857 97.6967C186.577 99.9346 188.165 101.522 190.403 101.242C192.641 100.962 194.682 98.9217 194.962 96.683C195.242 94.4451 193.654 92.8576 191.416 93.1375" stroke="#4C4C4C" stroke-width="1.5" stroke-linecap="round"/>
<path d="M186.679 101.421L195.141 92.959" stroke="#4C4C4C" stroke-width="1.35" stroke-linecap="round"/>
</g>
<path fill-rule="evenodd" clip-rule="evenodd" d="M115.875 123.143C115.882 123.136 115.889 123.129 115.896 123.122C119.012 120.006 124.785 120.727 128.791 124.734C132.797 128.74 133.519 134.513 130.402 137.629L130.388 137.643L127.985 140.046L127.964 140.025C124.974 142.445 119.714 141.447 115.896 137.629C112.077 133.81 111.079 128.551 113.499 125.56L113.478 125.539L113.858 125.16C113.866 125.152 113.873 125.144 113.881 125.136C113.889 125.129 113.896 125.121 113.904 125.113L115.875 123.143Z" fill="#DDDDDD"/>
<path d="M115.874 123.143L116.295 123.562L116.297 123.561L115.874 123.143ZM130.402 137.628L130.822 138.049L130.823 138.048L130.402 137.628ZM130.388 137.642L129.969 137.222H129.968L130.388 137.642ZM127.985 140.046L128.4 140.471L128.405 140.466L127.985 140.046ZM127.985 140.046L127.569 139.621L127.565 139.626L127.985 140.046ZM113.502 125.516L113.919 125.938L113.922 125.936L113.502 125.516ZM115.476 122.702C115.468 122.709 115.46 122.717 115.453 122.725L116.297 123.561C116.303 123.554 116.309 123.547 116.316 123.541L115.476 122.702ZM129.211 124.313C125.077 120.18 118.916 119.262 115.476 122.702L116.316 123.541C119.107 120.75 124.492 121.275 128.37 125.153L129.211 124.313ZM130.823 138.048C134.263 134.608 133.344 128.447 129.211 124.313L128.37 125.153C132.249 129.032 132.774 134.416 129.982 137.209L130.823 138.048ZM130.808 138.063L130.822 138.049L129.983 137.208L129.969 137.222L130.808 138.063ZM128.405 140.466L130.809 138.062L129.968 137.222L127.565 139.626L128.405 140.466ZM128.4 140.471L127.569 139.621L128.4 140.471ZM115.073 138.451C117.154 140.532 119.664 141.826 122.062 142.212C124.458 142.599 126.789 142.081 128.405 140.466L127.565 139.626C126.286 140.904 124.376 141.382 122.251 141.039C120.126 140.697 117.838 139.535 115.913 137.612L115.073 138.451ZM113.057 125.119C111.443 126.735 110.925 129.067 111.311 131.462C111.699 133.859 112.991 136.37 115.073 138.451L115.913 137.612C113.988 135.687 112.827 133.397 112.485 131.273C112.141 129.148 112.62 127.237 113.898 125.959L113.057 125.119ZM113.084 125.094C113.075 125.101 113.066 125.11 113.057 125.119L113.898 125.959C113.905 125.952 113.912 125.945 113.919 125.938L113.084 125.094ZM113.922 125.936L116.295 123.562L115.455 122.723L113.081 125.095L113.922 125.936Z" fill="#4C4C4C"/>
<path d="M115.897 123.121C112.781 126.237 113.502 132.01 117.508 136.016C121.514 140.022 127.288 140.744 130.403 137.628C133.519 134.512 132.797 128.739 128.791 124.733C124.786 120.727 119.012 120.005 115.897 123.121Z" fill="#EDEDED"/>
<path d="M115.897 123.121C112.781 126.237 113.502 132.01 117.508 136.016C121.514 140.022 127.288 140.744 130.403 137.628C133.519 134.512 132.797 128.739 128.791 124.733C124.786 120.727 119.012 120.005 115.897 123.121Z" stroke="#4C4C4C" stroke-width="1.35"/>
<path opacity="0.15" d="M117.508 124.733C115.084 127.156 115.646 131.646 118.761 134.762C121.877 137.878 126.367 138.439 128.791 136.016C131.214 133.592 130.653 129.102 127.537 125.986C124.421 122.871 119.931 122.309 117.508 124.733Z" stroke="#4C4C4C" stroke-width="0.8"/>
<g opacity="0.4">
<path d="M122.643 126.322C120.405 126.042 118.817 127.63 119.096 129.868C119.376 132.106 121.418 134.148 123.656 134.428C125.894 134.707 127.482 133.119 127.202 130.881" stroke="#4C4C4C" stroke-width="1.5" stroke-linecap="round"/>
<path d="M118.918 126.144L127.381 134.607" stroke="#4C4C4C" stroke-width="1.35" stroke-linecap="round"/>
</g>
<path fill-rule="evenodd" clip-rule="evenodd" d="M142.393 158.158C140.625 160.342 141.354 164.183 144.143 166.973C146.932 169.762 150.774 170.49 152.958 168.723L152.973 168.738L154.723 166.989L154.739 166.973C157.015 164.697 156.488 160.48 153.562 157.554C150.636 154.628 146.419 154.101 144.143 156.377C144.141 156.379 144.139 156.381 144.137 156.383L142.687 157.832C142.682 157.838 142.677 157.843 142.672 157.848C142.666 157.854 142.661 157.859 142.656 157.864L142.377 158.143L142.393 158.158Z" fill="#DDDDDD"/>
<path d="M142.383 158.137L142.694 158.448L142.695 158.447L142.383 158.137ZM152.973 168.738L153.285 169.05L153.286 169.049L152.973 168.738ZM152.988 168.723L152.677 168.413L152.677 168.413L152.988 168.723ZM154.723 166.989L154.413 166.676L154.412 166.677L154.723 166.989ZM154.739 166.973L155.05 167.284V167.284L154.739 166.973ZM144.137 156.383L144.449 156.694L144.137 156.383ZM142.073 157.825C142.071 157.827 142.068 157.829 142.066 157.831L142.689 158.454C142.69 158.452 142.692 158.45 142.694 158.448L142.073 157.825ZM142.066 157.831C140.885 159.013 140.507 160.719 140.79 162.47C141.072 164.222 142.017 166.057 143.538 167.578L144.16 166.955C142.755 165.551 141.908 163.88 141.658 162.33C141.408 160.779 141.757 159.386 142.689 158.454L142.066 157.831ZM143.538 167.578C145.059 169.099 146.894 170.044 148.646 170.327C150.397 170.609 152.103 170.232 153.285 169.05L152.662 168.428C151.731 169.359 150.337 169.708 148.786 169.458C147.235 169.208 145.565 168.361 144.16 166.955L143.538 167.578ZM153.286 169.049L153.3 169.034L152.677 168.413L152.662 168.428L153.286 169.049ZM153.3 169.035L155.034 167.299L154.412 166.677L152.677 168.413L153.3 169.035ZM155.033 167.3L155.05 167.284L154.429 166.661L154.413 166.676L155.033 167.3ZM155.05 167.284C157.566 164.768 156.894 160.264 153.873 157.243L153.251 157.865C156.082 160.697 156.464 164.626 154.428 166.661L155.05 167.284ZM153.873 157.243C150.852 154.223 146.348 153.549 143.833 156.065L144.455 156.687C146.49 154.652 150.419 155.034 153.251 157.865L153.873 157.243ZM143.833 156.065C143.83 156.068 143.827 156.07 143.826 156.072L144.449 156.694C144.45 156.692 144.453 156.689 144.455 156.687L143.833 156.065ZM142.695 158.447L144.449 156.694L143.826 156.071L142.073 157.825L142.695 158.447Z" fill="#4C4C4C"/>
<path d="M144.143 156.376C141.867 158.652 142.394 162.869 145.32 165.795C148.246 168.721 152.463 169.248 154.739 166.972C157.015 164.696 156.487 160.48 153.561 157.554C150.635 154.628 146.419 154.101 144.143 156.376Z" fill="#EDEDED"/>
<path d="M144.143 156.376C141.867 158.652 142.394 162.869 145.32 165.795C148.246 168.721 152.463 169.248 154.739 166.972C157.015 164.696 156.487 160.48 153.561 157.554C150.635 154.628 146.419 154.101 144.143 156.376Z" stroke="#4C4C4C"/>
<path opacity="0.15" d="M145.32 157.554C143.55 159.324 143.96 162.603 146.236 164.879C148.512 167.155 151.792 167.565 153.562 165.795C155.332 164.025 154.922 160.745 152.646 158.469C150.37 156.193 147.09 155.783 145.32 157.554Z" stroke="#4C4C4C" stroke-width="0.584324"/>
<g opacity="0.4">
<path d="M149.07 158.715C147.436 158.51 146.276 159.67 146.48 161.305C146.684 162.939 148.175 164.431 149.81 164.635C151.445 164.839 152.604 163.679 152.4 162.045" stroke="#4C4C4C" stroke-width="1.09561" stroke-linecap="round"/>
<path d="M146.351 158.584L152.531 164.765" stroke="#4C4C4C" stroke-width="0.986047" stroke-linecap="round"/>
</g>
<path fill-rule="evenodd" clip-rule="evenodd" d="M212.792 76.3185C211.024 78.5023 211.754 82.3441 214.542 85.133C217.331 87.9219 221.173 88.6508 223.357 86.8835L223.372 86.899L225.123 85.1491L225.138 85.1331C227.414 82.8573 226.887 78.6405 223.961 75.7145C221.035 72.7885 216.818 72.2614 214.542 74.5372C214.541 74.5393 214.538 74.5414 214.536 74.5434L213.087 75.9929C213.082 75.9982 213.076 76.0034 213.071 76.0088C213.066 76.0141 213.06 76.0194 213.055 76.0248L212.776 76.3031L212.792 76.3185Z" fill="#DDDDDD"/>
<path d="M212.783 76.2968L213.093 76.6085L213.094 76.6079L212.783 76.2968ZM223.373 86.8985L223.684 87.2096L223.685 87.2088L223.373 86.8985ZM223.387 86.8835L223.077 86.5724L223.076 86.5732L223.387 86.8835ZM225.123 85.1486L224.812 84.8366L224.811 84.8374L225.123 85.1486ZM225.139 85.1326L225.449 85.4445V85.4438L225.139 85.1326ZM214.536 74.5429L214.848 74.8541V74.8536L214.536 74.5429ZM212.472 75.9851C212.47 75.9872 212.468 75.9893 212.466 75.9915L213.088 76.6137C213.09 76.6121 213.091 76.6103 213.093 76.6085L212.472 75.9851ZM212.466 75.9915C211.284 77.1731 210.906 78.8785 211.189 80.63C211.471 82.3821 212.417 84.2169 213.937 85.7379L214.559 85.1157C213.155 83.7109 212.307 82.04 212.057 80.4899C211.808 78.939 212.156 77.5453 213.088 76.6137L212.466 75.9915ZM213.937 85.7379C215.459 87.259 217.293 88.2041 219.046 88.4866C220.797 88.7691 222.502 88.3916 223.684 87.2096L223.062 86.5873C222.13 87.5189 220.736 87.8681 219.185 87.618C217.635 87.3679 215.965 86.5205 214.559 85.1157L213.937 85.7379ZM223.685 87.2088L223.7 87.1939L223.076 86.5732L223.061 86.5882L223.685 87.2088ZM223.699 87.1947L225.433 85.4597L224.811 84.8374L223.077 86.5724L223.699 87.1947ZM225.433 85.4605L225.449 85.4445L224.828 84.8207L224.812 84.8366L225.433 85.4605ZM225.449 85.4438C227.965 82.9279 227.293 78.4234 224.273 75.4029L223.651 76.0251C226.482 78.8566 226.863 82.7858 224.827 84.8215L225.449 85.4438ZM224.273 75.4029C221.252 72.3824 216.748 71.7098 214.232 74.2256L214.854 74.8478C216.89 72.8121 220.819 73.1937 223.651 76.0251L224.273 75.4029ZM214.232 74.2256C214.229 74.2279 214.227 74.2302 214.225 74.2324L214.848 74.8536C214.85 74.8515 214.852 74.8497 214.854 74.8478L214.232 74.2256ZM213.094 76.6079L214.848 74.8541L214.226 74.2319L212.472 75.9857L213.094 76.6079Z" fill="#4C4C4C"/>
<path d="M214.543 74.5365C212.268 76.8122 212.795 81.0291 215.721 83.955C218.647 86.881 222.863 87.4081 225.139 85.1323C227.415 82.8566 226.888 78.6398 223.962 75.7138C221.036 72.7878 216.819 72.2607 214.543 74.5365Z" fill="#EDEDED"/>
<path d="M214.543 74.5365C212.268 76.8122 212.795 81.0291 215.721 83.955C218.647 86.881 222.863 87.4081 225.139 85.1323C227.415 82.8566 226.888 78.6398 223.962 75.7138C221.036 72.7878 216.819 72.2607 214.543 74.5365Z" stroke="#4C4C4C"/>
<path opacity="0.15" d="M215.721 75.7137C213.951 77.4837 214.361 80.7635 216.637 83.0392C218.912 85.315 222.192 85.725 223.962 83.9549C225.732 82.1849 225.322 78.9051 223.046 76.6294C220.771 74.3536 217.491 73.9437 215.721 75.7137Z" stroke="#4C4C4C" stroke-width="0.584324"/>
<g opacity="0.4">
<path d="M219.472 76.8749C217.837 76.6706 216.678 77.8301 216.882 79.4649C217.086 81.0996 218.577 82.5905 220.212 82.7948C221.847 82.9992 223.006 81.8396 222.801 80.2049" stroke="#4C4C4C" stroke-width="1.09561" stroke-linecap="round"/>
<path d="M216.751 76.7441L222.931 82.925" stroke="#4C4C4C" stroke-width="0.986047" stroke-linecap="round"/>
</g>
<path fill-rule="evenodd" clip-rule="evenodd" d="M113.601 10.9682C113.609 10.959 113.619 10.9499 113.628 10.9409C117.969 6.59945 126.014 7.60499 131.595 13.1868C137.177 18.7686 138.182 26.8129 133.841 31.1542L133.822 31.1733L130.472 34.523L130.443 34.4935C126.277 37.8655 118.948 36.4743 113.628 31.1541C108.307 25.8339 106.916 18.5049 110.288 14.339L110.259 14.3096L110.79 13.779C110.8 13.7687 110.81 13.7584 110.821 13.7482C110.83 13.7379 110.841 13.7277 110.851 13.7175L113.601 10.9682Z" fill="#DDDDDD"/>
<path d="M130.473 34.5228L130.939 34.9896L130.94 34.9883L130.473 34.5228ZM130.501 34.4945L130.034 34.0277L130.033 34.0289L130.501 34.4945ZM133.822 31.1732L133.356 30.7057V30.7065L133.822 31.1732ZM133.842 31.1541L134.307 31.6214L134.308 31.6207L133.842 31.1541ZM113.601 10.9679L114.067 11.4346L114.07 11.4326L113.601 10.9679ZM110.272 14.2971L110.737 14.7648L110.738 14.7637L110.272 14.2971ZM113.533 31.2488C110.83 28.5451 109.193 25.3243 108.71 22.3259C108.226 19.3264 108.898 16.6042 110.726 14.7761L109.792 13.8427C107.589 16.0459 106.874 19.2358 107.406 22.5361C107.939 25.8374 109.722 29.3041 112.6 32.1821L113.533 31.2488ZM130.006 34.0561C128.178 35.8843 125.455 36.5562 122.456 36.0725C119.458 35.5888 116.237 33.9524 113.533 31.2488L112.6 32.1821C115.478 35.0602 118.945 36.8431 122.246 37.3756C125.546 37.9079 128.736 37.1927 130.939 34.9896L130.006 34.0561ZM130.033 34.0289L130.005 34.0574L130.94 34.9883L130.968 34.9599L130.033 34.0289ZM133.356 30.7065L130.034 34.0277L130.968 34.9611L134.289 31.6398L133.356 30.7065ZM133.375 30.6867L133.356 30.7057L134.288 31.6405L134.307 31.6214L133.375 30.6867ZM131.129 13.6533C136.569 19.0932 137.355 26.7061 133.374 30.6874L134.308 31.6207C139.01 26.9193 137.786 18.4434 132.062 12.7199L131.129 13.6533ZM114.094 11.4073C118.076 7.42606 125.688 8.2133 131.129 13.6533L132.062 12.7199C126.339 6.99632 117.863 5.77248 113.162 10.474L114.094 11.4073ZM114.07 11.4326C114.078 11.4242 114.086 11.4158 114.094 11.4073L113.162 10.474C113.151 10.4837 113.141 10.4935 113.132 10.5033L114.07 11.4326ZM110.738 14.7637L114.067 11.4346L113.134 10.5013L109.805 13.8304L110.738 14.7637ZM110.726 14.7761C110.729 14.7724 110.734 14.7686 110.737 14.7648L109.806 13.8293C109.802 13.8337 109.797 13.8382 109.792 13.8427L110.726 14.7761Z" fill="#4C4C4C"/>
<path d="M113.628 10.9413C109.287 15.2826 110.292 23.3269 115.874 28.9087C121.456 34.4905 129.5 35.4961 133.841 31.1547C138.183 26.8133 137.177 18.769 131.595 13.1872C126.014 7.60545 117.969 6.5999 113.628 10.9413Z" fill="#EDEDED"/>
<path d="M113.628 10.9413C109.287 15.2826 110.292 23.3269 115.874 28.9087C121.456 34.4905 129.5 35.4961 133.841 31.1547C138.183 26.8133 137.177 18.769 131.595 13.1872C126.014 7.60545 117.969 6.5999 113.628 10.9413Z" stroke="#4C4C4C" stroke-width="1.5"/>
<path opacity="0.15" d="M115.874 13.1874C112.497 16.564 113.279 22.8207 117.62 27.1621C121.962 31.5034 128.218 32.2855 131.595 28.9089C134.972 25.5322 134.19 19.2755 129.848 14.9342C125.507 10.5928 119.25 9.81073 115.874 13.1874Z" stroke="#4C4C4C" stroke-width="1.1147"/>
<g opacity="0.4">
<path d="M123.029 15.401C119.91 15.0112 117.699 17.2232 118.089 20.3418C118.478 23.4603 121.322 26.3045 124.44 26.6942C127.559 27.084 129.771 24.872 129.382 21.7534" stroke="#4C4C4C" stroke-width="2.09006" stroke-linecap="round"/>
<path d="M117.839 15.1523L129.63 26.9435" stroke="#4C4C4C" stroke-width="1.88105" stroke-linecap="round"/>
</g>
<path fill-rule="evenodd" clip-rule="evenodd" d="M231.37 32.2625C231.362 32.2695 231.355 32.2765 231.348 32.2836C228.232 35.3994 222.46 34.6777 218.454 30.6718C214.447 26.6658 213.726 20.8925 216.842 17.7768L216.856 17.7629L219.259 15.3591L219.28 15.3802C222.27 12.9601 227.53 13.9586 231.348 17.7768C235.167 21.595 236.165 26.855 233.745 29.8448L233.766 29.8658L233.386 30.2452C233.379 30.2532 233.371 30.261 233.364 30.2688C233.356 30.2767 233.348 30.2844 233.34 30.2921L231.37 32.2625Z" fill="#DDDDDD"/>
<path d="M231.369 32.262L230.949 31.842L230.947 31.844L231.369 32.262ZM216.841 17.7764L216.421 17.3556V17.3563L216.841 17.7764ZM216.855 17.7625L217.274 18.1831L217.275 18.1825L216.855 17.7625ZM219.259 15.3586L218.843 14.9341L218.839 14.9386L219.259 15.3586ZM219.259 15.3586L219.675 15.7831L219.679 15.7786L219.259 15.3586ZM233.743 29.8889L233.324 29.4663L233.322 29.4688L233.743 29.8889ZM231.768 32.7032C231.776 32.6955 231.784 32.6878 231.791 32.68L230.947 31.844C230.941 31.8504 230.934 31.8568 230.928 31.8631L231.768 32.7032ZM218.033 31.0914C222.166 35.2249 228.328 36.143 231.768 32.7032L230.928 31.8631C228.136 34.6548 222.751 34.1297 218.873 30.2513L218.033 31.0914ZM216.421 17.3563C212.982 20.7962 213.899 26.9578 218.033 31.0914L218.873 30.2513C214.995 26.373 214.47 20.988 217.261 18.1964L216.421 17.3563ZM216.436 17.3417L216.421 17.3556L217.26 18.197L217.274 18.1831L216.436 17.3417ZM218.839 14.9386L216.435 17.3424L217.275 18.1825L219.679 15.7787L218.839 14.9386ZM218.843 14.9341V14.9342L219.675 15.7831V15.783L218.843 14.9341ZM232.171 16.9534C230.09 14.8719 227.579 13.579 225.182 13.1924C222.787 12.8059 220.454 13.3232 218.839 14.9385L219.679 15.7786C220.957 14.5008 222.867 14.0225 224.993 14.3652C227.117 14.7079 229.407 15.869 231.331 17.7934L232.171 16.9534ZM234.186 30.2855C235.801 28.6701 236.318 26.3381 235.932 23.9422C235.546 21.5452 234.252 19.0348 232.171 16.9534L231.331 17.7934C233.255 19.718 234.417 22.007 234.759 24.1313C235.102 26.2566 234.623 28.1676 233.346 29.4454L234.186 30.2855ZM234.16 30.3114C234.168 30.3028 234.177 30.2942 234.186 30.2855L233.346 29.4454C233.339 29.4524 233.332 29.4593 233.324 29.4663L234.16 30.3114ZM233.322 29.4688L230.949 31.842L231.789 32.6821L234.162 30.3089L233.322 29.4688Z" fill="#4C4C4C"/>
<path d="M231.348 32.2833C234.463 29.1675 233.742 23.3942 229.736 19.3883C225.73 15.3823 219.957 14.6607 216.841 17.7764C213.725 20.8922 214.447 26.6654 218.453 30.6714C222.459 34.6774 228.232 35.399 231.348 32.2833Z" fill="#EDEDED"/>
<path d="M231.348 32.2833C234.463 29.1675 233.742 23.3942 229.736 19.3883C225.73 15.3823 219.957 14.6607 216.841 17.7764C213.725 20.8922 214.447 26.6654 218.453 30.6714C222.459 34.6774 228.232 35.399 231.348 32.2833Z" stroke="#4C4C4C" stroke-width="1.35"/>
<path opacity="0.15" d="M229.735 30.6716C232.159 28.2482 231.597 23.7579 228.482 20.6422C225.366 17.5264 220.876 16.9651 218.452 19.3885C216.029 21.8119 216.59 26.3022 219.706 29.4179C222.822 32.5337 227.312 33.095 229.735 30.6716Z" stroke="#4C4C4C" stroke-width="0.8"/>
<g opacity="0.4">
<path d="M224.601 29.0823C226.84 29.362 228.427 27.7745 228.148 25.5363C227.868 23.2982 225.826 21.257 223.588 20.9773C221.35 20.6975 219.763 22.285 220.043 24.5231" stroke="#4C4C4C" stroke-width="1.5" stroke-linecap="round"/>
<path d="M228.326 29.2611L219.864 20.7988" stroke="#4C4C4C" stroke-width="1.35" stroke-linecap="round"/>
</g>
<path fill-rule="evenodd" clip-rule="evenodd" d="M90.0884 159.391C90.0823 159.397 90.0752 159.404 90.0691 159.411C88.0459 161.434 84.2984 160.965 81.6978 158.364C79.0972 155.764 78.6287 152.016 80.6514 149.993L80.6614 149.983L82.221 148.424L82.2346 148.437C84.1755 146.866 87.5903 147.515 90.0691 149.993C92.548 152.472 93.1957 155.886 91.6249 157.827L91.6381 157.841L91.3979 158.082C91.3908 158.089 91.3838 158.096 91.3767 158.103C91.3706 158.11 91.3635 158.116 91.3565 158.123L90.0884 159.391Z" fill="#DDDDDD"/>
<path d="M82.2213 148.424L81.9102 148.112L81.9091 148.114L82.2213 148.424ZM82.2039 148.441L82.515 148.752L82.5161 148.751L82.2039 148.441ZM80.6619 149.983L80.9726 150.294H80.9731L80.6619 149.983ZM80.6519 149.993L80.3413 149.681L80.3408 149.682L80.6519 149.993ZM90.0889 159.391L89.7783 159.079L89.7756 159.082L90.0889 159.391ZM91.628 157.852L91.3183 157.539L91.3174 157.54L91.628 157.852ZM90.0194 150.043C91.262 151.284 92.01 152.76 92.23 154.127C92.4508 155.494 92.142 156.716 91.328 157.53L91.9501 158.152C93.014 157.088 93.352 155.555 93.0985 153.987C92.846 152.419 92.0003 150.778 90.6424 149.421L90.0194 150.043ZM82.5325 148.734C83.3465 147.92 84.5679 147.612 85.9351 147.832C87.3018 148.053 88.7777 148.8 90.0194 150.043L90.6424 149.421C89.2837 148.062 87.6438 147.216 86.0753 146.964C84.5075 146.711 82.9743 147.048 81.9102 148.112L82.5325 148.734ZM82.5161 148.751L82.5335 148.733L81.9091 148.114L81.8917 148.131L82.5161 148.751ZM80.9731 150.294L82.515 148.752L81.8928 148.13L80.3508 149.671L80.9731 150.294ZM80.9625 150.305L80.9726 150.294L80.3514 149.671L80.3413 149.681L80.9625 150.305ZM82.0095 158.053C79.5034 155.547 79.1804 152.087 80.9631 150.304L80.3408 149.682C78.0781 151.944 78.692 155.98 81.3872 158.676L82.0095 158.053ZM89.758 159.1C87.9758 160.882 84.5155 160.559 82.0095 158.053L81.3872 158.676C84.0823 161.37 88.1177 161.984 90.3811 159.722L89.758 159.1ZM89.7756 159.082C89.7704 159.087 89.7642 159.094 89.758 159.1L90.3811 159.722C90.3881 159.714 90.3952 159.707 90.4022 159.7L89.7756 159.082ZM91.3174 157.54L89.7783 159.079L90.4004 159.702L91.9396 158.163L91.3174 157.54ZM91.328 157.53C91.3244 157.533 91.3218 157.536 91.3183 157.539L91.9378 158.164C91.9422 158.16 91.9457 158.156 91.9501 158.152L91.328 157.53Z" fill="#4C4C4C"/>
<path d="M90.0693 159.41C92.0919 157.388 91.6235 153.64 89.0229 151.039C86.4223 148.439 82.6743 147.97 80.6517 149.993C78.629 152.016 79.0975 155.763 81.6981 158.364C84.2987 160.965 88.0466 161.433 90.0693 159.41Z" fill="#EDEDED"/>
<path d="M90.0693 159.41C92.0919 157.388 91.6235 153.64 89.0229 151.039C86.4223 148.439 82.6743 147.97 80.6517 149.993C78.629 152.016 79.0975 155.763 81.6981 158.364C84.2987 160.965 88.0466 161.433 90.0693 159.41Z" stroke="#4C4C4C"/>
<path opacity="0.15" d="M89.0229 158.364C90.5961 156.791 90.2318 153.876 88.2091 151.853C86.1864 149.83 83.2713 149.466 81.6981 151.039C80.1249 152.612 80.4893 155.527 82.512 157.55C84.5347 159.573 87.4497 159.937 89.0229 158.364Z" stroke="#4C4C4C" stroke-width="0.519346"/>
<g opacity="0.4">
<path d="M85.6894 157.333C87.1423 157.514 88.1732 156.484 87.9914 155.031C87.8097 153.578 86.4846 152.253 85.0316 152.072C83.5787 151.889 82.5481 152.921 82.7297 154.374" stroke="#4C4C4C" stroke-width="0.973774" stroke-linecap="round"/>
<path d="M88.1083 157.449L82.6143 151.955" stroke="#4C4C4C" stroke-width="0.876397" stroke-linecap="round"/>
</g>
<path fill-rule="evenodd" clip-rule="evenodd" d="M120.889 68.7502C120.883 68.7568 120.876 68.7634 120.87 68.77C118.847 70.7927 115.099 70.3242 112.498 67.7236C109.898 65.123 109.43 61.3751 111.452 59.3524L111.462 59.3424L113.022 57.783L113.035 57.7966C114.976 56.2255 118.391 56.8736 120.87 59.3524C123.349 61.8312 123.996 65.2459 122.426 67.1868L122.439 67.2005L122.199 67.4414C122.191 67.4483 122.184 67.4552 122.177 67.462C122.171 67.4688 122.164 67.4757 122.157 67.4825L120.889 68.7502Z" fill="#DDDDDD"/>
<path d="M113.022 57.783L112.71 57.4719L112.709 57.473L113.022 57.783ZM113.004 57.8006L113.315 58.1117L113.316 58.1106L113.004 57.8006ZM111.462 59.3425L111.772 59.6541L111.773 59.6536L111.462 59.3425ZM111.452 59.3525L111.141 59.0409V59.0414L111.452 59.3525ZM120.889 68.7503L120.578 68.4392L120.575 68.4413L120.889 68.7503ZM122.428 67.2114L122.118 66.8989L122.117 66.9002L122.428 67.2114ZM120.819 59.4021C122.062 60.6443 122.81 62.1202 123.03 63.4868C123.251 64.8541 122.942 66.0754 122.128 66.8895L122.75 67.5118C123.814 66.4477 124.152 64.9144 123.898 63.3466C123.646 61.7781 122.8 60.1383 121.442 58.7799L120.819 59.4021ZM113.332 58.0942C114.146 57.2801 115.368 56.9713 116.735 57.1918C118.102 57.4123 119.578 58.16 120.819 59.4021L121.442 58.7799C120.084 57.4215 118.443 56.5761 116.875 56.3231C115.307 56.0703 113.774 56.4077 112.71 57.4719L113.332 58.0942ZM113.316 58.1106L113.333 58.093L112.709 57.473L112.692 57.4906L113.316 58.1106ZM111.773 59.6536L113.315 58.1117L112.692 57.4894L111.151 59.0314L111.773 59.6536ZM111.762 59.6642L111.772 59.6541L111.152 59.0308L111.141 59.0409L111.762 59.6642ZM112.809 67.4126C110.303 64.9065 109.98 61.4463 111.763 59.6636L111.141 59.0414C108.878 61.3041 109.492 65.3397 112.187 68.0348L112.809 67.4126ZM120.558 68.459C118.776 70.2416 115.316 69.9186 112.809 67.4126L112.187 68.0348C114.882 70.73 118.918 71.344 121.181 69.0812L120.558 68.459ZM120.575 68.4413C120.57 68.4472 120.564 68.4531 120.558 68.459L121.181 69.0812C121.188 69.0739 121.195 69.0666 121.202 69.0593L120.575 68.4413ZM122.117 66.9002L120.578 68.4392L121.2 69.0614L122.739 67.5225L122.117 66.9002ZM122.128 66.8895C122.124 66.8927 122.122 66.8958 122.118 66.8989L122.738 67.5238C122.742 67.5199 122.746 67.5158 122.75 67.5118L122.128 66.8895Z" fill="#4C4C4C"/>
<path d="M120.869 68.7708C122.892 66.7481 122.423 63.0002 119.823 60.3996C117.222 57.799 113.474 57.3305 111.451 59.3532C109.429 61.3759 109.897 65.1238 112.498 67.7244C115.098 70.325 118.846 70.7935 120.869 68.7708Z" fill="#EDEDED"/>
<path d="M120.869 68.7708C122.892 66.7481 122.423 63.0002 119.823 60.3996C117.222 57.799 113.474 57.3305 111.451 59.3532C109.429 61.3759 109.897 65.1238 112.498 67.7244C115.098 70.325 118.846 70.7935 120.869 68.7708Z" stroke="#4C4C4C"/>
<path opacity="0.15" d="M119.823 67.7243C121.396 66.1511 121.032 63.2361 119.009 61.2134C116.986 59.1907 114.071 58.8263 112.498 60.3995C110.925 61.9727 111.289 64.8878 113.312 66.9104C115.335 68.9331 118.25 69.2975 119.823 67.7243Z" stroke="#4C4C4C" stroke-width="0.519346"/>
<g opacity="0.4">
<path d="M116.49 66.6925C117.943 66.8741 118.973 65.8435 118.791 64.3906C118.61 62.9376 117.284 61.6125 115.832 61.4309C114.379 61.2493 113.348 62.2799 113.529 63.7329" stroke="#4C4C4C" stroke-width="0.973774" stroke-linecap="round"/>
<path d="M118.908 66.808L113.414 61.3145" stroke="#4C4C4C" stroke-width="0.876397" stroke-linecap="round"/>
</g>
<path fill-rule="evenodd" clip-rule="evenodd" d="M235.288 59.9504C235.282 59.957 235.275 59.9636 235.269 59.9702C233.246 61.9929 229.498 61.5244 226.898 58.9238C224.297 56.3232 223.829 52.5753 225.851 50.5526L225.861 50.5426L227.421 48.9831L227.435 48.9968C229.376 47.4257 232.79 48.0738 235.269 50.5526C237.748 53.0314 238.396 56.4461 236.825 58.387L236.838 58.4006L236.598 58.6416C236.591 58.6485 236.584 58.6554 236.577 58.6622C236.571 58.669 236.564 58.6759 236.557 58.6827L235.288 59.9504Z" fill="#DDDDDD"/>
<path d="M227.422 48.9832L227.11 48.6721L227.11 48.6732L227.422 48.9832ZM227.404 49.0008L227.715 49.3119L227.717 49.3108L227.404 49.0008ZM225.863 50.5427L226.172 50.8543L226.173 50.8538L225.863 50.5427ZM225.852 50.5527L225.541 50.2411V50.2416L225.852 50.5527ZM235.289 59.9505L234.979 59.6394L234.976 59.6415L235.289 59.9505ZM236.828 58.4116L236.519 58.0991L236.518 58.1004L236.828 58.4116ZM235.22 50.6023C236.462 51.8445 237.21 53.3204 237.43 54.687C237.651 56.0543 237.342 57.2756 236.528 58.0897L237.15 58.712C238.214 57.6479 238.552 56.1146 238.299 54.5468C238.046 52.9783 237.2 51.3385 235.843 49.9801L235.22 50.6023ZM227.733 49.2944C228.547 48.4803 229.768 48.1715 231.136 48.392C232.502 48.6125 233.978 49.3602 235.22 50.6023L235.843 49.9801C234.484 48.6217 232.844 47.7763 231.275 47.5233C229.707 47.2705 228.174 47.6079 227.11 48.6721L227.733 49.2944ZM227.717 49.3108L227.733 49.2932L227.11 48.6732L227.092 48.6908L227.717 49.3108ZM226.173 50.8538L227.715 49.3119L227.093 48.6896L225.551 50.2316L226.173 50.8538ZM226.163 50.8644L226.172 50.8543L225.552 50.231L225.541 50.2411L226.163 50.8644ZM227.21 58.6128C224.704 56.1067 224.381 52.6465 226.164 50.8638L225.541 50.2416C223.278 52.5043 223.892 56.5399 226.588 59.235L227.21 58.6128ZM234.958 59.6592C233.176 61.4418 229.716 61.1188 227.21 58.6128L226.588 59.235C229.282 61.9302 233.318 62.5442 235.581 60.2814L234.958 59.6592ZM234.976 59.6415C234.971 59.6474 234.964 59.6533 234.958 59.6592L235.581 60.2814C235.588 60.2741 235.595 60.2668 235.602 60.2595L234.976 59.6415ZM236.518 58.1004L234.979 59.6394L235.601 60.2616L237.14 58.7227L236.518 58.1004ZM236.528 58.0897C236.525 58.0929 236.522 58.0959 236.519 58.0991L237.138 58.724C237.142 58.7201 237.146 58.716 237.15 58.712L236.528 58.0897Z" fill="#4C4C4C"/>
<path d="M235.269 59.97C237.292 57.9474 236.824 54.1994 234.223 51.5988C231.622 48.9982 227.875 48.5297 225.852 50.5524C223.829 52.5751 224.298 56.323 226.898 58.9236C229.499 61.5242 233.247 61.9927 235.269 59.97Z" fill="#EDEDED"/>
<path d="M235.269 59.97C237.292 57.9474 236.824 54.1994 234.223 51.5988C231.622 48.9982 227.875 48.5297 225.852 50.5524C223.829 52.5751 224.298 56.323 226.898 58.9236C229.499 61.5242 233.247 61.9927 235.269 59.97Z" stroke="#4C4C4C"/>
<path opacity="0.15" d="M234.223 58.9235C235.796 57.3503 235.432 54.4353 233.409 52.4126C231.387 50.3899 228.472 50.0255 226.898 51.5987C225.325 53.1719 225.69 56.087 227.712 58.1097C229.735 60.1324 232.65 60.4967 234.223 58.9235Z" stroke="#4C4C4C" stroke-width="0.519346"/>
<g opacity="0.4">
<path d="M230.89 57.8927C232.343 58.0743 233.374 57.0437 233.191 55.5908C233.01 54.1378 231.685 52.8127 230.232 52.6311C228.779 52.4495 227.749 53.4801 227.93 54.9331" stroke="#4C4C4C" stroke-width="0.973774" stroke-linecap="round"/>
<path d="M233.308 58.0082L227.814 52.5146" stroke="#4C4C4C" stroke-width="0.876397" stroke-linecap="round"/>
</g>
</g>
<g opacity="0.75">
<path fill-rule="evenodd" clip-rule="evenodd" d="M35.6346 21.7885C34.7406 21.2107 33.5839 21.9615 33.7476 23.0133L33.7825 23.2372C34.2357 26.1477 33.9858 29.0943 33.0903 31.843C27.5952 37.3964 24.6315 44.7273 25.5335 52.2811L22.0593 53.3709C21.1227 53.6648 20.6016 54.6623 20.8955 55.5989L23.8217 64.9264C24.1156 65.8631 25.1131 66.3841 26.0496 66.0903L30.9528 64.552C33.5491 67.6099 36.9242 70.0968 40.805 71.8442L43.0654 79.5098C43.3174 80.3642 44.1629 80.9002 45.0432 80.7633L53.3839 79.467C54.2642 79.3302 54.9072 78.5629 54.888 77.6722L54.8237 74.7048C56.5145 74.6867 58.233 74.5471 59.9663 74.2777C62.6335 73.8631 65.1746 73.1664 67.5527 72.23L68.5323 75.5517C68.7842 76.4062 69.6298 76.9421 70.5101 76.8053L78.8508 75.509C79.7311 75.3722 80.3741 74.6048 80.3548 73.7142L80.1414 63.8543C80.1388 63.7295 80.1234 63.6082 80.0966 63.4918C84.8038 58.0718 87.2327 51.2294 86.3147 44.2097L87.9867 42.4538C89.8152 40.5337 90.4286 37.7587 89.5812 35.2465L88.7223 32.699C88.4697 31.9504 87.3753 32.0719 87.293 32.8576C87.0879 34.8168 85.919 36.466 84.2942 37.3744C79.2079 26.7003 66.0479 20.2695 51.9136 22.4662C47.8787 23.0933 44.1329 24.3662 40.8025 26.1377C39.4426 24.5918 37.872 23.2349 36.1313 22.1096L35.6346 21.7885Z" fill="white"/>
<path d="M33.5436 23.0617L32.8914 23.1633L33.5436 23.0617ZM35.4306 21.837L35.0722 22.3913L35.4306 21.837ZM33.5784 23.2856L34.2306 23.184L33.5784 23.2856ZM32.8863 31.8914L33.3554 32.3557L33.4654 32.2445L33.5138 32.0959L32.8863 31.8914ZM25.3294 52.3295L25.527 52.9592L26.0498 52.7952L25.9847 52.2512L25.3294 52.3295ZM21.8552 53.4194L22.0528 54.0491L21.8552 53.4194ZM20.6914 55.6474L20.0616 55.845L20.6914 55.6474ZM23.6176 64.9749L24.2474 64.7773L23.6176 64.9749ZM25.8456 66.1388L26.0432 66.7685L25.8456 66.1388ZM30.7488 64.6005L31.2519 64.1733L30.9687 63.8398L30.5511 63.9708L30.7488 64.6005ZM40.601 71.8926L41.2341 71.7059L41.1484 71.4152L40.872 71.2908L40.601 71.8926ZM42.8613 79.5581L43.4944 79.3715L42.8613 79.5581ZM54.6838 77.7207L55.3437 77.7065L54.6838 77.7207ZM54.6197 74.7533L54.6126 74.0933L53.9453 74.1004L53.9598 74.7675L54.6197 74.7533ZM67.3487 72.2784L67.9818 72.0917L67.7778 71.4001L67.1069 71.6643L67.3487 72.2784ZM68.3281 75.6002L67.6951 75.7868L68.3281 75.6002ZM80.1508 73.7626L80.8106 73.7484L80.1508 73.7626ZM79.9374 63.9027L80.5972 63.8884L79.9374 63.9027ZM79.8925 63.5402L79.3942 63.1074L79.1741 63.3609L79.2493 63.688L79.8925 63.5402ZM86.1107 44.2582L85.6326 43.803L85.4154 44.0313L85.4562 44.3438L86.1107 44.2582ZM87.7826 42.5022L87.3046 42.0471L87.7826 42.5022ZM89.377 35.2949L90.0027 35.084L89.377 35.2949ZM88.5182 32.7474L89.143 32.5365L88.5182 32.7474ZM87.0889 32.9061L86.4326 32.8374L87.0889 32.9061ZM84.0901 37.4229L83.4943 37.7068L83.7973 38.3427L84.4123 37.9989L84.0901 37.4229ZM40.5985 26.1861L40.1029 26.622L40.4476 27.0139L40.9084 26.7688L40.5985 26.1861ZM35.9272 22.158L35.5689 22.7123L35.9272 22.158ZM34.1958 22.9602C34.1196 22.4717 34.657 22.1228 35.0722 22.3913L35.7888 21.2828C34.4162 20.3954 32.64 21.5483 32.8914 23.1633L34.1958 22.9602ZM34.2306 23.184L34.1958 22.9602L32.8914 23.1633L32.9263 23.3871L34.2306 23.184ZM33.5138 32.0959C34.4412 29.2495 34.6999 26.1982 34.2306 23.184L32.9263 23.3871C33.3634 26.1942 33.1224 29.0359 32.2588 31.6869L33.5138 32.0959ZM25.9847 52.2512C25.1102 44.9268 27.9793 37.7887 33.3554 32.3557L32.4171 31.4272C26.8028 37.1011 23.7448 44.6247 24.6741 52.4077L25.9847 52.2512ZM22.0528 54.0491L25.527 52.9592L25.1318 51.6997L21.6577 52.7897L22.0528 54.0491ZM21.3211 55.4498C21.1364 54.8609 21.464 54.2339 22.0528 54.0491L21.6577 52.7897C20.3732 53.1926 19.6587 54.5605 20.0616 55.845L21.3211 55.4498ZM24.2474 64.7773L21.3211 55.4498L20.0616 55.845L22.9879 65.1724L24.2474 64.7773ZM25.648 65.509C25.0592 65.6937 24.4322 65.3661 24.2474 64.7773L22.9879 65.1724C23.3909 66.4569 24.7588 67.1714 26.0432 66.7685L25.648 65.509ZM30.5511 63.9708L25.648 65.509L26.0432 66.7685L30.9464 65.2303L30.5511 63.9708ZM40.872 71.2908C37.0736 69.5805 33.78 67.1508 31.2519 64.1733L30.2456 65.0277C32.9102 68.1658 36.3668 70.71 40.3301 72.4944L40.872 71.2908ZM43.4944 79.3715L41.2341 71.7059L39.9679 72.0793L42.2282 79.7449L43.4944 79.3715ZM44.7377 80.1596C44.1844 80.2457 43.6528 79.9087 43.4944 79.3715L42.2282 79.7449C42.5738 80.9166 43.7334 81.6516 44.9405 81.464L44.7377 80.1596ZM53.0784 78.8633L44.7377 80.1596L44.9405 81.464L53.2812 80.1676L53.0784 78.8633ZM54.024 77.735C54.0361 78.2949 53.6319 78.7773 53.0784 78.8633L53.2812 80.1676C54.4884 79.98 55.3701 78.9278 55.3437 77.7065L54.024 77.735ZM53.9598 74.7675L54.024 77.735L55.3437 77.7065L55.2795 74.7389L53.9598 74.7675ZM59.6608 73.674C57.9588 73.9386 56.2719 74.0756 54.6126 74.0933L54.6266 75.4132C56.349 75.3949 58.0991 75.2526 59.8635 74.9784L59.6608 73.674ZM67.1069 71.6643C64.774 72.5829 62.2801 73.2669 59.6608 73.674L59.8635 74.9784C62.5789 74.5563 65.1671 73.8468 67.5905 72.8925L67.1069 71.6643ZM68.9612 75.4134L67.9818 72.0917L66.7156 72.4651L67.6951 75.7868L68.9612 75.4134ZM70.2046 76.2016C69.6512 76.2876 69.1196 75.9507 68.9612 75.4134L67.6951 75.7868C68.0406 76.9585 69.2002 77.6935 70.4073 77.5059L70.2046 76.2016ZM78.5454 74.9052L70.2046 76.2016L70.4073 77.5059L78.748 76.2096L78.5454 74.9052ZM79.4909 73.777C79.503 74.3368 79.0987 74.8193 78.5454 74.9052L78.748 76.2096C79.9552 76.0219 80.837 74.9697 80.8106 73.7484L79.4909 73.777ZM79.2775 63.917L79.4909 73.777L80.8106 73.7484L80.5972 63.8884L79.2775 63.917ZM79.2493 63.688C79.266 63.7608 79.2758 63.8373 79.2775 63.917L80.5972 63.8884C80.5936 63.7185 80.5725 63.5526 80.5358 63.3925L79.2493 63.688ZM85.4562 44.3438C86.3464 51.1511 83.9953 57.8097 79.3942 63.1074L80.3908 63.973C85.2042 58.4308 87.7108 51.4046 86.765 44.1726L85.4562 44.3438ZM86.5886 44.7133L88.2603 42.9574L87.3046 42.0471L85.6326 43.803L86.5886 44.7133ZM88.2603 42.9574C90.2579 40.8598 90.9285 37.8284 90.0027 35.084L88.7522 35.506C89.5214 37.786 88.9643 40.3045 87.3046 42.0471L88.2603 42.9574ZM90.0027 35.084L89.143 32.5365L87.8925 32.9585L88.7522 35.506L90.0027 35.084ZM89.143 32.5365C88.6642 31.1163 86.5886 31.3468 86.4326 32.8374L87.7453 32.9748C87.7477 32.952 87.7526 32.9407 87.7547 32.9366C87.7568 32.9323 87.759 32.9296 87.7617 32.9271C87.7681 32.9211 87.785 32.9104 87.8124 32.9073C87.8398 32.9043 87.8585 32.911 87.8662 32.9155C87.8693 32.9174 87.8721 32.9196 87.8751 32.9233C87.878 32.9268 87.8852 32.9367 87.8925 32.9585L89.143 32.5365ZM86.4326 32.8374C86.251 34.5718 85.2159 36.0373 83.768 36.8468L84.4123 37.9989C86.2141 36.9916 87.5168 35.1589 87.7453 32.9748L86.4326 32.8374ZM51.8109 23.1669C65.7104 21.0066 78.5553 27.3418 83.4943 37.7068L84.6859 37.139C79.4524 26.1557 65.9773 19.6293 51.6082 21.8625L51.8109 23.1669ZM40.9084 26.7688C44.1735 25.0322 47.8488 23.7827 51.8109 23.1669L51.6082 21.8625C47.5006 22.5009 43.6843 23.7972 40.2885 25.6034L40.9084 26.7688ZM35.5689 22.7123C37.2585 23.8045 38.7829 25.1215 40.1029 26.622L41.094 25.7502C39.6942 24.1589 38.0774 22.7622 36.2855 21.6038L35.5689 22.7123ZM35.0722 22.3913L35.5689 22.7123L36.2855 21.6038L35.7888 21.2828L35.0722 22.3913Z" fill="#4C4C4C"/>
<path d="M24.2002 55.8809L26.4002 62.4809" stroke="#DDDDDD" stroke-width="1.5" stroke-linecap="round"/>
<path d="M67.3203 27.2803C70.6819 28.0273 75.6287 31.3108 79.2003 35.785M80.9603 38.2803C80.8178 38.0488 80.6711 37.8195 80.5203 37.5925" stroke="#DDDDDD" stroke-width="1.5" stroke-linecap="round"/>
<path d="M32.8285 47.2281C32.7154 46.5006 32.034 46.0025 31.3065 46.1156C30.579 46.2287 30.0809 46.9101 30.194 47.6376L30.6034 50.272C30.7165 50.9995 31.3979 51.4976 32.1254 51.3846C32.8529 51.2715 33.351 50.5901 33.2379 49.8626L32.8285 47.2281Z" fill="#4C4C4C"/>
<path d="M56.8564 74.5221L65.638 73.1572L65.7765 74.0483C65.8885 74.7687 65.3953 75.4434 64.6749 75.5553L58.502 76.5148C57.7816 76.6267 57.1069 76.1335 56.9949 75.4131L56.8564 74.5221Z" fill="#4C4C4C"/>
<path d="M52.8048 29.4357C57.6404 28.9475 61.1646 24.6317 60.6764 19.7961C60.1882 14.9606 55.8724 11.4364 51.0368 11.9246C46.2013 12.4128 42.677 16.7286 43.1653 21.5642C43.6535 26.3997 47.9693 29.924 52.8048 29.4357Z" fill="#F7F7F7"/>
<path d="M52.8048 29.4357C57.6404 28.9475 61.1646 24.6317 60.6764 19.7961C60.1882 14.9606 55.8724 11.4364 51.0368 11.9246C46.2013 12.4128 42.677 16.7286 43.1653 21.5642C43.6535 26.3997 47.9693 29.924 52.8048 29.4357Z" stroke="#4C4C4C" stroke-width="1.35"/>
<path opacity="0.15" d="M52.6079 27.4908C56.3689 27.1111 59.11 23.7544 58.7302 19.9934C58.3505 16.2324 54.9938 13.4913 51.2328 13.871C47.4717 14.2508 44.7307 17.6075 45.1104 21.3685C45.4901 25.1295 48.8469 27.8706 52.6079 27.4908Z" stroke="#4C4C4C" stroke-width="0.8"/>
<g opacity="0.4">
<path d="M54.3949 17.6513C52.7218 16.2851 50.2578 16.5339 48.8916 18.207C47.5254 19.8801 47.7741 22.3439 49.4473 23.7102C51.1204 25.0764 53.5842 24.8277 54.9505 23.1546" stroke="#4C4C4C" stroke-width="1.5" stroke-linecap="round"/>
<path d="M51.4053 15.5732L52.4366 25.788" stroke="#4C4C4C" stroke-width="1.35" stroke-linecap="round"/>
</g>
<path opacity="0.2" fill-rule="evenodd" clip-rule="evenodd" d="M60.4483 22.8647C59.558 26.3394 56.5814 29.0552 52.8049 29.4365C49.3836 29.7819 46.2225 28.1187 44.4932 25.4035C46.9413 24.3309 49.6034 23.5438 52.424 23.1055C55.1633 22.6797 57.8601 22.6127 60.4483 22.8647Z" fill="#4C4C4C"/>
<path d="M52.4233 25.7451C49.3474 26.2231 46.4601 27.1159 43.833 28.3413L44.8796 33.8804L62.0396 31.2404L61.3963 25.6116C58.5213 25.2413 55.4991 25.267 52.4233 25.7451Z" fill="white"/>
<path d="M43.833 28.3413C46.4601 27.1159 49.3474 26.2231 52.4233 25.7451C55.4991 25.267 58.5213 25.2413 61.3962 25.6116" stroke="#4C4C4C" stroke-width="1.5" stroke-linecap="round"/>
</g>
<g opacity="0.8">
<path fill-rule="evenodd" clip-rule="evenodd" d="M258.961 95.3559C259.846 94.5666 261.247 95.1949 261.247 96.3811V96.6328C261.246 99.9134 262.025 103.113 263.48 105.985C270.476 111.155 274.992 118.716 275.291 127.181L279.3 127.787C280.381 127.949 281.125 128.958 280.962 130.039L279.337 140.804C279.174 141.884 278.166 142.628 277.084 142.465L271.426 141.611C269.092 145.42 265.804 148.733 261.832 151.32L260.656 160.142C260.525 161.125 259.686 161.859 258.694 161.859H249.294C248.302 161.859 247.464 161.125 247.332 160.142L246.895 156.865C245.032 157.135 243.117 157.274 241.164 157.274C238.158 157.274 235.243 156.943 232.466 156.319L231.956 160.142C231.825 161.125 230.986 161.859 229.994 161.859H220.595C219.602 161.859 218.763 161.125 218.632 160.142L217.181 149.256C217.163 149.118 217.159 148.981 217.169 148.849C211.062 143.69 207.219 136.576 207.028 128.695L204.888 127.048C202.548 125.249 201.397 122.3 201.901 119.39L202.411 116.441C202.561 115.574 203.786 115.52 204.01 116.37C204.571 118.491 206.14 120.106 208.083 120.828C211.854 108.213 225.235 98.8856 241.164 98.8856C245.711 98.8856 250.051 99.6459 254.018 101.025C255.25 99.0915 256.747 97.3298 258.47 95.7942L258.961 95.3559Z" fill="white"/>
<path d="M261.247 96.3809L260.587 96.38L261.247 96.3809ZM258.961 95.3557L258.521 94.8629L258.961 95.3557ZM261.247 96.6326H261.907H261.247ZM263.48 105.984L263.088 106.515L262.962 106.422L262.891 106.283L263.48 105.984ZM275.291 127.181L275.192 127.834L274.65 127.752L274.631 127.205L275.291 127.181ZM279.3 127.786L279.399 127.133L279.3 127.786ZM280.961 130.039L280.309 129.941L280.961 130.039ZM279.337 140.803L278.684 140.705L279.337 140.803ZM277.084 142.465L277.183 141.812L277.084 142.465ZM271.426 141.611L270.863 141.266L271.092 140.893L271.524 140.958L271.426 141.611ZM261.832 151.32L261.177 151.232L261.218 150.932L261.472 150.767L261.832 151.32ZM260.655 160.141L261.31 160.228L260.655 160.141ZM247.332 160.141L246.677 160.228L247.332 160.141ZM246.895 156.865L246.801 156.212L247.462 156.116L247.55 156.778L246.895 156.865ZM232.465 156.319L231.811 156.231L231.907 155.517L232.61 155.674L232.465 156.319ZM231.956 160.141L231.301 160.054L231.956 160.141ZM218.632 160.141L217.978 160.228L218.632 160.141ZM217.181 149.256L216.526 149.343L217.181 149.256ZM217.168 148.849L217.594 148.345L217.85 148.561L217.827 148.896L217.168 148.849ZM207.028 128.694L207.43 128.172L207.68 128.364L207.688 128.679L207.028 128.694ZM204.888 127.048L205.29 126.525L204.888 127.048ZM201.9 119.39L201.25 119.278L201.9 119.39ZM202.411 116.44L203.061 116.552L202.411 116.44ZM204.01 116.37L203.372 116.539L204.01 116.37ZM208.082 120.827L208.715 121.016L208.513 121.691L207.853 121.446L208.082 120.827ZM254.018 101.025L254.575 101.379L254.294 101.82L253.801 101.649L254.018 101.025ZM258.469 95.7939L258.03 95.3011L258.469 95.7939ZM260.587 96.38C260.587 95.7649 259.859 95.4384 259.4 95.8485L258.521 94.8629C259.832 93.6951 261.907 94.6253 261.907 96.3809L260.587 96.38ZM260.587 96.6326V96.38L261.907 96.3809V96.6326H260.587ZM262.891 106.283C261.389 103.32 260.586 100.018 260.587 96.6326H261.907C261.906 99.8085 262.659 102.906 264.069 105.686L262.891 106.283ZM274.631 127.205C274.339 118.969 269.948 111.586 263.088 106.515L263.873 105.453C271.005 110.725 275.643 118.461 275.95 127.158L274.631 127.205ZM279.201 128.439L275.192 127.834L275.389 126.529L279.399 127.133L279.201 128.439ZM280.309 129.941C280.418 129.22 279.922 128.548 279.201 128.439L279.399 127.133C280.84 127.352 281.832 128.696 281.614 130.138L280.309 129.941ZM278.684 140.705L280.309 129.941L281.614 130.138L279.99 140.902L278.684 140.705ZM277.183 141.812C277.903 141.921 278.576 141.425 278.684 140.705L279.99 140.902C279.772 142.343 278.427 143.335 276.986 143.118L277.183 141.812ZM271.524 140.958L277.183 141.812L276.986 143.118L271.327 142.263L271.524 140.958ZM261.472 150.767C265.368 148.23 268.584 144.985 270.863 141.266L271.989 141.955C269.6 145.854 266.239 149.237 262.192 151.873L261.472 150.767ZM260.002 160.054L261.177 151.232L262.486 151.407L261.31 160.228L260.002 160.054ZM258.694 161.199C259.355 161.199 259.914 160.71 260.002 160.054L261.31 160.228C261.135 161.54 260.017 162.519 258.694 162.519V161.199ZM249.294 161.199H258.694V162.519H249.294V161.199ZM247.986 160.054C248.074 160.71 248.633 161.199 249.294 161.199V162.519C247.971 162.519 246.853 161.54 246.677 160.228L247.986 160.054ZM247.55 156.778L247.986 160.054L246.677 160.228L246.241 156.952L247.55 156.778ZM241.163 156.614C243.085 156.614 244.969 156.477 246.801 156.212L246.99 157.518C245.095 157.792 243.149 157.934 241.163 157.934V156.614ZM232.61 155.674C235.34 156.288 238.207 156.614 241.163 156.614V157.934C238.109 157.934 235.145 157.597 232.32 156.963L232.61 155.674ZM231.301 160.054L231.811 156.231L233.119 156.406L232.61 160.228L231.301 160.054ZM229.994 161.199C230.655 161.199 231.214 160.71 231.301 160.054L232.61 160.228C232.435 161.54 231.316 162.519 229.994 162.519V161.199ZM220.594 161.199H229.994V162.519H220.594V161.199ZM219.287 160.054C219.374 160.71 219.933 161.199 220.594 161.199V162.519C219.272 162.519 218.153 161.54 217.978 160.228L219.287 160.054ZM217.835 149.168L219.287 160.054L217.978 160.228L216.526 149.343L217.835 149.168ZM217.827 148.896C217.82 148.984 217.822 149.075 217.835 149.168L216.526 149.343C216.502 149.16 216.497 148.978 216.509 148.802L217.827 148.896ZM207.688 128.679C207.873 136.346 211.611 143.29 217.594 148.345L216.743 149.352C210.512 144.089 206.564 136.805 206.368 128.71L207.688 128.679ZM206.626 129.218L204.486 127.572L205.29 126.525L207.43 128.172L206.626 129.218ZM204.486 127.572C201.951 125.622 200.705 122.429 201.25 119.278L202.551 119.503C202.09 122.171 203.145 124.874 205.29 126.525L204.486 127.572ZM201.25 119.278L201.761 116.328L203.061 116.552L202.551 119.503L201.25 119.278ZM201.761 116.328C202.031 114.762 204.242 114.666 204.648 116.202L203.372 116.539C203.356 116.479 203.332 116.457 203.315 116.447C203.293 116.431 203.257 116.418 203.211 116.42C203.166 116.423 203.13 116.439 203.109 116.455C203.094 116.468 203.072 116.492 203.061 116.552L201.761 116.328ZM204.648 116.202C205.151 118.104 206.559 119.557 208.312 120.209L207.853 121.446C205.72 120.654 203.99 118.878 203.372 116.539L204.648 116.202ZM241.163 99.5454C225.472 99.5454 212.388 108.729 208.715 121.016L207.45 120.639C211.319 107.695 224.997 98.2254 241.163 98.2254V99.5454ZM253.801 101.649C249.904 100.293 245.637 99.5454 241.163 99.5454V98.2254C245.784 98.2254 250.198 98.998 254.235 100.402L253.801 101.649ZM258.909 96.2867C257.23 97.7819 255.774 99.497 254.575 101.379L253.461 100.67C254.726 98.6856 256.262 96.8772 258.03 95.3011L258.909 96.2867ZM259.4 95.8485L258.909 96.2867L258.03 95.3011L258.521 94.8629L259.4 95.8485Z" fill="#4C4C4C"/>
<path d="M251.06 103.968C247.959 103.068 244.629 102.58 241.163 102.58C237.697 102.58 234.367 103.068 231.267 103.968" stroke="#4C4C4C" stroke-width="1.5" stroke-linecap="round"/>
<path d="M210.32 128.04C210.32 133.056 212.067 137.735 215.084 141.68M246.4 153.187C244.684 153.432 242.921 153.56 241.12 153.56C236.74 153.56 232.573 152.802 228.8 151.437M261.8 146.952C262.734 146.251 263.616 145.503 264.44 144.712" stroke="#DDDDDD" stroke-width="1.5" stroke-linecap="round"/>
<path d="M267.885 121.385H267.885C268.705 121.385 269.369 122.049 269.369 122.869V125.838C269.369 126.658 268.705 127.323 267.885 127.323H267.885C267.065 127.323 266.4 126.658 266.4 125.838V122.869C266.4 122.049 267.065 121.385 267.885 121.385Z" fill="#4C4C4C"/>
<path d="M244.627 157.011H234.73V158.165C234.73 158.894 235.322 159.485 236.05 159.485H243.307C244.036 159.485 244.627 158.894 244.627 158.165V157.011Z" fill="#4C4C4C"/>
</g>
<path opacity="0.1" fill-rule="evenodd" clip-rule="evenodd" d="M184.717 126.85L187.558 129.69L187.533 129.716C189.599 132.267 189.545 136.225 187.643 139.92H165.579C164.858 136.369 166.262 132.045 169.564 128.743C174.271 124.036 181.056 123.188 184.717 126.85ZM128.112 139.92L130.39 137.643L130.404 137.629C133.519 134.513 132.797 128.74 128.792 124.734C124.786 120.727 119.012 120.006 115.897 123.122L115.876 123.143L113.906 125.113L113.882 125.136L113.858 125.16L113.479 125.539L113.5 125.56C111.08 128.551 112.079 133.81 115.897 137.629C116.833 138.565 117.856 139.332 118.911 139.92H128.112ZM53.8849 138.31C55.4753 137.728 57.0349 136.749 58.3917 135.392C62.3976 131.385 63.1193 125.612 60.0036 122.496L59.9826 122.476L57.9929 120.486L57.9886 120.482L57.9843 120.478L57.5856 120.079L57.5645 120.1C55.6858 118.579 52.9107 118.409 50.1602 119.439V131.12C50.1602 134.09 51.6314 136.716 53.8849 138.31ZM190.175 42.2402H170.612C169.53 45.3083 169.928 48.4747 171.962 50.5086L171.983 50.5295L173.973 52.5192L173.977 52.5235L173.981 52.5278L174.38 52.9264L174.401 52.9053C177.391 55.3253 182.65 54.3269 186.469 50.5086C188.956 48.0222 190.246 44.9244 190.175 42.2402Z" fill="#4C4C4C"/>
<path opacity="0.1" fill-rule="evenodd" clip-rule="evenodd" d="M88.1823 42.2402H58.9602C54.1001 42.2402 50.1602 46.1802 50.1602 51.0402V79.9678L53.3845 79.4666C54.2647 79.3299 54.9078 78.5625 54.8885 77.6718L54.8242 74.7044C56.5151 74.6864 58.2336 74.5467 59.9668 74.2773C62.6342 73.8628 65.1752 73.166 67.5534 72.2296L68.5328 75.5513C68.7847 76.4058 69.6303 76.9417 70.5106 76.805L78.8513 75.5086C79.7316 75.3718 80.3746 74.6044 80.3553 73.7138L80.142 63.8539C80.1393 63.7291 80.1239 63.6079 80.0971 63.4914C84.8044 58.0714 87.2332 51.229 86.3153 44.2093L87.9872 42.4535C88.0538 42.3835 88.119 42.3124 88.1823 42.2402Z" fill="#4C4C4C"/>
<path opacity="0.1" fill-rule="evenodd" clip-rule="evenodd" d="M250.8 100.065V131.12C250.8 135.98 246.861 139.92 242 139.92H209.945C208.157 136.478 207.124 132.685 207.028 128.695L204.888 127.048C202.548 125.249 201.398 122.3 201.9 119.391L202.411 116.441C202.56 115.574 203.785 115.52 204.01 116.37C204.571 118.491 206.139 120.106 208.082 120.828C211.854 108.213 225.235 98.8857 241.163 98.8857C244.51 98.8857 247.744 99.2976 250.8 100.065Z" fill="#4C4C4C"/>
<path d="M241.12 43.5596H59.8398C55.9517 43.5596 52.7998 46.7115 52.7998 50.5996V124.52C52.7998 128.408 55.9517 131.56 59.8398 131.56H241.12C245.008 131.56 248.16 128.408 248.16 124.52V50.5996C248.16 46.7115 245.008 43.5596 241.12 43.5596Z" fill="white" fill-opacity="0.94" stroke="#3785D7" stroke-width="1.5"/>
<path opacity="0.3" d="M206.096 39.1602H208.774M214.544 39.1602H242.88C248.226 39.1602 252.56 43.4941 252.56 48.8402V61.4046M252.56 65.055V66.9127M252.56 92.0658V95.6509M82.0547 135.96H66.5973M48.4004 111.361V113.52M48.4004 106.88V101.502M48.4004 66.1306V63.4416M48.4004 59.775V48.8402C48.4004 43.4941 52.7343 39.1602 58.0804 39.1602H66.5973M153.56 39.1602H156.238M137.72 39.1602H149.198M87.1778 135.96H84.9204M198.214 135.96H195.8M201.578 135.96H201.08" stroke="#3785D7" stroke-width="1.5" stroke-linecap="round"/>
<g opacity="0.5">
<path opacity="0.85" d="M69.8113 13.1221H64.0615" stroke="#3785D7" stroke-width="1.25" stroke-linecap="round" stroke-linejoin="round"/>
<path opacity="0.85" d="M60.9854 5.01562V10.0326" stroke="#3785D7" stroke-width="1.25" stroke-linecap="round" stroke-linejoin="round"/>
<path opacity="0.85" d="M64.4569 9.66895L62.916 11.1722" stroke="#3785D7" stroke-width="1.25" stroke-linecap="round" stroke-linejoin="round"/>
<path opacity="0.85" d="M65.7695 8.3623L65.5596 8.54127" stroke="#3785D7" stroke-width="1.25" stroke-linecap="round" stroke-linejoin="round"/>
<path opacity="0.85" d="M67.2507 6.8877L67.1484 6.96562" stroke="#3785D7" stroke-width="1.25" stroke-linecap="round" stroke-linejoin="round"/>
<path opacity="0.85" d="M57.3584 9.50098L59.0491 11.1713" stroke="#3785D7" stroke-width="1.25" stroke-linecap="round" stroke-linejoin="round"/>
<path opacity="0.85" d="M55.5059 7.66992L56.1353 8.29033" stroke="#3785D7" stroke-width="1.25" stroke-linecap="round" stroke-linejoin="round"/>
<path opacity="0.85" d="M62.916 15.0732L64.8526 16.9703" stroke="#3785D7" stroke-width="1.25" stroke-linecap="round" stroke-linejoin="round"/>
<path opacity="0.85" d="M66.2559 18.3965L67.0952 19.2019" stroke="#3785D7" stroke-width="1.25" stroke-linecap="round" stroke-linejoin="round"/>
</g>
<g opacity="0.85">
<path opacity="0.85" d="M154.946 144.855H160.696" stroke="#DDDDDD" stroke-width="1.25" stroke-linecap="round" stroke-linejoin="round"/>
<path opacity="0.85" d="M163.771 152.962V147.945" stroke="#DDDDDD" stroke-width="1.25" stroke-linecap="round" stroke-linejoin="round"/>
<path opacity="0.85" d="M160.3 148.31L161.841 146.806" stroke="#DDDDDD" stroke-width="1.25" stroke-linecap="round" stroke-linejoin="round"/>
<path opacity="0.85" d="M158.987 149.615L159.198 149.437" stroke="#DDDDDD" stroke-width="1.25" stroke-linecap="round" stroke-linejoin="round"/>
<path opacity="0.85" d="M157.506 151.089L157.609 151.012" stroke="#DDDDDD" stroke-width="1.25" stroke-linecap="round" stroke-linejoin="round"/>
<path opacity="0.85" d="M167.399 148.477L165.709 146.806" stroke="#DDDDDD" stroke-width="1.25" stroke-linecap="round" stroke-linejoin="round"/>
<path opacity="0.85" d="M169.251 150.307L168.622 149.687" stroke="#DDDDDD" stroke-width="1.25" stroke-linecap="round" stroke-linejoin="round"/>
<path opacity="0.85" d="M161.841 142.904L159.904 141.007" stroke="#DDDDDD" stroke-width="1.25" stroke-linecap="round" stroke-linejoin="round"/>
<path opacity="0.85" d="M158.502 139.582L157.663 138.776" stroke="#DDDDDD" stroke-width="1.25" stroke-linecap="round" stroke-linejoin="round"/>
</g>
<g opacity="0.85">
<path opacity="0.85" d="M97.0645 145.217L92.9092 146.33" stroke="#DDDDDD" stroke-width="0.935145" stroke-linecap="round" stroke-linejoin="round"/>
<path opacity="0.85" d="M89.1172 141.067L90.0887 144.692" stroke="#DDDDDD" stroke-width="0.935145" stroke-linecap="round" stroke-linejoin="round"/>
<path opacity="0.85" d="M92.526 143.758L91.7041 145.142" stroke="#DDDDDD" stroke-width="0.935145" stroke-linecap="round" stroke-linejoin="round"/>
<path opacity="0.85" d="M93.2225 142.559L93.1055 142.728" stroke="#DDDDDD" stroke-width="0.935145" stroke-linecap="round" stroke-linejoin="round"/>
<path opacity="0.85" d="M94.0072 141.207L93.9482 141.283" stroke="#DDDDDD" stroke-width="0.935145" stroke-linecap="round" stroke-linejoin="round"/>
<path opacity="0.85" d="M87.3643 145.011L88.9097 145.891" stroke="#DDDDDD" stroke-width="0.935145" stroke-linecap="round" stroke-linejoin="round"/>
<path opacity="0.85" d="M85.6709 144.046L86.2459 144.372" stroke="#DDDDDD" stroke-width="0.935145" stroke-linecap="round" stroke-linejoin="round"/>
<path opacity="0.85" d="M92.459 147.961L94.226 148.956" stroke="#DDDDDD" stroke-width="0.935145" stroke-linecap="round" stroke-linejoin="round"/>
<path opacity="0.85" d="M95.5156 149.716L96.2786 150.135" stroke="#DDDDDD" stroke-width="0.935145" stroke-linecap="round" stroke-linejoin="round"/>
</g>
</svg>
