<svg width="18" height="18" viewBox="0 0 18 18" fill="none" xmlns="http://www.w3.org/2000/svg">
<g id="Frame" clip-path="url(#clip0_1_16001)">
<path id="Vector" d="M4.5 6.5V2.75C4.5 2.33579 4.83579 2 5.25 2C5.66421 2 6 2.33579 6 2.75V6.5H9.75C10.1642 6.5 10.5 6.83579 10.5 7.25C10.5 7.66421 10.1642 8 9.75 8H6V11.75C6 12.1642 5.66421 12.5 5.25 12.5C4.83579 12.5 4.5 12.1642 4.5 11.75V8H0.75C0.335787 8 0 7.66421 0 7.25C0 6.83579 0.335786 6.5 0.75 6.5H4.5Z" fill="white"/>
</g>
<defs>
<clipPath id="clip0_1_16001">
<rect width="18" height="18" fill="white"/>
</clipPath>
</defs>
</svg>
