<svg width="60" height="60" viewBox="0 0 60 60" fill="none" xmlns="http://www.w3.org/2000/svg">
<circle cx="30" cy="30" r="29.5" stroke="#3A10E5"/>
<g clip-path="url(#clip0_756_205)">
<path d="M22.538 31.6194C22.6086 31.6269 22.6798 31.6282 22.7507 31.6233L34.8259 30.9521L34.5695 31.0892C34.3189 31.2253 34.0939 31.4041 33.9047 31.6175L30.7068 35.1919C30.2845 35.6425 30.2476 36.3315 30.6194 36.8245C31.0493 37.348 31.8222 37.4239 32.3457 36.994C32.388 36.9592 32.428 36.9217 32.4652 36.8816L38.2482 30.4178C38.7002 29.9132 38.6575 29.1378 38.1529 28.6858C38.1526 28.6855 38.1522 28.6852 38.1519 28.6849L31.6881 22.902C31.1827 22.451 30.4073 22.4952 29.9563 23.0007C29.9208 23.0404 29.888 23.0825 29.8579 23.1265C29.5431 23.6577 29.6561 24.3384 30.1257 24.7394L33.6944 27.9438C33.8841 28.1137 34.099 28.253 34.3316 28.3568L34.7082 28.5017L22.6819 29.1702C22.055 29.1818 21.5304 29.6493 21.4471 30.2708C21.3759 30.9444 21.8643 31.5482 22.538 31.6194Z" fill="#3A10E5"/>
</g>
<defs>
<clipPath id="clip0_756_205">
<rect width="17.1429" height="17.1429" fill="white" transform="translate(21.4287 21.4287)"/>
</clipPath>
</defs>
</svg>
