<svg width="60" height="60" viewBox="0 0 60 60" fill="none" xmlns="http://www.w3.org/2000/svg">
<circle cx="30" cy="30" r="30" transform="matrix(-1 0 0 1 60 0)" fill="#3A10E5"/>
<g clip-path="url(#clip0_770_192)">
<path d="M22.4588 28.7971C22.529 28.7857 22.6 28.7804 22.671 28.7814H34.7649L34.5012 28.6587C34.2434 28.5367 34.0089 28.3707 33.8082 28.1681L30.4168 24.7766C29.9701 24.3502 29.895 23.6643 30.2389 23.1514C30.6391 22.6049 31.4066 22.4862 31.9532 22.8864C31.9973 22.9188 32.0393 22.954 32.0787 22.992L38.2116 29.1248C38.6908 29.6035 38.6913 30.3801 38.2125 30.8594C38.2122 30.8597 38.2119 30.8601 38.2116 30.8604L32.0787 36.9932C31.5991 37.4715 30.8225 37.4704 30.3441 36.9908C30.3065 36.953 30.2713 36.9129 30.2389 36.8705C29.895 36.3576 29.9701 35.6717 30.4168 35.2453L33.8021 31.8478C33.982 31.6676 34.1889 31.5166 34.4153 31.4001L34.7833 31.2345H22.7385C22.1119 31.2578 21.5622 30.8201 21.4445 30.2042C21.336 29.5355 21.7902 28.9056 22.4588 28.7971Z" fill="white"/>
</g>
<defs>
<clipPath id="clip0_770_192">
<rect width="17.1429" height="17.1429" fill="white" transform="matrix(-1 0 0 1 38.5713 21.4287)"/>
</clipPath>
</defs>
</svg>
