<svg width="60" height="60" viewBox="0 0 60 60" fill="none" xmlns="http://www.w3.org/2000/svg">
<circle cx="30" cy="30" r="30" transform="matrix(-1 0 0 1 60 0)" fill="#3A10E5"/>
<g clip-path="url(#clip0_771_473)">
<path d="M37.564 31.049C37.4941 31.0618 37.4232 31.0685 37.3522 31.069L25.2608 31.316L25.527 31.4333C25.7872 31.55 26.025 31.7112 26.2298 31.9096L29.6898 35.2311C30.1451 35.6483 30.2342 36.3325 29.9008 36.8523C29.5119 37.4069 28.747 37.5413 28.1923 37.1523C28.1475 37.1209 28.1048 37.0865 28.0646 37.0493L21.8079 31.043C21.3189 30.5742 21.3026 29.7977 21.7715 29.3088C21.7718 29.3085 21.7721 29.3081 21.7724 29.3078L27.7787 23.051C28.2485 22.563 29.025 22.5482 29.513 23.018C29.5514 23.055 29.5874 23.0944 29.6207 23.1361C29.9749 23.6419 29.9139 24.3292 29.4761 24.7646L26.1608 28.2306C25.9846 28.4144 25.7808 28.5696 25.5568 28.6907L25.1923 28.8638L37.2346 28.6178C37.8606 28.5817 38.4192 29.0081 38.5494 29.6215C38.6715 30.2878 38.2303 30.9269 37.564 31.049Z" fill="white"/>
</g>
<defs>
<clipPath id="clip0_771_473">
<rect width="17.1429" height="17.1429" fill="white" transform="matrix(0.999791 -0.0204217 -0.0204217 -0.999791 21.6054 38.7447)"/>
</clipPath>
</defs>
</svg>
