<svg width="202" height="147" viewBox="0 0 202 147" fill="none" xmlns="http://www.w3.org/2000/svg">
<path fill-rule="evenodd" clip-rule="evenodd" d="M51.4493 136.697V58.5997C51.4493 54.6584 54.6474 51.4629 58.5931 51.4629H181.146C185.092 51.4629 188.29 54.6584 188.29 58.5997V136.697H51.4493Z" fill="white"/>
<path fill-rule="evenodd" clip-rule="evenodd" d="M51.4493 136.697V58.5997C51.4493 54.6584 54.6474 51.4629 58.5931 51.4629H181.146C185.092 51.4629 188.29 54.6584 188.29 58.5997V136.697H51.4493Z" stroke="#4C4C4C" stroke-width="1.8" stroke-linejoin="round"/>
<path fill-rule="evenodd" clip-rule="evenodd" d="M177.671 137.069H62.0664V65.8206C62.0664 63.7488 63.7477 62.0693 65.8208 62.0693H173.918C175.991 62.0693 177.671 63.7488 177.671 65.8206V137.069Z" fill="#F0F0F0"/>
<path fill-rule="evenodd" clip-rule="evenodd" d="M177.671 137.069H62.0664V65.8206C62.0664 63.7488 63.7477 62.0693 65.8208 62.0693H173.918C175.991 62.0693 177.671 63.7488 177.671 65.8206V137.069Z" stroke="#4C4C4C" stroke-width="1.8" stroke-linejoin="round"/>
<path fill-rule="evenodd" clip-rule="evenodd" d="M122.307 56.7459C122.307 58.0915 121.215 59.1814 119.869 59.1814C118.523 59.1814 117.432 58.0915 117.432 56.7459C117.432 55.4014 118.523 54.3115 119.869 54.3115C121.215 54.3115 122.307 55.4014 122.307 56.7459Z" fill="#E8E8E8"/>
<path fill-rule="evenodd" clip-rule="evenodd" d="M122.307 56.7459C122.307 58.0915 121.215 59.1814 119.869 59.1814C118.523 59.1814 117.432 58.0915 117.432 56.7459C117.432 55.4014 118.523 54.3115 119.869 54.3115C121.215 54.3115 122.307 55.4014 122.307 56.7459Z" stroke="#4C4C4C" stroke-width="1.8"/>
<path fill-rule="evenodd" clip-rule="evenodd" d="M193.918 145.402H45.8212C42.2878 145.402 39.424 142.541 39.424 139.011V135.884H200.316V139.011C200.316 142.541 197.452 145.402 193.918 145.402Z" fill="white"/>
<path fill-rule="evenodd" clip-rule="evenodd" d="M193.918 145.402H45.8212C42.2878 145.402 39.424 142.541 39.424 139.011V135.884H200.316V139.011C200.316 142.541 197.452 145.402 193.918 145.402Z" stroke="#4C4C4C" stroke-width="1.8" stroke-linejoin="round"/>
<path fill-rule="evenodd" clip-rule="evenodd" d="M133.004 138.919H110.798C109.031 138.919 107.6 137.488 107.6 135.725V134.752H136.203V135.725C136.203 137.488 134.77 138.919 133.004 138.919Z" fill="#4C4C4C"/>
<path fill-rule="evenodd" clip-rule="evenodd" d="M74.3644 135.8H165.374V1.59766H74.3644V135.8Z" fill="white"/>
<path fill-rule="evenodd" clip-rule="evenodd" d="M74.3644 135.8H165.374V1.59766H74.3644V135.8Z" stroke="#4C4C4C" stroke-width="1.8" stroke-linejoin="round"/>
<path d="M106.197 49.6995H148.09M106.197 42.0879H152.425H106.197Z" stroke="#A7A7A7" stroke-width="1.8" stroke-linecap="round" stroke-linejoin="round"/>
<path fill-rule="evenodd" clip-rule="evenodd" d="M99.806 45.8934C99.806 49.6559 96.7519 52.7066 92.9841 52.7066C89.2173 52.7066 86.1632 49.6559 86.1632 45.8934C86.1632 42.1298 89.2173 39.0791 92.9841 39.0791C96.7519 39.0791 99.806 42.1298 99.806 45.8934Z" fill="#E8E8E8"/>
<path d="M106.197 73.6694H148.09M90.1759 45.9969L91.9796 47.7986L95.7937 43.9888L90.1759 45.9969ZM106.197 66.0579H152.425H106.197Z" stroke="#A7A7A7" stroke-width="1.8" stroke-linecap="round" stroke-linejoin="round"/>
<path fill-rule="evenodd" clip-rule="evenodd" d="M99.806 69.8635C99.806 73.6261 96.7519 76.6768 92.9841 76.6768C89.2173 76.6768 86.1632 73.6261 86.1632 69.8635C86.1632 66.101 89.2173 63.0503 92.9841 63.0503C96.7519 63.0503 99.806 66.101 99.806 69.8635Z" fill="#E8E8E8"/>
<path d="M106.197 121.611H148.09M90.1759 69.9681L91.9796 71.7688L95.7937 67.959L90.1759 69.9681ZM106.197 113.998H152.425H106.197Z" stroke="#A7A7A7" stroke-width="1.8" stroke-linecap="round" stroke-linejoin="round"/>
<path fill-rule="evenodd" clip-rule="evenodd" d="M99.806 117.803C99.806 121.567 96.7519 124.618 92.9841 124.618C89.2173 124.618 86.1632 121.567 86.1632 117.803C86.1632 114.041 89.2173 110.99 92.9841 110.99C96.7519 110.99 99.806 114.041 99.806 117.803Z" fill="#E8E8E8"/>
<path d="M106.197 25.7293H148.09M90.1759 117.908L91.9796 119.71L95.7937 115.899L90.1759 117.908ZM106.197 18.1167H152.425H106.197Z" stroke="#A7A7A7" stroke-width="1.8" stroke-linecap="round" stroke-linejoin="round"/>
<path fill-rule="evenodd" clip-rule="evenodd" d="M99.806 21.9236C99.806 25.6862 96.7519 28.7369 92.9841 28.7369C89.2173 28.7369 86.1632 25.6862 86.1632 21.9236C86.1632 18.1601 89.2173 15.1094 92.9841 15.1094C96.7519 15.1094 99.806 18.1601 99.806 21.9236Z" fill="#E8E8E8"/>
<path d="M106.197 97.6395H148.09M90.4541 24.4513L95.5166 19.3945L90.4541 24.4513ZM90.4541 19.3947L95.5166 24.4515L90.4541 19.3947ZM106.197 90.0279H152.425H106.197Z" stroke="#A7A7A7" stroke-width="1.8" stroke-linecap="round" stroke-linejoin="round"/>
<path fill-rule="evenodd" clip-rule="evenodd" d="M99.806 93.8338C99.806 97.5973 96.7519 100.648 92.9841 100.648C89.2173 100.648 86.1632 97.5973 86.1632 93.8338C86.1632 90.0712 89.2173 87.0205 92.9841 87.0205C96.7519 87.0205 99.806 90.0712 99.806 93.8338Z" fill="#E8E8E8"/>
<path fill-rule="evenodd" clip-rule="evenodd" d="M90.4541 96.3624L95.5165 91.3057L90.4541 96.3624ZM90.4541 91.3059L95.5165 96.3626L90.4541 91.3059Z" stroke="#A7A7A7" stroke-width="1.8" stroke-linecap="round" stroke-linejoin="round"/>
<path fill-rule="evenodd" clip-rule="evenodd" d="M51.1124 84.6499L59.5735 78.0123L54.3517 71.3716L45.8916 78.0092L51.1124 84.6499Z" fill="#CACACA"/>
<path fill-rule="evenodd" clip-rule="evenodd" d="M51.1124 84.6499L59.5735 78.0123L54.3517 71.3716L45.8916 78.0092L51.1124 84.6499Z" stroke="#4C4C4C" stroke-width="1.8" stroke-linejoin="round"/>
<path fill-rule="evenodd" clip-rule="evenodd" d="M55.6692 81.0735L61.9903 76.1153L56.7685 69.4746L50.4484 74.4328L55.6692 81.0735Z" fill="#4C4C4C"/>
<path fill-rule="evenodd" clip-rule="evenodd" d="M60.105 32.7616C66.6133 27.634 74.7247 25.3382 82.937 26.3068C91.1698 27.2724 98.5388 31.3955 103.675 37.9201C108.783 44.419 111.07 52.5101 110.103 60.6843C108.105 77.6388 92.6608 89.8211 75.6873 87.8161C67.4473 86.8485 60.0803 82.7172 54.9418 76.1936C49.83 69.6978 47.5512 61.6201 48.5137 53.4417C49.4803 45.2346 53.5926 37.8893 60.105 32.7616Z" fill="#DDDDDD"/>
<path fill-rule="evenodd" clip-rule="evenodd" d="M60.105 32.7616C66.6133 27.634 74.7247 25.3382 82.937 26.3068C91.1698 27.2724 98.5388 31.3955 103.675 37.9201C108.783 44.419 111.07 52.5101 110.103 60.6843C108.105 77.6388 92.6608 89.8211 75.6873 87.8161C67.4473 86.8485 60.0803 82.7172 54.9418 76.1936C49.83 69.6977 47.5512 61.6201 48.5137 53.4417C49.4803 45.2346 53.5926 37.8893 60.105 32.7616V32.7616Z" stroke="#4C4C4C" stroke-width="1.8" stroke-linejoin="round"/>
<path fill-rule="evenodd" clip-rule="evenodd" d="M59.9751 72.2327C64.0607 77.426 69.9016 80.6935 76.4387 81.4649C89.9108 83.056 102.158 73.3985 103.741 59.9353C104.503 53.4436 102.692 47.0309 98.6341 41.8776C94.5568 36.6996 88.7159 33.426 82.1911 32.6567C75.6674 31.8914 69.2383 33.7054 64.071 37.7854C58.9098 41.854 55.6418 47.6863 54.8695 54.1903C54.1054 60.6811 55.9163 67.0855 59.9751 72.2327Z" fill="white"/>
<path fill-rule="evenodd" clip-rule="evenodd" d="M59.9751 72.2327C64.0607 77.426 69.9016 80.6935 76.4387 81.4649C89.9108 83.056 102.158 73.3985 103.741 59.9353C104.503 53.4436 102.692 47.0309 98.6341 41.8776C94.5568 36.6996 88.7159 33.426 82.1911 32.6567C75.6674 31.8914 69.2383 33.7054 64.071 37.7854C58.9098 41.854 55.6418 47.6863 54.8695 54.1903C54.1054 60.6811 55.9163 67.0855 59.9751 72.2327V72.2327Z" stroke="#4C4C4C" stroke-width="1.8" stroke-linejoin="round"/>
<path fill-rule="evenodd" clip-rule="evenodd" d="M4.91101 108.087L12.316 117.453L52.101 86.1219C52.9668 85.4388 53.1149 84.1836 52.4311 83.3187L47.5023 77.0848C46.8195 76.2199 45.5629 76.072 44.696 76.7551L4.91101 108.087Z" fill="#F0F0F0"/>
<path fill-rule="evenodd" clip-rule="evenodd" d="M4.91101 108.087L12.316 117.453L52.101 86.1219C52.9668 85.4388 53.1149 84.1836 52.4311 83.3187L47.5023 77.0848C46.8195 76.2199 45.5629 76.072 44.696 76.7551L4.91101 108.087Z" stroke="#4C4C4C" stroke-width="1.8" stroke-linejoin="round"/>
<path fill-rule="evenodd" clip-rule="evenodd" d="M2.52902 112.505L7.45677 118.738C8.13855 119.601 9.39106 119.751 10.2579 119.074L12.3927 117.404L4.98776 108.037L2.86529 109.697C1.99327 110.378 1.84313 111.637 2.52902 112.505Z" fill="#CACACA"/>
<path fill-rule="evenodd" clip-rule="evenodd" d="M2.52902 112.505L7.45677 118.738C8.13855 119.601 9.39105 119.751 10.2579 119.074L12.3927 117.404L4.98776 108.037L2.86529 109.697C1.99327 110.378 1.84313 111.637 2.52902 112.505V112.505Z" stroke="#4C4C4C" stroke-width="1.8" stroke-linejoin="round"/>
<path fill-rule="evenodd" clip-rule="evenodd" d="M92.9836 56.7216C92.9836 64.2233 86.8824 70.3042 79.3556 70.3042C71.8308 70.3042 65.7296 64.2233 65.7296 56.7216C65.7296 49.2219 71.8308 43.1411 79.3556 43.1411C86.8824 43.1411 92.9836 49.2219 92.9836 56.7216Z" fill="#3A10E5"/>
<path d="M73.7462 56.9401L77.3493 60.7172L84.9684 52.728" stroke="white" stroke-width="2" stroke-linecap="round" stroke-linejoin="round"/>
</svg>
