<svg width="120" height="103" viewBox="0 0 120 103" fill="none" xmlns="http://www.w3.org/2000/svg">
<g id="img-speak 1" clip-path="url(#clip0_1_3722)">
<g id="Group">
<path id="Vector" fill-rule="evenodd" clip-rule="evenodd" d="M1.00002 55.285C1.00002 59.855 4.95802 63.562 9.84002 63.562C14.721 63.562 18.679 59.856 18.679 55.285C18.679 50.714 14.721 47.008 9.83902 47.008C4.95802 47.008 0.999023 50.714 0.999023 55.285" fill="white"/>
<path id="Vector_2" fill-rule="evenodd" clip-rule="evenodd" d="M1.00002 55.285C1.00002 59.855 4.95802 63.562 9.84002 63.562C14.721 63.562 18.679 59.856 18.679 55.285C18.679 50.714 14.721 47.008 9.83902 47.008C4.95802 47.008 0.999023 50.714 0.999023 55.285H1.00002Z" stroke="#4C4C4C" stroke-width="2" stroke-linejoin="round"/>
<path id="Vector_3" fill-rule="evenodd" clip-rule="evenodd" d="M47.2818 101.106C26.6888 101.106 9.83984 84.254 9.83984 63.658V39.101C9.83984 18.505 26.6888 1.65399 47.2818 1.65399C67.8748 1.65399 84.7238 18.505 84.7238 39.101V63.658C84.7238 84.254 67.8748 101.106 47.2818 101.106Z" fill="white"/>
<path id="Vector_4" fill-rule="evenodd" clip-rule="evenodd" d="M47.2818 101.106C26.6888 101.106 9.83984 84.254 9.83984 63.658V39.101C9.83984 18.505 26.6888 1.65399 47.2818 1.65399C67.8748 1.65399 84.7238 18.505 84.7238 39.101V63.658C84.7238 84.254 67.8748 101.106 47.2818 101.106V101.106Z" stroke="#4C4C4C" stroke-width="2" stroke-linejoin="round"/>
<path id="Vector_5" fill-rule="evenodd" clip-rule="evenodd" d="M75.2601 66.336C75.2601 77.215 66.4441 86.034 55.5651 86.034C44.6881 86.034 35.8701 77.214 35.8701 66.336H75.2601Z" fill="#DDDDDD"/>
<path id="Vector_6" fill-rule="evenodd" clip-rule="evenodd" d="M75.2601 66.336C75.2601 77.215 66.4441 86.034 55.5651 86.034C44.6881 86.034 35.8701 77.214 35.8701 66.336H75.2601Z" stroke="#4C4C4C" stroke-width="2" stroke-linejoin="round"/>
<path id="Vector_7" fill-rule="evenodd" clip-rule="evenodd" d="M36.9231 72.686H74.2091C74.9064 70.6415 75.2618 68.4961 75.2611 66.336H35.8701C35.8701 68.558 36.2431 70.694 36.9221 72.686" fill="white"/>
<path id="Vector_8" fill-rule="evenodd" clip-rule="evenodd" d="M36.9231 72.686H74.2091C74.9064 70.6415 75.2618 68.4961 75.2611 66.336H35.8701C35.8701 68.558 36.2431 70.694 36.9221 72.686H36.9231Z" stroke="#4C4C4C" stroke-width="2" stroke-linejoin="round"/>
<path id="Vector_9" fill-rule="evenodd" clip-rule="evenodd" d="M43.3125 46.264C43.3125 47.4352 42.8472 48.5584 42.0191 49.3866C41.1909 50.2147 40.0677 50.68 38.8965 50.68C37.7253 50.68 36.602 50.2147 35.7739 49.3866C34.9457 48.5584 34.4805 47.4352 34.4805 46.264C34.4805 45.0928 34.9457 43.9696 35.7739 43.1414C36.602 42.3133 37.7253 41.848 38.8965 41.848C40.0677 41.848 41.1909 42.3133 42.0191 43.1414C42.8472 43.9696 43.3125 45.0928 43.3125 46.264ZM79.4655 46.264C79.4655 46.844 79.3512 47.4183 79.1293 47.9541C78.9073 48.49 78.582 48.9768 78.1719 49.3869C77.7618 49.797 77.2749 50.1224 76.7391 50.3443C76.2033 50.5663 75.629 50.6805 75.049 50.6805C74.469 50.6805 73.8947 50.5663 73.3588 50.3443C72.823 50.1224 72.3361 49.797 71.926 49.3869C71.5159 48.9768 71.1906 48.49 70.9687 47.9541C70.7467 47.4183 70.6325 46.844 70.6325 46.264C70.6325 45.0927 71.0978 43.9693 71.926 43.1411C72.7543 42.3128 73.8776 41.8475 75.049 41.8475C76.2203 41.8475 77.3437 42.3128 78.1719 43.1411C79.0002 43.9693 79.4655 45.0927 79.4655 46.264Z" fill="#4C4C4C"/>
<path id="Vector_10" fill-rule="evenodd" clip-rule="evenodd" d="M64.3327 53.41V55.987C64.3327 57.171 63.3727 58.132 62.1877 58.132H54.6137C54.045 58.1317 53.4997 57.9056 53.0976 57.5034C52.6956 57.1012 52.4697 56.5557 52.4697 55.987V53.41" fill="white"/>
<path id="Vector_11" d="M64.3327 53.41V55.987C64.3327 57.171 63.3727 58.132 62.1877 58.132H54.6137C54.045 58.1317 53.4997 57.9056 53.0976 57.5034C52.6956 57.1012 52.4697 56.5557 52.4697 55.987V53.41" stroke="#4C4C4C" stroke-width="2" stroke-linejoin="round"/>
<path id="Vector_12" fill-rule="evenodd" clip-rule="evenodd" d="M66.9944 1.06H35.8994C29.9654 1.06 24.6564 4.19 21.0474 9.12C19.3114 6.799 16.5494 5.29 13.4274 5.29C8.16744 5.29 3.90644 9.553 3.90644 14.812V18.162C3.90544 18.186 3.89844 18.207 3.89844 18.232V49.175C5.08362 48.1636 6.51246 47.4793 8.04344 47.19H8.08344C16.2934 47.19 22.9494 40.533 22.9494 32.322V24.429H78.8944C89.7674 24.429 98.5824 13.967 98.5824 1.06H66.9944Z" fill="#DDDDDD"/>
<g id="Group_2">
<path id="Vector_13" fill-rule="evenodd" clip-rule="evenodd" d="M66.9944 1.06H35.8994C29.9654 1.06 24.6564 4.19 21.0474 9.12C19.3114 6.799 16.5494 5.29 13.4274 5.29C8.16744 5.29 3.90644 9.553 3.90644 14.812V18.162C3.90544 18.186 3.89844 18.207 3.89844 18.232V49.175C5.08362 48.1636 6.51246 47.4793 8.04344 47.19H8.08344C16.2934 47.19 22.9494 40.533 22.9494 32.322V24.429H78.8944C89.7674 24.429 98.5824 13.967 98.5824 1.06H66.9944V1.06Z" stroke="#4C4C4C" stroke-width="2" stroke-linejoin="round"/>
<path id="Vector_14" d="M97.8467 89.436C109.11 89.436 118.242 80.304 118.242 69.039C118.242 57.773 109.11 48.642 97.8467 48.642M97.8467 77.322C98.9421 77.334 100.029 77.1287 101.045 76.7178C102.06 76.3069 102.984 75.6986 103.763 74.9283C104.542 74.1579 105.16 73.2406 105.582 72.2297C106.004 71.2187 106.222 70.134 106.222 69.0385C106.222 67.943 106.004 66.8583 105.582 65.8473C105.16 64.8364 104.542 63.9191 103.763 63.1487C102.984 62.3783 102.06 61.7701 101.045 61.3592C100.029 60.9483 98.9421 60.743 97.8467 60.755V77.322Z" stroke="#3A10E5" stroke-width="2" stroke-linecap="round" stroke-linejoin="round"/>
</g>
</g>
</g>
<defs>
<clipPath id="clip0_1_3722">
<rect width="120" height="103" fill="white"/>
</clipPath>
</defs>
</svg>
