<svg width="39" height="50" viewBox="0 0 39 50" fill="none" xmlns="http://www.w3.org/2000/svg">
<g clip-path="url(#clip0_1_804)">
<path d="M27 26.0938C20.3984 26.0938 15 31.4921 15 38.0938C15 41.2929 16.3047 44.3047 18.4062 46.4062C18.4062 46.4062 18.3984 46.5 18.5 46.5L18.8125 46.8125C21.0117 48.9141 23.8945 50.1875 27.0937 50.1875C33.6953 50.1875 39.0938 44.7891 39.0938 38.1875C38.9922 34.7891 37.6875 31.9141 35.6875 29.8125C35.6367 29.7617 35.625 29.7188 35.625 29.7188C35.4805 29.5547 35.3984 29.4062 35.3125 29.4062C33.1133 27.3047 30.3008 26.0938 27 26.0938ZM27 28C29.6992 28 32.1055 29.1133 33.9062 30.8125L34.1875 31.0938V31.1875C35.8867 32.9883 37 35.3984 37 38C37 43.5 32.5 48 27 48C24.3008 48 21.8945 46.8867 20.0937 45.1875C19.9922 45.1875 20.0078 45.0938 19.9062 45.0938L19.8125 45C19.8125 45 19.7891 44.9062 19.6875 44.9062C18.0859 43.1055 17 40.6992 17 38C17 32.5 21.5 28 27 28Z" fill="#3A10E5"/>
<path d="M26 33V43.5H28V33H26ZM32 35.9167V41.75H34V35.9167H32ZM20 37.0833V41.75H22V37.0833H20ZM29 38.1873V41.75H31V38.1873H29ZM23 39.4167V41.75H25V39.4167H23Z" fill="#3A10E5"/>
<path d="M21 8C21 4.13401 17.866 1 14 1C10.134 1 7 4.13401 7 8V21C7 24.866 10.134 28 14 28C17.866 28 21 24.866 21 21V8Z" stroke="#1B2935" stroke-width="2"/>
<path d="M13 34C6.3726 34 1 28.6274 1 22" stroke="#1B2935" stroke-width="2"/>
<path d="M12 34V42H7C5.8954 42 5 42.8954 5 44C5 45.1046 5.8954 46 7 46H12" stroke="#1B2935" stroke-width="2"/>
</g>
<defs>
<clipPath id="clip0_1_804">
<rect width="39" height="50" fill="white"/>
</clipPath>
</defs>
</svg>
