<svg width="34" height="34" viewBox="0 0 34 34" fill="none" xmlns="http://www.w3.org/2000/svg">
<path d="M9.8737 9.8737C10.2886 9.45877 10.9614 9.45877 11.3763 9.8737L17 15.4974L22.6237 9.8737C23.0386 9.45877 23.7114 9.45877 24.1263 9.8737C24.5412 10.2886 24.5412 10.9614 24.1263 11.3763L18.5026 17L24.1263 22.6237C24.5412 23.0386 24.5412 23.7114 24.1263 24.1263C23.7114 24.5412 23.0386 24.5412 22.6237 24.1263L17 18.5026L11.3763 24.1263C10.9614 24.5412 10.2886 24.5412 9.8737 24.1263C9.45877 23.7114 9.45877 23.0386 9.8737 22.6237L15.4974 17L9.8737 11.3763C9.45877 10.9614 9.45877 10.2886 9.8737 9.8737Z" fill="#91969E"/>
</svg>
