<svg width="91" height="85" viewBox="0 0 91 85" fill="none" xmlns="http://www.w3.org/2000/svg">
<g id="Group">
<path id="Vector" d="M86.0788 37.3628C85.5116 37.3628 84.9443 37.7631 84.9443 38.4303V59.7804C84.9443 60.3141 85.3698 60.8479 86.0788 60.8479C86.7879 60.8479 87.2133 60.4476 87.2133 59.7804V38.4303C87.2133 37.7631 86.6461 37.3628 86.0788 37.3628Z" fill="#A7A7A7"/>
<path id="Vector_2" d="M86.0788 29.3564C85.5116 29.3564 84.9443 29.7568 84.9443 30.424V33.0927C84.9443 33.6265 85.3698 34.1602 86.0788 34.1602C86.7879 34.1602 87.2133 33.7599 87.2133 33.0927V30.424C87.2133 29.7568 86.6461 29.3564 86.0788 29.3564Z" fill="#A7A7A7"/>
<path id="Vector_3" d="M9.21772 59.6465C9.21772 59.1128 8.79229 58.579 8.08324 58.579H6.38152V56.8444C6.38152 56.3106 5.95609 55.7769 5.24704 55.7769C4.53799 55.7769 4.11256 56.1772 4.11256 56.8444V58.579H2.41085C1.84361 58.579 1.27637 58.9794 1.27637 59.6465C1.27637 60.3137 1.7018 60.714 2.41085 60.714H4.25437V62.4487C4.25437 62.9825 4.6798 63.5162 5.38885 63.5162C6.0979 63.5162 6.52333 63.1159 6.52333 62.4487V60.714H8.36686C8.65048 60.714 9.21772 60.1803 9.21772 59.6465Z" fill="#3A10E5"/>
<path id="Vector_4" d="M36.8216 16.0126V16.9126H37.7216H40.9833C41.1264 16.9126 41.1844 16.942 41.1984 16.951C41.1991 16.9524 41.2 16.9544 41.2011 16.9573C41.2064 16.9709 41.2177 17.0085 41.2177 17.0801C41.2177 17.1164 41.2107 17.135 41.2064 17.144C41.2016 17.1542 41.1928 17.1675 41.1754 17.1825C41.1353 17.217 41.0636 17.2476 40.9833 17.2476H36.729C36.6662 17.2476 36.6251 17.2361 36.5998 17.2255C36.5739 17.2147 36.555 17.2008 36.5405 17.186C36.5086 17.1532 36.4945 17.1114 36.4945 17.0801V9.07378C36.4945 4.65621 32.6357 1.10157 28.0785 1.10157H26.6604C22.1033 1.10157 18.2445 4.65621 18.2445 9.07378V18.4144C18.2445 18.486 18.2331 18.5236 18.2279 18.5372C18.2268 18.5401 18.2258 18.5421 18.2251 18.5435C18.2111 18.5525 18.1531 18.5819 18.01 18.5819C17.9473 18.5819 17.9062 18.5705 17.8809 18.5599C17.855 18.5491 17.836 18.5352 17.8216 18.5203C17.7897 18.4876 17.7755 18.4458 17.7755 18.4144V9.07378C17.7755 4.55931 21.7075 0.9 26.5186 0.9H81.8245C84.0859 0.9 85.8945 1.68414 87.1593 3.03395C88.4297 4.38972 89.2228 6.39362 89.2913 8.95209V16.9466C89.2913 16.983 89.2843 17.0016 89.2801 17.0105C89.2752 17.0208 89.2664 17.034 89.249 17.0491C89.2089 17.0836 89.1372 17.1141 89.0568 17.1141H80.1228H79.2228V18.0141V75.9262C79.2228 80.4407 75.2909 84.1 70.4797 84.1H18.01C13.0748 84.1 9.26694 80.3239 9.26694 75.9262V67.9199C9.26694 67.8836 9.274 67.865 9.27823 67.8561C9.28309 67.8458 9.29187 67.8325 9.3093 67.8175C9.34933 67.783 9.42104 67.7524 9.50142 67.7524H9.59409V68.5871V75.6593C9.59409 80.0769 13.4529 83.6316 18.01 83.6316H64.3819H66.9096L64.9507 82.0341C62.9974 80.4412 61.7367 78.1481 61.7367 75.6593V68.5871V67.7524H61.8293C61.8921 67.7524 61.9331 67.7639 61.9585 67.7745C61.9843 67.7853 62.0033 67.7992 62.0178 67.814C62.0497 67.8468 62.0638 67.8886 62.0638 67.9199V75.9262C62.0638 80.3438 65.9226 83.8984 70.4797 83.8984C75.0369 83.8984 78.8957 80.3438 78.8957 75.9262V18.1476V17.2476H77.9957H46.372C46.2289 17.2476 46.1709 17.2181 46.1569 17.2092C46.1562 17.2078 46.1553 17.2057 46.1542 17.2028C46.1489 17.1893 46.1376 17.1516 46.1376 17.0801C46.1376 17.0437 46.1446 17.0251 46.1488 17.0162C46.1537 17.0059 46.1625 16.9927 46.1799 16.9776C46.2199 16.9431 46.2916 16.9126 46.372 16.9126H88.206H89.106V16.0126V8.94035C89.106 7.07663 88.6516 5.10417 87.5323 3.57227C86.3855 2.00263 84.5893 0.968132 82.1082 0.968132H34.1764H31.6487L33.6076 2.56561C35.5608 4.1585 36.8216 6.45153 36.8216 8.94035V16.0126ZM41.2019 16.9535C41.2019 16.9535 41.2015 16.9532 41.2008 16.9526L41.2019 16.9535ZM18.2287 18.541C18.2287 18.541 18.2283 18.5414 18.2274 18.542L18.2287 18.541ZM18.2445 67.6871H17.7755V66.8524V61.1146C17.7755 61.0431 17.7869 61.0054 17.7922 60.9919C17.7933 60.989 17.7942 60.9869 17.7949 60.9855C17.8089 60.9766 17.867 60.9471 18.01 60.9471C18.0728 60.9471 18.1138 60.9586 18.1392 60.9692C18.165 60.98 18.184 60.9938 18.1985 61.0087C18.2304 61.0415 18.2445 61.0832 18.2445 61.1146V66.8524V67.6871ZM17.7914 60.988C17.7914 60.988 17.7917 60.9877 17.7925 60.9872L17.7914 60.988ZM46.1534 17.2066C46.1534 17.2066 46.1537 17.2069 46.1545 17.2075L46.1534 17.2066Z" fill="#5E5E5E" stroke="#5E5E5E" stroke-width="1.8"/>
<path id="Vector_5" d="M41.6455 47.0095H72.8437C73.4109 47.0095 73.9782 46.6092 73.9782 45.942C73.9782 45.2748 73.5527 44.8745 72.8437 44.8745H41.6455C41.0782 44.8745 40.511 45.2748 40.511 45.942C40.511 46.6092 41.0782 47.0095 41.6455 47.0095Z" fill="#A7A7A7"/>
<path id="Vector_6" d="M41.5771 38.92C41.5771 39.4538 42.0026 39.9875 42.7116 39.9875H73.9099C74.4771 39.9875 75.0443 39.5872 75.0443 38.92C75.0443 38.2528 74.6189 37.8525 73.9099 37.8525H42.7116C42.0026 37.986 41.5771 38.3863 41.5771 38.92Z" fill="#A7A7A7"/>
<path id="Vector_7" d="M56.5705 32.9656H73.5877C74.155 32.9656 74.7222 32.5653 74.7222 31.8981C74.7222 31.2309 74.2968 30.8306 73.5877 30.8306H56.5705C56.0033 30.8306 55.436 31.2309 55.436 31.8981C55.436 32.5653 56.0033 32.9656 56.5705 32.9656Z" fill="#A7A7A7"/>
<path id="Vector_8" d="M56.5705 25.887H73.5877C74.155 25.887 74.7222 25.4867 74.7222 24.8195C74.7222 24.1523 74.2968 23.752 73.5877 23.752H56.5705C56.0033 23.752 55.436 24.1523 55.436 24.8195C55.436 25.4867 56.0033 25.887 56.5705 25.887Z" fill="#A7A7A7"/>
<path id="Vector_9" d="M42.1176 52.7082H73.3158C73.8831 52.7082 74.4503 52.3079 74.4503 51.6407C74.4503 50.9735 74.0249 50.5732 73.3158 50.5732H42.1176C41.5504 50.5732 40.9832 50.9735 40.9832 51.6407C40.9832 52.3079 41.5504 52.7082 42.1176 52.7082Z" fill="#A7A7A7"/>
<path id="Vector_10" d="M41.6455 59.0471H72.8437C73.4109 59.0471 73.9782 58.6468 73.9782 57.9796C73.9782 57.3124 73.5527 56.9121 72.8437 56.9121H41.6455C41.0782 56.9121 40.511 57.3124 40.511 57.9796C40.511 58.6468 41.0782 59.0471 41.6455 59.0471Z" fill="#A7A7A7"/>
<path id="Vector_11" d="M29.7211 49.8697L30.0964 50.2229L30.438 49.8371C32.6317 47.3601 34.0923 44.1976 34.5304 40.7619L34.6022 40.1987H34.0344H20.7043H19.4433L20.3616 41.0628L29.7211 49.8697ZM33.8926 39.1971H34.4313L34.3912 38.6599C33.804 30.7855 27.3467 24.7363 19.1779 24.1873L18.6444 24.1514V24.6861V38.6971V39.1971H19.1444H33.8926ZM17.5172 24.6861V24.1532L16.9854 24.1872C8.38628 24.7357 1.62715 31.4646 1.62715 39.4977C1.62715 48.2115 9.11539 55.0762 18.1517 55.0762C22.2459 55.0762 26.0412 53.5633 28.9579 51.2304L29.4078 50.8706L28.9883 50.4758L17.7853 39.9342L17.659 39.8154L17.6409 39.7984L17.5176 39.6824C17.5175 39.6795 17.5175 39.6764 17.5174 39.6729C17.5172 39.6611 17.5172 39.6486 17.5172 39.6312V24.6861ZM30.4301 51.4099C27.2627 54.3904 22.8479 56.2112 18.0099 56.2112C8.33544 56.2112 0.5 48.6724 0.5 39.6312C0.5 30.5874 8.05454 23.1846 17.8681 23.1846C27.6869 23.1846 35.5198 30.7259 35.5198 39.7646C35.5198 44.2898 33.5968 48.4302 30.4301 51.4099Z" fill="#3A10E5" stroke="#3A10E5"/>
<path id="Vector_12" d="M43.5358 17.8808C43.8194 17.8808 44.1031 17.7474 44.2449 17.6139C44.3867 17.4805 44.5285 17.2136 44.5285 16.9467C44.5285 16.6799 44.3867 16.413 44.2449 16.2796C44.1031 16.1461 44.1031 16.1461 43.8194 16.0127C43.5358 15.8792 43.2522 15.8792 42.9686 16.0127C42.8268 16.0127 42.685 16.1461 42.685 16.2796C42.5431 16.413 42.5431 16.5464 42.4013 16.6799C42.4013 16.8133 42.2595 16.9467 42.2595 17.0802C42.2595 17.2136 42.2595 17.3471 42.2595 17.4805C42.2595 17.6139 42.4013 17.7474 42.5431 17.7474C42.9686 17.8808 43.2522 17.8808 43.5358 17.8808Z" fill="#A7A7A7"/>
</g>
</svg>
