<svg width="27" height="27" viewBox="0 0 27 27" fill="none" xmlns="http://www.w3.org/2000/svg">
<path d="M9.80349 19.9277L9.01558 21.3055M14.2186 1.01953V12.5219H1.80566C1.80566 19.3191 7.13147 25.0711 13.7008 25.0711C20.271 25.0711 25.596 19.6868 25.596 13.0453C25.596 6.40382 20.271 1.01953 14.2186 1.01953V1.01953ZM13.7397 22.5854V20.9939V22.5854ZM18.4627 21.3059L17.6756 19.928L18.4627 21.3059ZM9.80349 6.14309L9.01558 4.7644L9.80349 6.14309ZM21.9207 17.8105L20.557 17.014L21.9207 17.8105ZM6.92187 9.05553L5.55816 8.25979L6.92187 9.05553ZM23.1864 13.035H21.6114H23.1864ZM21.9207 8.26012L20.557 9.05586L21.9207 8.26012ZM6.92187 17.0144L5.55816 17.811L6.92187 17.0144ZM18.4627 4.76408L17.6756 6.14276L18.4627 4.76408Z" stroke="#3A10E5" stroke-width="1.85" stroke-linecap="round" stroke-linejoin="round"/>
</svg>
