<svg width="56" height="50" viewBox="0 0 56 50" fill="none" xmlns="http://www.w3.org/2000/svg">
<g clip-path="url(#clip0_1_790)">
<path d="M50.9259 23.1482H31.4814L34.5008 27.2634V37.963C34.5008 40.0085 36.1589 41.6667 38.2045 41.6667H50.9259C52.9714 41.6667 54.6296 40.0085 54.6296 37.963V26.8519C54.6296 24.8064 52.9714 23.1482 50.9259 23.1482Z" stroke="#3A10E5" stroke-width="2"/>
<path d="M16.0844 26.3445L19.4909 28.9763L18.0553 34.2592L14.3516 27.7777M27.7775 28.9763L24.5367 33.7962L22.9742 28.9763L26.215 26.3445M19.9071 30.0925L21.296 30.5555L22.6849 30.0925" stroke="#262626" stroke-width="1.5" stroke-linecap="round" stroke-linejoin="round"/>
<path d="M14.3519 27.7778L4.46927 30.1633C2.39054 30.6651 0.925934 32.5252 0.925934 34.6637V43.9815C0.925934 46.5384 2.99869 48.6112 5.55556 48.6112H34.7222C37.2791 48.6112 39.3519 46.5384 39.3519 43.9815" stroke="black" stroke-width="1.5"/>
<path d="M16.0836 26.3445L14.5449 27.7099" stroke="#262626" stroke-width="2" stroke-linecap="round" stroke-linejoin="round"/>
<path d="M23.0606 25.2294C23.0871 25.0725 23.0679 24.9114 23.0051 24.7652C22.9424 24.6191 22.8389 24.4941 22.7069 24.4052L21.9252 23.8852C21.6666 23.7058 21.3505 23.6286 21.0383 23.6684C20.7261 23.7083 20.4396 23.8624 20.2343 24.1009C20.0906 24.2744 19.9966 24.4833 19.9619 24.7058C19.9242 24.929 19.9449 25.1582 20.0221 25.3708C20.1405 25.6602 20.3602 25.8966 20.6401 26.0358C20.9199 26.1752 21.2409 26.2079 21.5431 26.1279" stroke="#262626" stroke-width="1.5" stroke-linecap="round" stroke-linejoin="round"/>
<path d="M23.5618 23.4822C25.543 21.84 26.9054 19.5716 27.4246 17.0513C27.5767 16.2978 28.2489 10.4257 28.0012 9.7607C27.3936 10.2796 26.6974 10.6847 25.946 10.9563C24.0535 11.639 21.0963 11.6921 19.0516 10.1923C18.6979 9.91635 17.4351 8.92589 16.2996 8.69242C15.9245 8.6122 15.5359 8.61949 15.1641 8.71367C14.8501 8.77112 14.5626 8.92726 14.3434 9.15939C14.1642 9.39468 14.0541 9.67514 14.0251 9.9695C13.9708 10.2688 13.9708 10.5756 14.0251 10.875C14.1312 12.0541 14.2396 13.2333 14.3504 14.4124L14.5556 15.7813C14.5556 15.7813 14.6157 16.2942 14.7678 17.0477C15.287 19.5681 16.6495 21.8364 18.6307 23.4787" stroke="#262626" stroke-width="1.5" stroke-linecap="round" stroke-linejoin="round"/>
<path d="M16.4023 26.2234V20.9951" stroke="#262626" stroke-width="1.5" stroke-linecap="round" stroke-linejoin="round"/>
<path d="M29.3632 18.9688L29.0978 20.5535C28.867 21.9524 28.1171 23.2127 26.9978 24.0828C25.8784 24.953 24.4721 25.3689 23.0595 25.2476" stroke="#262626" stroke-width="1.5" stroke-linecap="round" stroke-linejoin="round"/>
<path d="M31.2856 13.826L30.8505 17.7171C30.8349 18.0565 30.6862 18.376 30.4365 18.6065C30.1868 18.8369 29.8565 18.9596 29.5169 18.9481C29.1835 18.8837 28.889 18.6905 28.6969 18.4105C28.5049 18.1304 28.431 17.786 28.4911 17.4518L28.7741 14.9261C28.7897 14.5867 28.9385 14.2672 29.1881 14.0368C29.4378 13.8064 29.7681 13.6836 30.1077 13.6951L31.2856 13.826Z" stroke="#262626" stroke-width="1.5" stroke-linecap="round" stroke-linejoin="round"/>
<path d="M10.9628 13.826L11.398 17.7171C11.4136 18.0565 11.5623 18.376 11.8119 18.6065C12.0616 18.8369 12.3919 18.9596 12.7315 18.9481C13.0649 18.8837 13.3595 18.6905 13.5516 18.4105C13.7435 18.1304 13.8175 17.786 13.7573 17.4518L13.4708 14.9261C13.4561 14.587 13.3081 14.2676 13.0591 14.037C12.81 13.8065 12.48 13.6836 12.1408 13.6951L10.9628 13.826Z" stroke="#262626" stroke-width="1.5" stroke-linecap="round" stroke-linejoin="round"/>
<path d="M11.2001 13.7998L11.0515 12.6679C10.8345 11.2274 10.928 9.75713 11.3257 8.35574C11.7233 6.95432 12.416 5.65411 13.3573 4.5423C14.2985 3.43048 15.4667 2.53276 16.7833 1.9093C18.0998 1.28584 19.5345 0.951031 20.991 0.927374C22.4476 0.903712 23.8923 1.19173 25.2285 1.77211C26.5646 2.35249 27.7613 3.21184 28.7382 4.2925C29.715 5.37316 30.4495 6.65016 30.8925 8.03792C31.3355 9.42565 31.4767 10.8921 31.3066 12.3389L31.1474 13.8105" stroke="#262626" stroke-width="1.5" stroke-linecap="round" stroke-linejoin="round"/>
</g>
<defs>
<clipPath id="clip0_1_790">
<rect width="55.5556" height="50" fill="white"/>
</clipPath>
</defs>
</svg>
