<svg width="22" height="22" viewBox="0 0 22 22"  xmlns="http://www.w3.org/2000/svg">
<path d="M9.70912 2.75001C10.6491 2.75001 11.5258 3.43891 11.8423 4.54311C11.9585 5.00467 12.0058 5.46721 12.0511 5.91302L12.0936 6.31848C12.2561 7.67167 12.2561 14.3195 12.0936 15.6825L12.0511 16.1027C12.0105 16.5269 11.9689 16.9658 11.8489 17.4343C11.5325 18.5355 10.6888 19.25 9.73085 19.25C9.70062 19.25 9.67039 19.25 9.63638 19.249C9.10732 19.249 8.53198 18.9183 8.20605 18.63L5.0289 15.9344H3.39734C2.13801 15.9344 1.21594 15.0064 1.04873 13.5706C0.855999 12.1347 0.893788 9.67143 1.04873 8.36647C1.23106 7.00738 2.19658 6.06556 3.39734 6.06556H5.0289L8.14558 3.40939C8.52159 3.07675 9.18479 2.74805 9.70912 2.75001ZM17.3964 2.95265C17.7724 2.68103 18.2892 2.78043 18.5471 3.16916C19.9605 5.28603 20.7389 8.06817 20.7389 10.9999C20.7389 13.9336 19.9605 16.7148 18.5471 18.8316C18.3931 19.0629 18.139 19.2017 17.8679 19.2017C17.6997 19.2017 17.5372 19.1485 17.3974 19.0481C17.0233 18.7755 16.9307 18.2392 17.1895 17.8495C18.412 16.017 19.0856 13.5842 19.0856 10.9999C19.0856 8.41656 18.412 5.98378 17.1895 4.15132C16.9307 3.76259 17.0233 3.22526 17.3964 2.95265ZM14.5479 5.73686C14.9248 5.46622 15.4397 5.56365 15.6995 5.95337C16.6121 7.32132 17.1157 9.11342 17.1157 11C17.1157 12.8866 16.6121 14.6787 15.6995 16.0466C15.5446 16.2779 15.2914 16.4167 15.0202 16.4167C14.8521 16.4167 14.6886 16.3635 14.5488 16.2631C14.1747 15.9905 14.0821 15.4532 14.3419 15.0645C15.0646 13.9809 15.4624 12.5372 15.4624 11C15.4624 9.4618 15.0646 8.01907 14.3419 6.93553C14.0821 6.5468 14.1747 6.00947 14.5479 5.73686Z" fill='#655F5F'/>
</svg>
