<svg width="24" height="38" viewBox="0 0 24 38" fill="none" xmlns="http://www.w3.org/2000/svg">
<path d="M1.25198 30.5216C2.78318 35.168 6.32078 37.8608 12.1288 37.8608C17.9368 37.8608 21.4744 35.168 23.0056 30.5216C23.5336 28.8848 23.7448 26.8784 23.7448 19.328C23.7448 11.7776 23.5336 9.77116 23.0056 8.13436C21.4744 3.48796 17.9368 0.795166 12.1288 0.795166C6.32078 0.795166 2.78318 3.48796 1.25198 8.13436C0.723984 9.77116 0.512787 11.7776 0.512787 19.328C0.512787 26.8784 0.723984 28.8848 1.25198 30.5216ZM8.53838 29.2016C8.22158 28.2512 8.06319 27.1952 8.06319 19.328C8.06319 11.4608 8.22158 10.4048 8.53838 9.45436C9.06638 7.87036 10.228 7.07837 12.1288 7.07837C14.0296 7.07837 15.1912 7.87036 15.7192 9.45436C16.036 10.4048 16.1944 11.4608 16.1944 19.328C16.1944 27.1952 16.036 28.2512 15.7192 29.2016C15.1912 30.7856 14.0296 31.5776 12.1288 31.5776C10.228 31.5776 9.06638 30.7856 8.53838 29.2016Z" fill="#4C4C4C"/>
</svg>
