<svg width="30" height="30" viewBox="0 0 30 30" fill="none" xmlns="http://www.w3.org/2000/svg">
<rect width="30" height="30" fill="#F5F5F5"/>
<g id="Landing page">
<g id="&#208;&#147;&#208;&#187;&#208;&#176;&#208;&#178;&#208;&#189;&#208;&#176;&#209;&#143; 3" clip-path="url(#clip0_0_1)">
<rect width="1440" height="8023" transform="translate(-1294 -7909)" fill="#FEF5E8"/>
<rect id="Rectangle 722" x="-1294" y="-996" width="1440" height="1110" fill="#262626"/>
<g id="Group 4396">
<g id="social/30/instagram">
<g id="Ellipse 264">
<circle cx="15" cy="15" r="15" fill="url(#paint0_linear_0_1)"/>
<circle cx="15" cy="15" r="15" fill="url(#paint1_radial_0_1)"/>
</g>
<g id="social/instagram">
<path id="Vector" d="M15.0016 11.4392C13.031 11.4392 11.4415 13.029 11.4415 15.0001C11.4415 16.9712 13.031 18.561 15.0016 18.561C16.9722 18.561 18.5617 16.9712 18.5617 15.0001C18.5617 13.029 16.9722 11.4392 15.0016 11.4392ZM15.0016 17.3152C13.7281 17.3152 12.687 16.277 12.687 15.0001C12.687 13.7233 13.725 12.685 15.0016 12.685C16.2782 12.685 17.3162 13.7233 17.3162 15.0001C17.3162 16.277 16.2751 17.3152 15.0016 17.3152ZM19.5378 11.2935C19.5378 11.7553 19.1659 12.1241 18.7074 12.1241C18.2457 12.1241 17.877 11.7522 17.877 11.2935C17.877 10.8348 18.2488 10.4629 18.7074 10.4629C19.1659 10.4629 19.5378 10.8348 19.5378 11.2935ZM21.8957 12.1365C21.843 11.0239 21.5889 10.0384 20.774 9.22637C19.9622 8.41439 18.9769 8.16026 17.8646 8.10448C16.7182 8.03939 13.2819 8.03939 12.1355 8.10448C11.0263 8.15716 10.0409 8.41129 9.22605 9.22327C8.41115 10.0353 8.16018 11.0208 8.1044 12.1334C8.03934 13.2801 8.03934 16.717 8.1044 17.8637C8.15708 18.9763 8.41115 19.9619 9.22605 20.7738C10.0409 21.5858 11.0232 21.84 12.1355 21.8957C13.2819 21.9608 16.7182 21.9608 17.8646 21.8957C18.9769 21.8431 19.9622 21.5889 20.774 20.7738C21.5858 19.9619 21.8399 18.9763 21.8957 17.8637C21.9608 16.717 21.9608 13.2832 21.8957 12.1365ZM20.4146 19.0941C20.1729 19.7015 19.7051 20.1695 19.0947 20.4143C18.1806 20.7769 16.0117 20.6933 15.0016 20.6933C13.9915 20.6933 11.8195 20.7738 10.9085 20.4143C10.3012 20.1726 9.83335 19.7046 9.58857 19.0941C9.22605 18.1798 9.30971 16.0104 9.30971 15.0001C9.30971 13.9898 9.22915 11.8173 9.58857 10.9061C9.83025 10.2987 10.2981 9.83071 10.9085 9.58587C11.8226 9.22327 13.9915 9.30695 15.0016 9.30695C16.0117 9.30695 18.1837 9.22637 19.0947 9.58587C19.702 9.82761 20.1698 10.2956 20.4146 10.9061C20.7771 11.8204 20.6935 13.9898 20.6935 15.0001C20.6935 16.0104 20.7771 18.1829 20.4146 19.0941Z" fill="white"/>
</g>
</g>
</g>
</g>
</g>
<defs>
<linearGradient id="paint0_linear_0_1" x1="8.5" y1="8.39432e-08" x2="15" y2="30" gradientUnits="userSpaceOnUse">
<stop stop-color="#3350F3"/>
<stop offset="0.552532" stop-color="#D41EB0"/>
<stop offset="1" stop-color="#F8214E"/>
</linearGradient>
<radialGradient id="paint1_radial_0_1" cx="0" cy="0" r="1" gradientUnits="userSpaceOnUse" gradientTransform="translate(6 27) rotate(-31.6075) scale(22.8965)">
<stop stop-color="#FFD43D"/>
<stop offset="1" stop-color="#F75F2B" stop-opacity="0.12"/>
</radialGradient>
<clipPath id="clip0_0_1">
<rect width="1440" height="8023" fill="white" transform="translate(-1294 -7909)"/>
</clipPath>
</defs>
</svg>
