<svg width="320" height="180" viewBox="0 0 320 180" fill="none" xmlns="http://www.w3.org/2000/svg">
<path d="M222.414 102.327V86.7712H210.153V102.327C196.375 105.134 186.1 117.298 186.1 131.918C186.1 143.146 192.172 152.854 201.162 158.118C202.213 158.702 203.498 159.053 204.782 159.053H227.668C228.952 159.053 230.237 158.702 231.288 158.118C240.278 152.854 246.35 143.146 246.35 131.918C246.467 117.298 236.192 105.134 222.414 102.327Z" fill="#F7F7F7" stroke="#4C4C4C" stroke-width="2" stroke-miterlimit="10" stroke-linejoin="round"/>
<path d="M242.146 131.918C242.146 140.807 237.709 148.877 230.47 153.556C229.302 154.257 227.901 154.725 226.5 154.725H206.066C204.665 154.725 203.264 154.374 202.096 153.556C194.857 148.761 190.42 140.807 190.42 131.918C190.42 130.164 190.653 128.41 191.004 126.655H241.68C241.913 128.41 242.146 130.164 242.146 131.918Z" fill="#CACACA" stroke="#4C4C4C" stroke-width="2" stroke-miterlimit="10" stroke-linejoin="round"/>
<path d="M226.734 84.7836C226.734 85.836 225.917 86.7721 224.75 86.7721H207.701C206.651 86.7721 205.717 85.9529 205.717 84.7836C205.717 83.7312 206.534 82.795 207.701 82.795H224.75C225.917 82.795 226.734 83.7312 226.734 84.7836Z" fill="#F7F7F7" stroke="#4C4C4C" stroke-width="2" stroke-miterlimit="10" stroke-linecap="round" stroke-linejoin="round"/>
<path d="M214.127 76.9467C215.545 76.9447 216.694 75.7905 216.692 74.3696C216.689 72.9486 215.538 71.7983 214.119 71.8003C212.7 71.8029 211.552 72.9565 211.554 74.3781C211.557 75.7991 212.708 76.9493 214.127 76.9467Z" stroke="#4C4C4C" stroke-width="2" stroke-miterlimit="10" stroke-linecap="round" stroke-linejoin="round"/>
<path d="M220.549 115.777C221.968 115.775 223.117 114.621 223.114 113.2C223.112 111.779 221.96 110.629 220.541 110.631C219.122 110.634 217.974 111.788 217.977 113.209C217.979 114.63 219.131 115.78 220.549 115.777Z" fill="white" stroke="#4C4C4C" stroke-width="2" stroke-miterlimit="10" stroke-linecap="round" stroke-linejoin="round"/>
<path d="M206.189 129.696C208.188 129.693 209.806 128.067 209.803 126.064C209.8 124.062 208.177 122.441 206.178 122.445C204.178 122.447 202.56 124.073 202.564 126.076C202.567 128.079 204.19 129.699 206.189 129.696Z" fill="white" stroke="#4C4C4C" stroke-width="2" stroke-miterlimit="10" stroke-linecap="round" stroke-linejoin="round"/>
<path d="M224.632 69.2276V66.8883" stroke="#4C4C4C" stroke-width="2" stroke-miterlimit="10" stroke-linecap="round" stroke-linejoin="round"/>
<path d="M224.632 60.8064V58.4672" stroke="#4C4C4C" stroke-width="2" stroke-miterlimit="10" stroke-linecap="round" stroke-linejoin="round"/>
<path d="M229.302 66.5377L227.317 65.368" stroke="#4C4C4C" stroke-width="2" stroke-miterlimit="10" stroke-linecap="round" stroke-linejoin="round"/>
<path d="M222.063 62.327L219.961 61.1573" stroke="#4C4C4C" stroke-width="2" stroke-miterlimit="10" stroke-linecap="round" stroke-linejoin="round"/>
<path d="M229.302 61.1573L227.317 62.327" stroke="#4C4C4C" stroke-width="2" stroke-miterlimit="10" stroke-linecap="round" stroke-linejoin="round"/>
<path d="M222.063 65.368L219.961 66.5377" stroke="#4C4C4C" stroke-width="2" stroke-miterlimit="10" stroke-linecap="round" stroke-linejoin="round"/>
<path opacity="0.1" fill-rule="evenodd" clip-rule="evenodd" d="M206.934 159.053V149.781V103.172C203.294 104.346 199.961 106.193 197.08 108.567V155.259C198.357 156.318 199.722 157.274 201.162 158.118C202.213 158.702 203.498 159.053 204.782 159.053H206.934Z" fill="#4C4C4C"/>
<path opacity="0.1" fill-rule="evenodd" clip-rule="evenodd" d="M236.497 109.444V120.876L203.828 158.989C204.143 159.031 204.463 159.053 204.783 159.053H227.668C228.953 159.053 230.238 158.702 231.288 158.117C240.279 152.854 246.351 143.146 246.351 131.918C246.351 131.913 246.351 131.908 246.351 131.902V131.441C246.285 122.699 242.504 114.87 236.497 109.444Z" fill="#4C4C4C"/>
<path d="M237.532 100.105C237.532 101.158 238.35 102.094 239.517 102.094H256.564C257.615 102.094 258.55 101.274 258.55 100.105C258.55 99.0526 257.732 98.1164 256.564 98.1164L239.517 98.234C238.35 98.1164 237.532 99.0526 237.532 100.105V100.105Z" stroke="#4C4C4C" stroke-width="2" stroke-miterlimit="10" stroke-linecap="round" stroke-linejoin="round"/>
<path d="M255.28 102.21V126.187L279.567 154.842C280.151 155.544 280.385 156.597 280.034 157.532C279.684 158.468 278.984 159.053 278.049 159.053L217.565 158.936C216.748 158.936 215.93 158.351 215.697 157.415C215.346 156.48 215.58 155.427 216.164 154.725L240.918 125.719V102.21H255.28Z" fill="white" stroke="#4C4C4C" stroke-width="2" stroke-miterlimit="10" stroke-linejoin="round"/>
<path d="M248.975 137.649L235.314 137.532L222.936 152.269C222.47 152.854 222.353 153.673 222.586 154.374C222.82 155.076 223.404 155.544 224.104 155.544H271.511C272.211 155.544 272.795 155.076 273.029 154.374C273.262 153.673 273.145 152.854 272.679 152.269L260.301 137.766H256.448C256.448 138.351 256.098 141.743 252.712 141.743C248.858 141.743 248.975 137.649 248.975 137.649Z" fill="url(#paint0_linear_1_1400)" stroke="#4C4C4C" stroke-width="2"/>
<path d="M242.994 145.569C242.996 144.147 241.848 142.994 240.429 142.992C239.01 142.989 237.858 144.139 237.856 145.56C237.854 146.981 239.002 148.136 240.421 148.137C241.839 148.139 242.992 146.99 242.994 145.569Z" fill="#8566FF" stroke="#4D4D4D" stroke-width="2"/>
<path d="M256.361 137.938C256.365 135.936 254.747 134.31 252.748 134.306C250.748 134.303 249.125 135.924 249.122 137.926C249.119 139.929 250.737 141.555 252.736 141.558C254.735 141.561 256.358 139.941 256.361 137.938Z" fill="#8566FF" stroke="#4D4D4D" stroke-width="2"/>
<path d="M64.9678 150.76V75.0022C64.9678 70.8169 68.3608 67.4238 72.5468 67.4238H191.294C195.48 67.4238 198.874 70.8169 198.874 75.0029V150.761C198.874 150.935 198.805 151.102 198.682 151.225C198.559 151.348 198.391 151.417 198.217 151.417H65.6247C65.4505 151.417 65.2834 151.348 65.1602 151.225C65.037 151.102 64.9678 150.934 64.9678 150.76Z" fill="#E8E8E8"/>
<path d="M66.281 150.103H197.559V75.0022C197.559 73.3408 196.899 71.7471 195.724 70.5725C194.549 69.3973 192.956 68.7377 191.294 68.7377H72.5462C70.8841 68.7377 69.2904 69.3979 68.1158 70.5725C66.9406 71.7478 66.281 73.3408 66.281 75.0029V150.104V150.103ZM64.9668 150.76V75.0022C64.9668 70.8169 68.3602 67.4238 72.5462 67.4238H191.294C195.48 67.4238 198.873 70.8169 198.873 75.0029V150.761C198.873 150.935 198.804 151.101 198.681 151.225C198.557 151.348 198.39 151.417 198.216 151.417H65.6237C65.4495 151.417 65.2825 151.348 65.1592 151.225C65.036 151.101 64.9668 150.935 64.9668 150.761V150.76Z" fill="#4C4C4C"/>
<path fill-rule="evenodd" clip-rule="evenodd" d="M187.929 151.121H75.9131V82.0066C75.9131 81.529 76.007 81.056 76.1897 80.6145C76.3723 80.1731 76.6403 79.7724 76.978 79.434C77.3163 79.0964 77.717 78.8283 78.1585 78.6457C78.5999 78.4631 79.0729 78.3691 79.5505 78.3691H184.291C184.769 78.3691 185.242 78.4631 185.684 78.6457C186.125 78.8283 186.526 79.0964 186.864 79.434C187.202 79.7724 187.47 80.1731 187.652 80.6145C187.835 81.056 187.929 81.529 187.929 82.0066V151.121Z" fill="#CACACA"/>
<path d="M187.272 82.0064C187.272 81.6149 187.195 81.2273 187.045 80.866C186.895 80.504 186.676 80.1755 186.399 79.899C186.122 79.6217 185.794 79.4023 185.432 79.2525C185.07 79.1028 184.683 79.0259 184.291 79.0259H79.5495C79.158 79.0259 78.7704 79.1028 78.4091 79.2525C78.0477 79.4023 77.7186 79.6224 77.442 79.899C77.1655 80.1755 76.9461 80.504 76.7963 80.866C76.6465 81.2273 76.5696 81.6149 76.5696 82.0064V150.464H187.272V82.0064ZM187.929 151.778H75.9127C75.7386 151.778 75.5711 151.709 75.4482 151.586C75.3247 151.463 75.2558 151.295 75.2558 151.121V82.0064C75.2558 81.4428 75.3668 80.8837 75.5823 80.3628C75.7984 79.8418 76.1144 79.3682 76.5131 78.9694C76.9119 78.5707 77.3856 78.2547 77.9065 78.0385C78.4274 77.8231 78.9865 77.712 79.5501 77.712H184.291C184.855 77.712 185.414 77.8231 185.935 78.0385C186.456 78.2547 186.929 78.5707 187.328 78.9694C187.727 79.3682 188.043 79.8418 188.259 80.3628C188.474 80.8837 188.585 81.4428 188.585 82.0064V151.121C188.585 151.295 188.517 151.463 188.393 151.586C188.27 151.709 188.103 151.778 187.929 151.778Z" fill="#4C4C4C"/>
<path fill-rule="evenodd" clip-rule="evenodd" d="M134.282 73.2048C134.287 73.5182 134.23 73.8296 134.114 74.1206C133.998 74.4123 133.824 74.677 133.604 74.9004C133.385 75.1244 133.122 75.3017 132.833 75.4226C132.544 75.5442 132.234 75.6066 131.92 75.6066C131.606 75.6066 131.296 75.5442 131.007 75.4226C130.717 75.3017 130.455 75.1244 130.236 74.9004C130.016 74.677 129.842 74.4123 129.726 74.1206C129.61 73.8296 129.553 73.5182 129.558 73.2048C129.568 72.5853 129.821 71.9947 130.263 71.5599C130.706 71.1256 131.3 70.8819 131.92 70.8819C132.54 70.8819 133.134 71.1256 133.576 71.5599C134.019 71.9947 134.271 72.5853 134.282 73.2048Z" fill="#E8E8E8"/>
<path d="M133.625 73.2051C133.625 72.7531 133.445 72.3195 133.125 71.9996C132.806 71.6797 132.373 71.5003 131.921 71.5003C131.468 71.4997 131.034 71.6797 130.715 71.9989C130.395 72.3189 130.215 72.7524 130.215 73.2044C130.215 73.4284 130.259 73.6498 130.345 73.8567C130.431 74.0637 130.556 74.2516 130.715 74.4099C130.873 74.5682 131.061 74.6937 131.267 74.7797C131.474 74.8651 131.696 74.9092 131.92 74.9098C132.143 74.9098 132.365 74.8658 132.572 74.7797C132.779 74.6943 132.967 74.5689 133.125 74.4105C133.284 74.2522 133.409 74.0643 133.495 73.8574C133.581 73.6505 133.625 73.4291 133.625 73.2051ZM134.939 73.2051C134.945 73.6051 134.871 74.0026 134.722 74.3744C134.573 74.7456 134.351 75.0839 134.07 75.369C133.79 75.6541 133.455 75.8801 133.085 76.0345C132.716 76.1895 132.32 76.269 131.92 76.269C131.519 76.269 131.123 76.1895 130.754 76.0345C130.385 75.8801 130.05 75.6541 129.769 75.369C129.488 75.0839 129.267 74.7456 129.118 74.3744C128.968 74.0026 128.895 73.6051 128.901 73.2051C128.913 72.4121 129.236 71.6554 129.801 71.0989C130.366 70.5425 131.126 70.2305 131.92 70.2305C132.713 70.2305 133.474 70.5425 134.039 71.0989C134.604 71.6554 134.927 72.4121 134.939 73.2051Z" fill="#4C4C4C"/>
<path fill-rule="evenodd" clip-rule="evenodd" d="M203.67 159.205H60.1712C56.7473 159.205 53.9717 156.429 53.9717 153.005V149.972H209.871V153.005C209.871 156.429 207.095 159.205 203.671 159.205" fill="#E8E8E8"/>
<path d="M54.6277 153.005C54.6277 154.475 55.2117 155.885 56.2512 156.925C57.2908 157.964 58.7007 158.548 60.1709 158.548H203.67C205.141 158.548 206.55 157.964 207.59 156.924C208.629 155.885 209.213 154.475 209.213 153.005V150.629H54.6277V153.005ZM203.67 159.862H60.1709C56.3843 159.862 53.3145 156.792 53.3145 153.005V149.972C53.3145 149.798 53.3837 149.631 53.5069 149.508C53.63 149.384 53.7972 149.315 53.9714 149.315H209.87C210.045 149.315 210.212 149.384 210.335 149.508C210.458 149.631 210.527 149.798 210.527 149.972V153.005C210.527 156.792 207.458 159.862 203.67 159.862H203.67Z" fill="#4C4C4C"/>
<path fill-rule="evenodd" clip-rule="evenodd" d="M144.647 154.015H123.131C122.309 154.015 121.52 153.688 120.939 153.107C120.358 152.526 120.03 151.737 120.03 150.915V149.973H147.747V150.915C147.747 151.737 147.42 152.525 146.839 153.106C146.257 153.688 145.469 154.014 144.647 154.015Z" fill="#4C4C4C"/>
<path fill-rule="evenodd" clip-rule="evenodd" d="M87.8282 149.891H176.013V19.708H87.8282V149.891Z" fill="white"/>
<path d="M87.8278 150.548C87.6537 150.548 87.4862 150.479 87.3634 150.356C87.2399 150.233 87.1709 150.065 87.1709 149.891V19.708C87.1709 19.5337 87.2399 19.3666 87.3634 19.2434C87.4862 19.1203 87.6537 19.051 87.8278 19.051H176.013C176.187 19.051 176.354 19.1203 176.477 19.2434C176.601 19.3666 176.67 19.5337 176.67 19.708V149.891C176.67 150.065 176.601 150.233 176.477 150.356C176.354 150.479 176.187 150.548 176.013 150.548H87.8278ZM88.4848 149.234H175.356V20.3649H88.4848V149.234Z" fill="#4C4C4C"/>
<path d="M118.674 59.6417H163.466C163.64 59.6417 163.808 59.5725 163.93 59.4493C164.054 59.3262 164.123 59.159 164.123 58.9848C164.123 58.8106 164.054 58.6435 163.93 58.5203C163.808 58.3971 163.64 58.3279 163.466 58.3279H118.674C118.499 58.3279 118.332 58.3971 118.209 58.5203C118.086 58.6435 118.017 58.8106 118.017 58.9848C118.017 59.159 118.086 59.3262 118.209 59.4493C118.332 59.5725 118.499 59.6417 118.674 59.6417ZM118.674 67.0257H159.265C159.44 67.0257 159.607 66.9567 159.73 66.8332C159.853 66.7104 159.922 66.5428 159.922 66.3688C159.922 66.1947 159.853 66.0271 159.73 65.9043C159.607 65.7808 159.44 65.7118 159.265 65.7118H118.674C118.499 65.7118 118.332 65.7808 118.209 65.9043C118.086 66.0271 118.017 66.1947 118.017 66.3688C118.017 66.5428 118.086 66.7104 118.209 66.8332C118.332 66.9567 118.499 67.0257 118.674 67.0257Z" fill="#A7A7A7"/>
<path fill-rule="evenodd" clip-rule="evenodd" d="M112.416 62.4495C112.416 66.1001 109.457 69.0589 105.807 69.0589C102.157 69.0589 99.1971 66.1001 99.1971 62.4495C99.1971 58.7989 102.157 55.8394 105.807 55.8394C109.457 55.8394 112.416 58.7989 112.416 62.4495Z" fill="#E8E8E8"/>
<path d="M103.614 62.3128C103.489 62.1931 103.324 62.1269 103.152 62.1284C102.979 62.13 102.815 62.1991 102.693 62.3209C102.571 62.4427 102.502 62.6074 102.5 62.7797C102.499 62.9519 102.565 63.1178 102.685 63.2417L104.432 64.9892C104.556 65.1124 104.723 65.1815 104.897 65.1815C105.071 65.1815 105.238 65.1124 105.361 64.9892L109.057 61.2926C109.177 61.1687 109.243 61.0028 109.242 60.8305C109.24 60.6583 109.171 60.4935 109.049 60.3717C108.927 60.2499 108.763 60.1808 108.59 60.1793C108.418 60.1778 108.252 60.244 108.128 60.3637L104.896 63.5958L103.614 62.3128ZM118.673 82.8946H163.466C163.64 82.8946 163.807 82.8256 163.93 82.7021C164.054 82.5793 164.123 82.4117 164.123 82.2377C164.123 82.0636 164.054 81.8961 163.93 81.7732C163.807 81.6497 163.64 81.5807 163.466 81.5807H118.673C118.499 81.5807 118.332 81.6497 118.209 81.7732C118.085 81.8961 118.016 82.0636 118.016 82.2377C118.016 82.4117 118.085 82.5793 118.209 82.7021C118.332 82.8256 118.499 82.8946 118.673 82.8946ZM118.673 90.2779H159.265C159.439 90.2779 159.607 90.2089 159.73 90.0854C159.853 89.9626 159.922 89.795 159.922 89.6209C159.922 89.4469 159.853 89.2793 159.73 89.1565C159.607 89.033 159.439 88.964 159.265 88.964H118.673C118.499 88.964 118.332 89.033 118.209 89.1565C118.085 89.2793 118.016 89.4469 118.016 89.6209C118.016 89.795 118.085 89.9626 118.209 90.0854C118.332 90.2089 118.499 90.2779 118.673 90.2779Z" fill="#A7A7A7"/>
<path fill-rule="evenodd" clip-rule="evenodd" d="M112.416 86.0991C112.416 89.749 109.457 92.7085 105.807 92.7085C102.157 92.7085 99.1971 89.749 99.1971 86.0991C99.1971 82.4485 102.157 79.489 105.807 79.489C109.457 79.489 112.416 82.4485 112.416 86.0991Z" fill="#E8E8E8"/>
<path d="M103.614 85.5657C103.553 85.5026 103.48 85.4527 103.4 85.4185C103.32 85.3837 103.234 85.366 103.147 85.3653C103.06 85.3647 102.973 85.3811 102.892 85.4139C102.812 85.4468 102.739 85.4961 102.677 85.5578C102.615 85.6189 102.566 85.6925 102.533 85.7733C102.5 85.8541 102.484 85.9408 102.484 86.0275C102.485 86.1149 102.503 86.2009 102.538 86.2811C102.572 86.3612 102.622 86.4342 102.685 86.4946L104.432 88.2414C104.556 88.3642 104.723 88.4339 104.897 88.4339C105.071 88.4339 105.238 88.3642 105.361 88.2414L109.057 84.5455C109.177 84.4213 109.243 84.2558 109.242 84.0836C109.24 83.9109 109.171 83.7466 109.049 83.6244C108.927 83.5029 108.763 83.4339 108.59 83.432C108.418 83.4307 108.252 83.497 108.128 83.6166L104.896 86.848L103.614 85.565V85.5657ZM118.673 129.398H163.466C163.64 129.398 163.807 129.329 163.93 129.206C164.054 129.083 164.123 128.915 164.123 128.741C164.123 128.567 164.054 128.4 163.93 128.277C163.807 128.153 163.64 128.084 163.466 128.084H118.673C118.499 128.084 118.332 128.153 118.209 128.277C118.085 128.4 118.016 128.567 118.016 128.741C118.016 128.915 118.085 129.083 118.209 129.206C118.332 129.329 118.499 129.398 118.673 129.398ZM118.673 136.782H159.265C159.439 136.782 159.607 136.713 159.73 136.59C159.853 136.467 159.922 136.299 159.922 136.125C159.922 135.951 159.853 135.784 159.73 135.661C159.607 135.537 159.439 135.468 159.265 135.468H118.673C118.499 135.468 118.332 135.537 118.209 135.661C118.085 135.784 118.016 135.951 118.016 136.125C118.016 136.299 118.085 136.467 118.209 136.59C118.332 136.713 118.499 136.782 118.673 136.782Z" fill="#A7A7A7"/>
<path fill-rule="evenodd" clip-rule="evenodd" d="M112.416 132.741C112.416 136.392 109.457 139.351 105.807 139.351C102.157 139.351 99.1971 136.392 99.1971 132.741C99.1971 129.091 102.157 126.131 105.807 126.131C109.457 126.131 112.416 129.091 112.416 132.741Z" fill="#E8E8E8"/>
<path d="M103.614 132.07C103.553 132.007 103.48 131.957 103.4 131.923C103.32 131.888 103.234 131.87 103.147 131.87C103.06 131.869 102.973 131.885 102.892 131.918C102.812 131.951 102.739 132 102.677 132.062C102.615 132.123 102.566 132.197 102.533 132.278C102.5 132.358 102.484 132.445 102.484 132.532C102.485 132.619 102.503 132.705 102.538 132.785C102.572 132.866 102.622 132.939 102.685 132.999L104.432 134.746C104.556 134.869 104.723 134.938 104.897 134.938C105.071 134.938 105.238 134.869 105.361 134.746L109.057 131.05C109.177 130.926 109.243 130.76 109.242 130.588C109.24 130.415 109.171 130.251 109.049 130.129C108.927 130.007 108.763 129.938 108.59 129.936C108.418 129.935 108.252 130.001 108.128 130.121L104.896 133.352L103.614 132.07ZM118.673 36.3889H163.466C163.64 36.3889 163.807 36.3197 163.93 36.1965C164.054 36.0733 164.123 35.9062 164.123 35.732C164.123 35.5578 164.054 35.3906 163.93 35.2675C163.807 35.1443 163.64 35.075 163.466 35.075H118.673C118.499 35.075 118.332 35.1443 118.209 35.2675C118.085 35.3906 118.016 35.5578 118.016 35.732C118.016 35.9062 118.085 36.0733 118.209 36.1965C118.332 36.3197 118.499 36.3889 118.673 36.3889ZM118.673 43.7729H159.265C159.439 43.7729 159.607 43.7036 159.73 43.5804C159.853 43.4573 159.922 43.2901 159.922 43.1159C159.922 42.9417 159.853 42.7746 159.73 42.6514C159.607 42.5282 159.439 42.459 159.265 42.459H118.673C118.499 42.459 118.332 42.5282 118.209 42.6514C118.085 42.7746 118.016 42.9417 118.016 43.1159C118.016 43.2901 118.085 43.4573 118.209 43.5804C118.332 43.7036 118.499 43.7729 118.673 43.7729Z" fill="#A7A7A7"/>
<path fill-rule="evenodd" clip-rule="evenodd" d="M112.416 39.4561C112.416 43.1067 109.457 46.0662 105.807 46.0662C102.157 46.0662 99.1971 43.1067 99.1971 39.4561C99.1971 35.8055 102.157 32.8467 105.807 32.8467C109.457 32.8467 112.416 35.8055 112.416 39.4561Z" fill="#E8E8E8"/>
<path d="M118.674 106.146H163.466C163.64 106.146 163.808 106.077 163.93 105.953C164.054 105.831 164.123 105.663 164.123 105.489C164.123 105.315 164.054 105.147 163.93 105.025C163.808 104.901 163.64 104.832 163.466 104.832H118.674C118.499 104.832 118.332 104.901 118.209 105.025C118.086 105.147 118.017 105.315 118.017 105.489C118.017 105.663 118.086 105.831 118.209 105.953C118.332 106.077 118.499 106.146 118.674 106.146ZM118.674 113.53H159.265C159.44 113.53 159.607 113.461 159.73 113.337C159.853 113.215 159.922 113.047 159.922 112.873C159.922 112.699 159.853 112.531 159.73 112.408C159.607 112.285 159.44 112.216 159.265 112.216H118.674C118.499 112.216 118.332 112.285 118.209 112.408C118.086 112.531 118.017 112.699 118.017 112.873C118.017 113.047 118.086 113.215 118.209 113.337C118.332 113.461 118.499 113.53 118.674 113.53Z" fill="#A7A7A7"/>
<path fill-rule="evenodd" clip-rule="evenodd" d="M112.416 109.091C112.416 112.742 109.457 115.701 105.807 115.701C102.157 115.701 99.1971 112.742 99.1971 109.091C99.1971 105.441 102.157 102.482 105.807 102.482C109.457 102.482 112.416 105.441 112.416 109.091Z" fill="#E8E8E8"/>
<path d="M103.614 108.42C103.553 108.358 103.481 108.308 103.401 108.273C103.321 108.239 103.234 108.221 103.147 108.22C103.06 108.219 102.973 108.236 102.892 108.269C102.812 108.302 102.739 108.351 102.677 108.413C102.615 108.474 102.567 108.547 102.533 108.628C102.5 108.709 102.484 108.796 102.484 108.883C102.485 108.97 102.503 109.056 102.538 109.137C102.572 109.217 102.622 109.289 102.685 109.349L104.432 111.096C104.556 111.22 104.723 111.289 104.897 111.289C105.071 111.289 105.238 111.22 105.361 111.096L109.057 107.4C109.177 107.277 109.243 107.111 109.242 106.938C109.24 106.766 109.171 106.601 109.049 106.479C108.928 106.358 108.763 106.289 108.591 106.287C108.418 106.285 108.252 106.352 108.128 106.471L104.896 109.703L103.614 108.42Z" fill="#A7A7A7"/>
<path d="M103.614 38.7855C103.553 38.7228 103.481 38.6727 103.401 38.6383C103.321 38.6039 103.234 38.5858 103.147 38.585C103.06 38.5842 102.973 38.6009 102.892 38.6339C102.812 38.6669 102.739 38.7157 102.677 38.7774C102.615 38.8391 102.567 38.9124 102.533 38.9931C102.5 39.0739 102.484 39.1604 102.484 39.2476C102.485 39.3349 102.503 39.421 102.538 39.5012C102.572 39.5813 102.622 39.6538 102.685 39.7144L104.432 41.4612C104.556 41.5844 104.723 41.6536 104.897 41.6536C105.071 41.6536 105.238 41.5844 105.361 41.4612L109.057 37.7653C109.177 37.6414 109.243 37.4755 109.242 37.3032C109.24 37.131 109.171 36.9662 109.049 36.8444C108.928 36.7226 108.763 36.6535 108.591 36.652C108.418 36.6505 108.252 36.7167 108.128 36.8364L104.896 40.0679L103.614 38.7855Z" fill="#A7A7A7"/>
<path opacity="0.1" fill-rule="evenodd" clip-rule="evenodd" d="M64.9678 91.6509L66.0005 90.8396C65.6325 90.2168 65.2882 89.5835 64.9678 88.9404V75.0022C64.9678 70.8169 68.3608 67.4238 72.5468 67.4238H120.81C121.877 71.1808 122.203 75.1441 121.732 79.1278C119.796 95.5761 104.833 107.392 88.3849 105.447C81.7925 104.672 75.7763 101.805 71.0773 97.267L66.4984 100.863C66.643 101.084 66.7533 101.325 66.8256 101.579C66.9182 101.907 66.9458 102.25 66.9057 102.588C66.8663 102.927 66.7599 103.254 66.5937 103.551C66.4275 103.848 66.2041 104.11 65.9368 104.321L64.9678 105.085V91.6509Z" fill="#4C4C4C"/>
<path fill-rule="evenodd" clip-rule="evenodd" d="M63.2581 92.5226L71.4561 86.0834L66.397 79.6421L58.199 86.0807L63.2581 92.5226Z" fill="#CACACA"/>
<path d="M63.6639 93.0391C63.5269 93.1468 63.3529 93.1954 63.1801 93.1744C63.0073 93.1534 62.8498 93.0647 62.7422 92.9281L57.6832 86.4862C57.5756 86.3495 57.5269 86.1754 57.5477 86.002C57.5685 85.8292 57.6572 85.6716 57.7942 85.5638L65.992 79.1259C66.1293 79.0181 66.3033 78.9695 66.4761 78.9899C66.6489 79.0109 66.8066 79.0996 66.9143 79.2362L71.9727 85.6775C72.0804 85.8148 72.129 85.9889 72.1087 86.1616C72.0877 86.3344 71.9996 86.4921 71.8623 86.5998L63.6639 93.0391ZM70.534 85.9725L66.2863 80.5646L59.1219 86.1912L63.3696 91.5997L70.534 85.9725Z" fill="#4C4C4C"/>
<path fill-rule="evenodd" clip-rule="evenodd" d="M67.675 89.0531L73.7996 84.2437L68.7405 77.8018L62.6162 82.6112L67.675 89.0531Z" fill="#4C4C4C"/>
<path fill-rule="evenodd" clip-rule="evenodd" d="M71.9721 42.1884C78.2786 37.2141 86.1375 34.9884 94.0963 35.9278C102.071 36.8633 109.212 40.862 114.191 47.1922C119.139 53.4962 121.354 61.3446 120.418 69.2737C118.482 85.722 103.519 97.5383 87.071 95.5931C79.0867 94.6544 71.9484 90.6471 66.9702 84.3201C62.0163 78.0182 59.8083 70.1816 60.7399 62.2485C61.6773 54.2871 65.6629 47.162 71.9721 42.1877" fill="#CACACA"/>
<path d="M72.3784 42.704C66.2085 47.5679 62.3088 54.5341 61.3917 62.3253C60.4799 70.0903 62.6418 77.7521 67.4862 83.9135C72.358 90.1064 79.3399 94.023 87.1482 94.9408C103.233 96.8433 117.872 85.2871 119.765 69.1968C120.681 61.4417 118.516 53.7668 113.674 47.5988C108.806 41.4085 101.825 37.4958 94.0185 36.5801C86.2358 35.661 78.5509 37.8361 72.3784 42.704ZM71.5651 41.6726C78.011 36.5893 86.0439 34.3149 94.1722 35.2747C102.325 36.2319 109.623 40.3213 114.707 46.7868C119.764 53.2281 122.027 61.2506 121.07 69.3506C119.092 86.1615 103.8 98.2333 86.9939 96.2455C78.8393 95.287 71.5415 91.1936 66.4535 84.7254C61.3943 78.2908 59.1351 70.2814 60.087 62.1716C61.0448 54.0341 65.1211 46.752 71.5651 41.672V41.6726Z" fill="#4C4C4C"/>
<path fill-rule="evenodd" clip-rule="evenodd" d="M71.8456 80.4771C75.8036 85.5151 81.4645 88.6848 87.7973 89.4331C100.852 90.9762 112.719 81.6077 114.252 68.5491C114.99 62.2511 113.236 56.0299 109.304 51.032C105.354 46.0084 99.6944 42.8321 93.3714 42.0865C87.0504 41.3442 80.8213 43.1041 75.8148 47.0621C70.8129 51.0083 67.6458 56.6658 66.8982 62.975C66.1579 69.2711 67.9119 75.4831 71.8456 80.4771Z" fill="white"/>
<path fill-rule="evenodd" clip-rule="evenodd" d="M106.423 65.6926C106.423 74.4004 99.3652 81.4599 90.6569 81.4599C81.9499 81.4599 74.8905 74.4004 74.8905 65.6926C74.8905 56.9848 81.9499 49.927 90.6569 49.927C99.3652 49.927 106.423 56.9848 106.423 65.6926Z" fill="#3A10E5"/>
<path d="M86.0663 64.1682C85.9244 64.0199 85.7556 63.9016 85.5683 63.8202C85.3818 63.7388 85.1801 63.6959 84.9771 63.6941C84.7735 63.6923 84.5711 63.7316 84.3832 63.8097C84.1947 63.8878 84.0232 64.0031 83.8794 64.149C83.7355 64.2948 83.6218 64.4682 83.545 64.6591C83.4675 64.85 83.4287 65.0545 83.4307 65.2607C83.4326 65.4669 83.4747 65.6708 83.5548 65.8603C83.6356 66.0495 83.7519 66.2209 83.8984 66.3642L87.976 70.4943C88.2631 70.7853 88.6533 70.9489 89.0593 70.9489C89.4659 70.9489 89.8555 70.7853 90.1432 70.4943L98.7668 61.7562C99.046 61.4633 99.2004 61.071 99.1971 60.6637C99.1938 60.2565 99.0322 59.8669 98.7484 59.5789C98.464 59.291 98.0797 59.1277 97.6776 59.1241C97.2756 59.1206 96.8886 59.2771 96.5996 59.5601L89.058 67.1998L86.0663 64.1682Z" fill="white"/>
<path d="M71.3288 80.8823C67.2887 75.755 65.4849 69.3689 66.2455 62.8974C67.0141 56.4128 70.2711 50.5983 75.4071 46.5463C80.5463 42.4832 86.9487 40.6707 93.4484 41.4334C99.9455 42.2001 105.763 45.4657 109.82 50.6253C113.858 55.7579 115.663 62.1525 114.905 68.6253C113.329 82.0444 101.135 91.6705 87.7206 90.0853C81.2065 89.3154 75.39 86.0518 71.3288 80.8823ZM72.3615 80.0704C76.2079 84.9658 81.7077 88.0521 87.8744 88.7807C100.568 90.2811 112.109 81.1701 113.6 68.4722C114.318 62.3443 112.611 56.2972 108.787 51.4379C104.945 46.5523 99.4449 43.464 93.2947 42.7388C87.1419 42.0161 81.0876 43.7307 76.221 47.5777C71.3584 51.4142 68.278 56.9128 67.5508 63.0512C66.8301 69.1764 68.5362 75.215 72.3615 80.0704Z" fill="#4C4C4C"/>
<path fill-rule="evenodd" clip-rule="evenodd" d="M18.4923 115.258L25.6673 124.343L64.2163 93.9508C64.416 93.7938 64.5827 93.598 64.7069 93.376C64.831 93.1539 64.9102 92.9102 64.9399 92.6573C64.9696 92.405 64.9493 92.1488 64.88 91.9045C64.8107 91.6594 64.6939 91.4308 64.5362 91.2311L59.7603 85.1847C59.4424 84.782 58.9775 84.5218 58.4678 84.462C57.9582 84.4016 57.4455 84.5461 57.0425 84.8641L18.4923 115.258Z" fill="#E8E8E8"/>
<path d="M17.9763 115.665C17.9228 115.597 17.8831 115.52 17.8596 115.437C17.8361 115.354 17.8291 115.267 17.8393 115.182C17.8493 115.096 17.8762 115.013 17.9183 114.937C17.9604 114.862 18.017 114.796 18.0847 114.742L56.6349 84.3484C57.1746 83.9227 57.8613 83.7282 58.5441 83.809C59.2268 83.8892 59.8497 84.238 60.2756 84.7774L65.0509 90.8238C65.2621 91.0912 65.4186 91.3973 65.5113 91.7251C65.6042 92.0529 65.6314 92.3958 65.5917 92.7342C65.5519 93.0725 65.4458 93.3996 65.2795 93.6966C65.1132 93.9942 64.89 94.2556 64.6226 94.4665L26.0737 124.859C25.937 124.967 25.763 125.016 25.59 124.996C25.4171 124.975 25.2593 124.887 25.1513 124.75L17.9763 115.665ZM25.7754 123.421L63.8086 93.4351C63.9405 93.3313 64.0507 93.2019 64.1328 93.0554C64.2149 92.9089 64.2672 92.7473 64.2868 92.5804C64.3065 92.4136 64.2931 92.2447 64.2473 92.0831C64.2015 91.9215 64.1244 91.7704 64.0202 91.6384L59.2442 85.5913C59.0342 85.3252 58.727 85.1538 58.3904 85.1137C58.0536 85.0743 57.715 85.1702 57.4488 85.3798L19.415 115.367L25.7754 123.421Z" fill="#4C4C4C"/>
<path fill-rule="evenodd" clip-rule="evenodd" d="M16.1831 119.543L20.959 125.589C21.2761 125.991 21.7397 126.252 22.2481 126.313C22.7565 126.374 23.2684 126.231 23.6715 125.915L25.7409 124.295L18.5658 115.209L16.5096 116.819C16.3088 116.976 16.141 117.171 16.0157 117.393C15.8906 117.615 15.8105 117.86 15.7802 118.113C15.7498 118.366 15.7699 118.623 15.839 118.868C15.9081 119.113 16.0251 119.343 16.1831 119.543Z" fill="#CACACA"/>
<path d="M15.6679 119.95C15.4562 119.682 15.2995 119.375 15.2068 119.047C15.1142 118.719 15.0873 118.374 15.1278 118.035C15.1684 117.696 15.2754 117.369 15.443 117.071C15.6105 116.774 15.8352 116.513 16.1041 116.302L18.1603 114.692C18.2971 114.585 18.4708 114.536 18.6435 114.557C18.8161 114.577 18.9736 114.666 19.0813 114.802L26.2564 123.887C26.31 123.956 26.3497 124.033 26.3732 124.117C26.3967 124.2 26.4034 124.287 26.3931 124.373C26.3828 124.459 26.3556 124.542 26.3131 124.617C26.2705 124.693 26.2135 124.759 26.1453 124.812L24.076 126.432C23.5361 126.855 22.8505 127.047 22.1696 126.965C21.4887 126.884 20.8678 126.535 20.4431 125.997L15.6672 119.95H15.6679ZM16.9141 117.336C16.7814 117.44 16.6704 117.57 16.5877 117.716C16.505 117.863 16.4521 118.024 16.4321 118.192C16.4121 118.359 16.4253 118.529 16.4711 118.691C16.5168 118.853 16.5941 119.004 16.6986 119.136L21.4745 125.183C21.6839 125.449 21.9902 125.621 22.3262 125.661C22.6621 125.701 23.0003 125.606 23.2666 125.398L24.8164 124.184L18.4553 116.13L16.9141 117.336Z" fill="#4C4C4C"/>
<path opacity="0.1" d="M176.058 67.6642H181.314V149.781H176.058V67.6642Z" fill="#4C4C4C"/>
<defs>
<linearGradient id="paint0_linear_1_1400" x1="272.378" y1="155.207" x2="261.291" y2="124.245" gradientUnits="userSpaceOnUse">
<stop stop-color="#3A10E5"/>
<stop offset="1" stop-color="#9075FF"/>
</linearGradient>
</defs>
</svg>
